<?xml version="1.0" encoding="utf-8"?>
<!-- Generator: Adobe Illustrator 24.3.0, SVG Export Plug-In . SVG Version: 6.00 Build 0)  -->
<svg version="1.1" id="Layer_1" xmlns="http://www.w3.org/2000/svg" xmlns:xlink="http://www.w3.org/1999/xlink" x="0px" y="0px"
	 viewBox="0 0 512 512" style="enable-background:new 0 0 512 512;" xml:space="preserve">

<g id="XMLID_1_">
	<path id="XMLID_3_" fill="#a989cb" d="M483.48,150.49c0-8.56-1.82-16.27-5.61-22.72c-3.65-6.45-9.12-11.78-16.41-15.99
		C400.88,76.85,340.29,41.93,279.7,7.01c-16.27-9.4-32.12-9.12-48.39,0.42C207.19,21.6,86.44,90.88,50.54,111.78
		c-14.87,8.56-22.02,21.74-22.02,38.85c0,70.26,0,140.67,0,210.93c0,8.41,1.82,15.85,5.33,22.3c3.65,6.59,9.26,12.2,16.69,16.55
		c36.04,20.9,156.66,90.04,180.78,104.34c16.27,9.54,31.98,9.96,48.39,0.42c60.59-35.06,121.17-69.84,181.76-104.77
		c7.57-4.35,13.04-9.82,16.69-16.55c3.51-6.45,5.33-13.88,5.33-22.3C483.48,361.42,483.48,220.75,483.48,150.49"/>
	<path id="XMLID_4_" fill='#7f8b99' d="M279.28,7.29c-16.27-9.4-32.12-9.12-48.25,0.42c-24.12,14.17-144.6,83.31-180.5,104.06
		c-14.73,8.56-22.02,21.6-22.02,38.71c0,70.12,0,140.25,0,210.37c0,8.41,1.82,15.85,5.33,22.3c3.65,6.59,9.26,12.06,16.69,16.41
		c8.27,4.77,20.9,12.06,35.76,20.62L418.83,87.65C372.27,61.01,325.84,34.22,279.28,7.29"/>
	<path id="XMLID_5_" fill="#ffffff" d="M302.98,223.84l70.83,0.56c0-29.45-29.87-101.82-115.42-101.82
		c-54.56,0-127.91,34.64-127.91,134.36s71.95,132.25,127.91,132.25c90.74,0,112.34-62.69,112.34-98.17l-67.6-3.93
		c0,0,1.82,40.95-45.16,40.95c-43.34,0-50.63-53.15-50.63-71.11c0-27.49,9.82-71.53,50.63-71.53
		C298.78,185.55,302.98,223.84,302.98,223.84"/>
</g>
</svg>
