<?xml version="1.0" encoding="utf-8"?>
<!-- Generator: Adobe Illustrator 24.1.1, SVG Export Plug-In . SVG Version: 6.00 Build 0)  -->
<svg version="1.1" id="Layer_1" xmlns="http://www.w3.org/2000/svg" xmlns:xlink="http://www.w3.org/1999/xlink" x="0px" y="0px"
	 viewBox="0 0 512 512" style="enable-background:new 0 0 512 512;" xml:space="preserve">
<style type="text/css">
	.st0{fill:#00D2B8;}
	.st1{fill:#55DDCA;}
	.st2{fill:#0081C6;}
	.st3{fill:#0079B3;}
	.st4{fill:#00A4E4;}
</style>
<g>
	<path fill="#00d2bb" d="M141.1,139.4L108,106.3l0.1,239.2l0.4,11.2c0.2,5.3,1.1,11.2,2.8,17.3l262.2,92.5l65.5-29l0-0.1L141.1,139.4"
		/>
	<path fill="#55ddca" d="M111.3,374L111.3,374l-0.1-0.3L111.3,374z M439,437.4l-65.5,29L111.3,374c5,19.2,16.1,40.8,28,52.6l85.6,85.1
		l190.3,0.2L439,437.4L439,437.4z"/>
	<path fill="#2281c6" d="M6.1,260.2c-8.5,9-4.3,27.7,9.4,41.4L74.3,361l37,13c-1.6-6.2-2.6-12.1-2.8-17.3l-0.4-11.2L108,106.3
		L6.1,260.2z"/>
	<path fill="#0079b3" d="M375.6,109.4c-6.2-1.6-12.1-2.5-17.4-2.7l-11.8-0.4l-238.4,0l331.1,331.1h0l29.1-65.6L375.6,109.4"/>
	<path fill="#00a4e4" d="M375.3,109.3l0.3,0.1l0,0L375.3,109.3z M428.2,137.5c-12-12.1-33.3-23.1-52.6-28.1l92.5,262.4l-29.1,65.6h0
		l71.1-22.7l0.2-194.8L428.2,137.5z"/>
	<path fill="#00d2bb" d="M362.7,72.6l-59.3-58.9C289.7,0.1,271-4.1,262,4.4L108,106.3l238.4,0l11.8,0.4c5.3,0.2,11.2,1.1,17.4,2.7
		L362.7,72.6z"/>
</g>
</svg>
