<?xml version="1.0" standalone="no"?>
<svg xmlns="http://www.w3.org/2000/svg" xmlns:xlink="http://www.w3.org/1999/xlink" id="body_1" width="1402" height="1402">

<g transform="matrix(2.9208333 0 0 2.9208333 0 0)">
	<g transform="matrix(2 0 0 2 0 0)">
		<g transform="matrix(5 0 0 5 0 0)">
            <path d="M14.4 32L24 32L24 41.6L14.4 32z" stroke="none" fill="#0055FF" fill-rule="nonzero" />
            <path d="M14.4 22.4L24 22.4L24 32L14.4 32L14.4 22.4z" stroke="none" fill="#00AAFF" fill-rule="nonzero" />
            <path d="M24 22.4L33.6 32L24 32L24 22.4z" stroke="none" fill="#00AAFF" fill-rule="nonzero" />
            <path d="M24 12.8L33.6 12.8L33.6 22.4L24 22.4L24 12.8z" stroke="none" fill="#88DDFF" fill-rule="nonzero" />
            <path d="M14.4 12.8L24 12.8L24 22.4L14.4 12.8z" stroke="none" fill="#88DDFF" fill-rule="nonzero" />
		</g>
	</g>
</g>
</svg>