<?xml version="1.0" encoding="utf-8"?>
<!-- Generator: Adobe Illustrator 26.5.0, SVG Export Plug-In . SVG Version: 6.00 Build 0)  -->
<svg version="1.1" id="Layer_1" xmlns="http://www.w3.org/2000/svg" xmlns:xlink="http://www.w3.org/1999/xlink" x="0px" y="0px"
	 viewBox="0 0 512 512" style="enable-background:new 0 0 512 512;" xml:space="preserve">
<style type="text/css">
	.st0{fill:#E535AB;}
</style>
<g id="XMLID_21_">
	<path id="XMLID_28_" fill="#e535ab" d="M460.58,321.62c-3.87-2.25-6.98-3.87-12.35-4.86V195.15c5.36-1,8.61-2.62,12.47-4.86
		c21.83-12.72,29.44-40.54,16.84-62.36c-12.72-21.83-40.41-29.31-62.24-16.71c-3.87,2.25-7.36,5.11-10.35,8.23L299.69,58.7
		c1.25-4.12,1.87-8.48,1.87-13.1c0-25.19-20.33-45.65-45.65-45.65s-45.65,20.33-45.65,45.65c0,4.49,0.62,8.86,1.87,12.97
		l-105.27,60.74c-2.99-3.12-6.36-5.86-10.35-8.11c-21.83-12.6-49.77-5.11-62.36,16.71s-4.74,49.77,17.09,62.36
		c3.87,2.25,7.11,3.87,12.47,4.86v121.61c-5.36,1-8.48,2.62-12.35,4.86c-21.83,12.72-29.44,40.54-16.84,62.36
		c12.6,21.83,40.29,29.31,62.24,16.71c3.87-2.25,7.23-4.99,10.23-7.98l105.14,60.74c-1.25,4.12-1.87,8.48-1.87,12.85
		c0,25.19,20.33,45.65,45.65,45.65c25.19,0,45.65-20.58,45.65-45.65c0-4.99-0.75-9.85-2.25-14.34l104.65-60.37
		c3.12,3.49,6.98,6.61,11.23,9.1c21.83,12.6,49.64,5.11,62.24-16.71C490.14,362.15,482.53,334.34,460.58,321.62z M86.9,317.38
		c-0.62-0.12-1.62-0.37-1.62-0.5V195.15c10.73-2.87,21.95-10.35,28.31-21.45s7.48-23.82,4.24-35.3l105.39-60.87
		c0.37,0.5,0.87,0.87,1.37,1.25L86.9,317.38z M289.83,435.62c-8.36-9.1-20.33-14.84-33.68-14.84c-12.97,0-24.57,5.36-32.8,13.97
		l-105.27-60.87c0.12-0.62,0.37-1.75,0.5-1.75h275.39c0.25,1.75,0.5,2,0.87,2.99L289.83,435.62z M398.59,338.46
		c-2.25,3.87-3.87,8.61-4.86,12.1H118.46c-1-3.62-2.62-8.23-4.86-12.1c-2.25-3.87-4.99-7.36-7.98-10.23l137.82-238.6
		c3.99,1.12,8.36,1.75,12.72,1.75c4.37,0,8.73-0.62,12.72-1.75l137.7,238.6C403.46,331.1,400.84,334.59,398.59,338.46z
		 M426.91,316.88c0,0.12-1,0.25-1.62,0.5L287.59,78.65c0.37-0.37,0.87-0.75,1.25-1.25l105.52,60.87c-3.24,11.47-2.25,24.2,4.24,35.3
		c6.36,11.23,17.71,18.58,28.31,21.45V316.88z"/>
</g>
</svg>
