<svg id="visual" viewBox="0 0 1000 1000" width="1000" height="1000" xmlns="http://www.w3.org/2000/svg" xmlns:xlink="http://www.w3.org/1999/xlink" version="1.1"><g stroke-width="2" stroke-linejoin="bevel"><path d="M534.5 501.5L541.5 534.5L596.4 507.5Z" fill="#ffffff" stroke="#e6e6e6"></path><path d="M600.5 560.5L616.4 537.4L596.4 507.5Z" fill="#ebebeb" stroke="#e6e6e6"></path><path d="M541.5 534.5L600.5 560.5L596.4 507.5Z" fill="#efefef" stroke="#e6e6e6"></path><path d="M520.5 624.3L537.5 612.4L541.5 534.5Z" fill="#efefef" stroke="#e6e6e6"></path><path d="M541.5 534.5L537.5 612.4L600.5 560.5Z" fill="#f7f7f7" stroke="#e6e6e6"></path><path d="M677.4 422.5L563.4 403.6L596.4 507.5Z" fill="#e0e0e0" stroke="#e6e6e6"></path><path d="M596.4 507.5L563.4 403.6L534.5 501.5Z" fill="#e3e3e3" stroke="#e6e6e6"></path><path d="M409.6 590.5L520.5 624.3L541.5 534.5Z" fill="#f3f3f3" stroke="#e6e6e6"></path><path d="M563.4 403.6L513.5 387.5L534.5 501.5Z" fill="#d8d8d8" stroke="#e6e6e6"></path><path d="M534.5 501.5L409.6 590.5L541.5 534.5Z" fill="#fbfbfb" stroke="#e6e6e6"></path><path d="M616.4 537.4L677.4 422.5L596.4 507.5Z" fill="#f7f7f7" stroke="#e6e6e6"></path><path d="M563.4 403.6L576.5 368.6L513.5 387.5Z" fill="#efefef" stroke="#e6e6e6"></path><path d="M616.4 357.7L576.5 368.6L563.4 403.6Z" fill="#ffffff" stroke="#e6e6e6"></path><path d="M498.5 322.7L486.5 372.6L513.5 387.5Z" fill="#d8d8d8" stroke="#e6e6e6"></path><path d="M513.5 387.5L408.6 414.5L534.5 501.5Z" fill="#e3e3e3" stroke="#e6e6e6"></path><path d="M537.5 612.4L661.4 643.3L600.5 560.5Z" fill="#e3e3e3" stroke="#e6e6e6"></path><path d="M600.5 560.5L694.3 613.5L616.4 537.4Z" fill="#ebebeb" stroke="#e6e6e6"></path><path d="M616.4 537.4L784.2 506.5L677.4 422.5Z" fill="#dcdcdc" stroke="#e6e6e6"></path><path d="M588.4 720.2L661.4 643.3L537.5 612.4Z" fill="#fbfbfb" stroke="#e6e6e6"></path><path d="M677.4 422.5L616.4 357.7L563.4 403.6Z" fill="#ffffff" stroke="#e6e6e6"></path><path d="M576.5 368.6L498.5 322.7L513.5 387.5Z" fill="#ebebeb" stroke="#e6e6e6"></path><path d="M661.4 643.3L694.3 613.5L600.5 560.5Z" fill="#ffffff" stroke="#e6e6e6"></path><path d="M677.4 422.5L634.3 353.6L616.4 357.7Z" fill="#ebebeb" stroke="#e6e6e6"></path><path d="M534.5 243.7L498.5 322.7L576.5 368.6Z" fill="#ebebeb" stroke="#e6e6e6"></path><path d="M373.6 562.4L409.6 590.5L534.5 501.5Z" fill="#dcdcdc" stroke="#e6e6e6"></path><path d="M409.5 616.3L517.5 682.4L520.5 624.3Z" fill="#fbfbfb" stroke="#e6e6e6"></path><path d="M520.5 624.3L517.5 682.4L537.5 612.4Z" fill="#d8d8d8" stroke="#e6e6e6"></path><path d="M661.4 643.3L681.3 645.4L694.3 613.5Z" fill="#e0e0e0" stroke="#e6e6e6"></path><path d="M660.3 698.2L681.3 645.4L661.4 643.3Z" fill="#e7e7e7" stroke="#e6e6e6"></path><path d="M486.5 372.6L408.6 414.5L513.5 387.5Z" fill="#efefef" stroke="#e6e6e6"></path><path d="M349.7 609.4L409.5 616.3L409.6 590.5Z" fill="#dcdcdc" stroke="#e6e6e6"></path><path d="M409.6 590.5L409.5 616.3L520.5 624.3Z" fill="#dcdcdc" stroke="#e6e6e6"></path><path d="M784.2 506.5L723.3 412.5L677.4 422.5Z" fill="#e0e0e0" stroke="#e6e6e6"></path><path d="M677.4 422.5L723.3 412.5L634.3 353.6Z" fill="#f3f3f3" stroke="#e6e6e6"></path><path d="M408.6 414.5L373.6 562.4L534.5 501.5Z" fill="#e7e7e7" stroke="#e6e6e6"></path><path d="M534.5 243.7L576.5 368.6L616.4 357.7Z" fill="#e3e3e3" stroke="#e6e6e6"></path><path d="M486.5 372.6L410.6 368.6L408.6 414.5Z" fill="#e3e3e3" stroke="#e6e6e6"></path><path d="M588.4 720.2L660.3 698.2L661.4 643.3Z" fill="#ffffff" stroke="#e6e6e6"></path><path d="M681.3 645.4L731.2 641.3L694.3 613.5Z" fill="#e7e7e7" stroke="#e6e6e6"></path><path d="M517.5 682.4L588.4 720.2L537.5 612.4Z" fill="#d8d8d8" stroke="#e6e6e6"></path><path d="M660.3 698.2L731.2 641.3L681.3 645.4Z" fill="#dcdcdc" stroke="#e6e6e6"></path><path d="M694.3 613.5L784.2 506.5L616.4 537.4Z" fill="#ebebeb" stroke="#e6e6e6"></path><path d="M498.5 322.7L410.6 368.6L486.5 372.6Z" fill="#f7f7f7" stroke="#e6e6e6"></path><path d="M408.6 414.5L357.7 420.6L373.6 562.4Z" fill="#e7e7e7" stroke="#e6e6e6"></path><path d="M731.2 641.3L784.2 506.5L694.3 613.5Z" fill="#e0e0e0" stroke="#e6e6e6"></path><path d="M588.4 720.2L603.5 729.2L660.3 698.2Z" fill="#efefef" stroke="#e6e6e6"></path><path d="M567.4 822.2L603.5 729.2L588.4 720.2Z" fill="#dcdcdc" stroke="#e6e6e6"></path><path d="M410.6 368.6L357.7 420.6L408.6 414.5Z" fill="#fbfbfb" stroke="#e6e6e6"></path><path d="M373.6 562.4L349.7 609.4L409.6 590.5Z" fill="#e0e0e0" stroke="#e6e6e6"></path><path d="M409.5 616.3L383.5 705.2L517.5 682.4Z" fill="#f7f7f7" stroke="#e6e6e6"></path><path d="M517.5 682.4L446.6 775.2L588.4 720.2Z" fill="#ffffff" stroke="#e6e6e6"></path><path d="M293.8 554.5L349.7 609.4L373.6 562.4Z" fill="#e7e7e7" stroke="#e6e6e6"></path><path d="M896.2 566.5L813.2 500.5L784.2 506.5Z" fill="#e3e3e3" stroke="#e6e6e6"></path><path d="M824.2 402.5L776.2 374.6L723.3 412.5Z" fill="#ebebeb" stroke="#e6e6e6"></path><path d="M824.2 402.5L723.3 412.5L784.2 506.5Z" fill="#d8d8d8" stroke="#e6e6e6"></path><path d="M723.3 412.5L776.2 374.6L634.3 353.6Z" fill="#e7e7e7" stroke="#e6e6e6"></path><path d="M466.5 246.8L417.5 289.8L498.5 322.7Z" fill="#ffffff" stroke="#e6e6e6"></path><path d="M357.7 420.6L308.7 479.5L373.6 562.4Z" fill="#ebebeb" stroke="#e6e6e6"></path><path d="M349.7 609.4L383.5 705.2L409.5 616.3Z" fill="#efefef" stroke="#e6e6e6"></path><path d="M534.5 243.7L616.4 357.7L613.4 211.8Z" fill="#ebebeb" stroke="#e6e6e6"></path><path d="M498.5 322.7L417.5 289.8L410.6 368.6Z" fill="#fbfbfb" stroke="#e6e6e6"></path><path d="M410.6 368.6L343.7 325.7L357.7 420.6Z" fill="#ebebeb" stroke="#e6e6e6"></path><path d="M224.8 410.6L289.7 492.5L308.7 479.5Z" fill="#e3e3e3" stroke="#e6e6e6"></path><path d="M693.2 774.2L697.3 747.3L603.5 729.2Z" fill="#d8d8d8" stroke="#e6e6e6"></path><path d="M603.5 729.2L697.3 747.3L660.3 698.2Z" fill="#fbfbfb" stroke="#e6e6e6"></path><path d="M660.3 698.2L697.3 747.3L731.2 641.3Z" fill="#e3e3e3" stroke="#e6e6e6"></path><path d="M899.2 584.4L896.2 566.5L895.1 615.5Z" fill="#e0e0e0" stroke="#e6e6e6"></path><path d="M613.4 211.8L616.4 357.7L634.3 353.6Z" fill="#ffffff" stroke="#e6e6e6"></path><path d="M308.7 479.5L293.8 554.5L373.6 562.4Z" fill="#efefef" stroke="#e6e6e6"></path><path d="M278.7 719.2L346.6 767.3L383.5 705.2Z" fill="#ffffff" stroke="#e6e6e6"></path><path d="M244.8 385.5L308.7 479.5L357.7 420.6Z" fill="#f3f3f3" stroke="#e6e6e6"></path><path d="M308.7 479.5L289.7 492.5L293.8 554.5Z" fill="#ebebeb" stroke="#e6e6e6"></path><path d="M813.2 500.5L824.2 402.5L784.2 506.5Z" fill="#ebebeb" stroke="#e6e6e6"></path><path d="M534.5 243.7L466.5 246.8L498.5 322.7Z" fill="#ebebeb" stroke="#e6e6e6"></path><path d="M383.5 705.2L446.6 775.2L517.5 682.4Z" fill="#ebebeb" stroke="#e6e6e6"></path><path d="M324.6 242.7L343.7 325.7L417.5 289.8Z" fill="#dcdcdc" stroke="#e6e6e6"></path><path d="M417.5 289.8L343.7 325.7L410.6 368.6Z" fill="#dcdcdc" stroke="#e6e6e6"></path><path d="M567.4 822.2L693.2 774.2L603.5 729.2Z" fill="#f7f7f7" stroke="#e6e6e6"></path><path d="M697.3 747.3L797.2 690.4L731.2 641.3Z" fill="#fbfbfb" stroke="#e6e6e6"></path><path d="M801.2 849.2L797.2 690.4L697.3 747.3Z" fill="#e7e7e7" stroke="#e6e6e6"></path><path d="M813.2 500.5L869.2 460.6L824.2 402.5Z" fill="#e7e7e7" stroke="#e6e6e6"></path><path d="M752.3 269.7L613.4 211.8L634.3 353.6Z" fill="#ffffff" stroke="#e6e6e6"></path><path d="M510.5 146.9L437.6 174.8L466.5 246.8Z" fill="#ebebeb" stroke="#e6e6e6"></path><path d="M752.3 269.7L634.3 353.6L776.2 374.6Z" fill="#e0e0e0" stroke="#e6e6e6"></path><path d="M829.2 318.7L752.3 269.7L776.2 374.6Z" fill="#efefef" stroke="#e6e6e6"></path><path d="M896.2 566.5L869.2 460.6L813.2 500.5Z" fill="#e7e7e7" stroke="#e6e6e6"></path><path d="M824.2 402.5L829.2 318.7L776.2 374.6Z" fill="#fbfbfb" stroke="#e6e6e6"></path><path d="M446.6 775.2L567.4 822.2L588.4 720.2Z" fill="#d8d8d8" stroke="#e6e6e6"></path><path d="M874.1 326.7L829.2 318.7L824.2 402.5Z" fill="#e3e3e3" stroke="#e6e6e6"></path><path d="M383.5 705.2L411.6 806.2L446.6 775.2Z" fill="#ebebeb" stroke="#e6e6e6"></path><path d="M460.6 876.1L523.5 887.2L567.4 822.2Z" fill="#ffffff" stroke="#e6e6e6"></path><path d="M346.6 767.3L411.6 806.2L383.5 705.2Z" fill="#ffffff" stroke="#e6e6e6"></path><path d="M819.2 257.8L740.3 227.8L752.3 269.7Z" fill="#e7e7e7" stroke="#e6e6e6"></path><path d="M752.3 269.7L740.3 227.8L613.4 211.8Z" fill="#e3e3e3" stroke="#e6e6e6"></path><path d="M278.7 719.2L383.5 705.2L349.7 609.4Z" fill="#e7e7e7" stroke="#e6e6e6"></path><path d="M896.2 566.5L784.2 506.5L895.1 615.5Z" fill="#e0e0e0" stroke="#e6e6e6"></path><path d="M895.1 615.5L784.2 506.5L731.2 641.3Z" fill="#d8d8d8" stroke="#e6e6e6"></path><path d="M644.3 57.9L569.4 169.8L613.4 211.8Z" fill="#fbfbfb" stroke="#e6e6e6"></path><path d="M613.4 211.8L569.4 169.8L534.5 243.7Z" fill="#f3f3f3" stroke="#e6e6e6"></path><path d="M324.6 242.7L247.8 360.7L343.7 325.7Z" fill="#e0e0e0" stroke="#e6e6e6"></path><path d="M247.8 360.7L244.8 385.5L357.7 420.6Z" fill="#f3f3f3" stroke="#e6e6e6"></path><path d="M289.7 492.5L193.8 491.5L293.8 554.5Z" fill="#f3f3f3" stroke="#e6e6e6"></path><path d="M265.7 717.3L278.7 719.2L258.8 714.2Z" fill="#d8d8d8" stroke="#e6e6e6"></path><path d="M247.8 360.7L357.7 420.6L343.7 325.7Z" fill="#e0e0e0" stroke="#e6e6e6"></path><path d="M797.2 690.4L895.1 615.5L731.2 641.3Z" fill="#d8d8d8" stroke="#e6e6e6"></path><path d="M867.2 692.3L895.1 615.5L797.2 690.4Z" fill="#efefef" stroke="#e6e6e6"></path><path d="M896.2 566.5L909.1 464.5L869.2 460.6Z" fill="#d8d8d8" stroke="#e6e6e6"></path><path d="M921.1 341.6L874.1 326.7L824.2 402.5Z" fill="#f3f3f3" stroke="#e6e6e6"></path><path d="M1000 525.5L909.1 464.5L896.2 566.5Z" fill="#e7e7e7" stroke="#e6e6e6"></path><path d="M735.2 130.8L721.3 198.8L827.2 156.8Z" fill="#ebebeb" stroke="#e6e6e6"></path><path d="M740.3 227.8L721.3 198.8L613.4 211.8Z" fill="#d8d8d8" stroke="#e6e6e6"></path><path d="M437.6 174.8L417.5 289.8L466.5 246.8Z" fill="#f3f3f3" stroke="#e6e6e6"></path><path d="M523.5 887.2L587.4 863.1L567.4 822.2Z" fill="#e7e7e7" stroke="#e6e6e6"></path><path d="M567.4 822.2L655.3 863.2L693.2 774.2Z" fill="#f7f7f7" stroke="#e6e6e6"></path><path d="M883.1 702.3L867.2 692.3L891.1 794.2Z" fill="#e7e7e7" stroke="#e6e6e6"></path><path d="M867.2 692.3L797.2 690.4L891.1 794.2Z" fill="#e0e0e0" stroke="#e6e6e6"></path><path d="M278.7 719.2L349.7 609.4L258.8 714.2Z" fill="#f7f7f7" stroke="#e6e6e6"></path><path d="M212.8 396.6L224.8 410.6L244.8 385.5Z" fill="#e3e3e3" stroke="#e6e6e6"></path><path d="M244.8 385.5L224.8 410.6L308.7 479.5Z" fill="#dcdcdc" stroke="#e6e6e6"></path><path d="M838.2 242.8L819.2 257.8L829.2 318.7Z" fill="#e3e3e3" stroke="#e6e6e6"></path><path d="M829.2 318.7L819.2 257.8L752.3 269.7Z" fill="#e0e0e0" stroke="#e6e6e6"></path><path d="M510.5 146.9L466.5 246.8L534.5 243.7Z" fill="#e7e7e7" stroke="#e6e6e6"></path><path d="M921.1 341.6L824.2 402.5L869.2 460.6Z" fill="#f7f7f7" stroke="#e6e6e6"></path><path d="M437.6 174.8L324.6 242.7L417.5 289.8Z" fill="#efefef" stroke="#e6e6e6"></path><path d="M587.4 863.1L655.3 863.2L567.4 822.2Z" fill="#ebebeb" stroke="#e6e6e6"></path><path d="M258.8 714.2L349.7 609.4L209.8 634.3Z" fill="#ebebeb" stroke="#e6e6e6"></path><path d="M263.7 904.1L304.8 895.2L346.6 767.3Z" fill="#d8d8d8" stroke="#e6e6e6"></path><path d="M867.2 692.3L901.1 656.4L895.1 615.5Z" fill="#ffffff" stroke="#e6e6e6"></path><path d="M1000 623.4L1000 525.5L899.2 584.4Z" fill="#efefef" stroke="#e6e6e6"></path><path d="M899.2 584.4L1000 525.5L896.2 566.5Z" fill="#ffffff" stroke="#e6e6e6"></path><path d="M209.8 634.3L349.7 609.4L293.8 554.5Z" fill="#fbfbfb" stroke="#e6e6e6"></path><path d="M383.7 866.2L411.6 806.2L346.6 767.3Z" fill="#e3e3e3" stroke="#e6e6e6"></path><path d="M483.5 132.8L510.5 146.9L556.5 0Z" fill="#efefef" stroke="#e6e6e6"></path><path d="M569.4 169.8L510.5 146.9L534.5 243.7Z" fill="#f7f7f7" stroke="#e6e6e6"></path><path d="M247.8 360.7L212.8 396.6L244.8 385.5Z" fill="#efefef" stroke="#e6e6e6"></path><path d="M224.8 410.6L193.8 491.5L289.7 492.5Z" fill="#e0e0e0" stroke="#e6e6e6"></path><path d="M152.9 337.7L212.8 396.6L247.8 360.7Z" fill="#dcdcdc" stroke="#e6e6e6"></path><path d="M801.2 849.2L697.3 747.3L693.2 774.2Z" fill="#d8d8d8" stroke="#e6e6e6"></path><path d="M867.2 692.3L883.1 702.3L901.1 656.4Z" fill="#d8d8d8" stroke="#e6e6e6"></path><path d="M212.8 396.6L193.8 491.5L224.8 410.6Z" fill="#f3f3f3" stroke="#e6e6e6"></path><path d="M193.8 491.5L209.8 634.3L293.8 554.5Z" fill="#d8d8d8" stroke="#e6e6e6"></path><path d="M460.6 876.1L567.4 822.2L446.6 775.2Z" fill="#f7f7f7" stroke="#e6e6e6"></path><path d="M587.4 863.1L598.5 904.1L655.3 863.2Z" fill="#f3f3f3" stroke="#e6e6e6"></path><path d="M460.6 876.1L446.6 775.2L411.6 806.2Z" fill="#e0e0e0" stroke="#e6e6e6"></path><path d="M460.6 876.1L411.6 806.2L410.5 860.2Z" fill="#e3e3e3" stroke="#e6e6e6"></path><path d="M410.5 860.2L411.6 806.2L383.7 866.2Z" fill="#efefef" stroke="#e6e6e6"></path><path d="M383.7 866.2L346.6 767.3L304.8 895.2Z" fill="#f3f3f3" stroke="#e6e6e6"></path><path d="M874.1 326.7L838.2 242.8L829.2 318.7Z" fill="#e7e7e7" stroke="#e6e6e6"></path><path d="M819.2 257.8L838.2 242.8L740.3 227.8Z" fill="#dcdcdc" stroke="#e6e6e6"></path><path d="M510.5 146.9L483.5 132.8L437.6 174.8Z" fill="#dcdcdc" stroke="#e6e6e6"></path><path d="M437.6 174.8L313.6 163.8L324.6 242.7Z" fill="#d8d8d8" stroke="#e6e6e6"></path><path d="M609.5 50.9L510.5 146.9L569.4 169.8Z" fill="#dcdcdc" stroke="#e6e6e6"></path><path d="M193.8 491.5L193.8 641.4L209.8 634.3Z" fill="#efefef" stroke="#e6e6e6"></path><path d="M209.8 634.3L175.8 666.4L258.8 714.2Z" fill="#e0e0e0" stroke="#e6e6e6"></path><path d="M533.5 1000L598.5 904.1L523.5 887.2Z" fill="#e7e7e7" stroke="#e6e6e6"></path><path d="M523.5 887.2L598.5 904.1L587.4 863.1Z" fill="#e0e0e0" stroke="#e6e6e6"></path><path d="M655.3 863.2L801.2 849.2L693.2 774.2Z" fill="#e3e3e3" stroke="#e6e6e6"></path><path d="M909.1 464.5L921.1 341.6L869.2 460.6Z" fill="#efefef" stroke="#e6e6e6"></path><path d="M874.1 326.7L918.2 274.7L838.2 242.8Z" fill="#dcdcdc" stroke="#e6e6e6"></path><path d="M1000 432.6L921.1 341.6L909.1 464.5Z" fill="#e3e3e3" stroke="#e6e6e6"></path><path d="M410.5 860.2L433.5 921.1L460.6 876.1Z" fill="#dcdcdc" stroke="#e6e6e6"></path><path d="M460.6 876.1L433.5 921.1L523.5 887.2Z" fill="#e0e0e0" stroke="#e6e6e6"></path><path d="M346.6 767.3L278.7 719.2L263.7 904.1Z" fill="#ffffff" stroke="#e6e6e6"></path><path d="M278.7 719.2L265.7 717.3L263.7 904.1Z" fill="#ebebeb" stroke="#e6e6e6"></path><path d="M737.2 938.1L801.2 849.2L655.3 863.2Z" fill="#e3e3e3" stroke="#e6e6e6"></path><path d="M827.2 156.8L721.3 198.8L740.3 227.8Z" fill="#ebebeb" stroke="#e6e6e6"></path><path d="M721.3 198.8L735.2 130.8L613.4 211.8Z" fill="#e0e0e0" stroke="#e6e6e6"></path><path d="M139.8 677.3L175.8 666.4L193.8 641.4Z" fill="#dcdcdc" stroke="#e6e6e6"></path><path d="M193.8 641.4L175.8 666.4L209.8 634.3Z" fill="#e0e0e0" stroke="#e6e6e6"></path><path d="M1000 647.3L1000 623.4L901.1 656.4Z" fill="#ebebeb" stroke="#e6e6e6"></path><path d="M801.2 849.2L840.2 827.2L797.2 690.4Z" fill="#e0e0e0" stroke="#e6e6e6"></path><path d="M921.1 341.6L918.2 274.7L874.1 326.7Z" fill="#f7f7f7" stroke="#e6e6e6"></path><path d="M838.2 242.8L827.2 156.8L740.3 227.8Z" fill="#efefef" stroke="#e6e6e6"></path><path d="M304.8 895.2L433.5 921.1L383.7 866.2Z" fill="#f7f7f7" stroke="#e6e6e6"></path><path d="M383.7 866.2L433.5 921.1L410.5 860.2Z" fill="#ebebeb" stroke="#e6e6e6"></path><path d="M387.5 116.8L313.6 163.8L437.6 174.8Z" fill="#fbfbfb" stroke="#e6e6e6"></path><path d="M324.6 242.7L260.7 187.8L247.8 360.7Z" fill="#fbfbfb" stroke="#e6e6e6"></path><path d="M840.2 827.2L891.1 794.2L797.2 690.4Z" fill="#dcdcdc" stroke="#e6e6e6"></path><path d="M425.6 0L387.5 116.8L483.5 132.8Z" fill="#ffffff" stroke="#e6e6e6"></path><path d="M483.5 132.8L387.5 116.8L437.6 174.8Z" fill="#e0e0e0" stroke="#e6e6e6"></path><path d="M801.2 849.2L839.2 848.2L840.2 827.2Z" fill="#dcdcdc" stroke="#e6e6e6"></path><path d="M840.2 827.2L919.1 816.2L891.1 794.2Z" fill="#efefef" stroke="#e6e6e6"></path><path d="M877.2 962.1L839.2 848.2L801.2 849.2Z" fill="#ebebeb" stroke="#e6e6e6"></path><path d="M1000 623.4L895.1 615.5L901.1 656.4Z" fill="#dcdcdc" stroke="#e6e6e6"></path><path d="M1000 623.4L899.2 584.4L895.1 615.5Z" fill="#efefef" stroke="#e6e6e6"></path><path d="M921.1 341.6L985.1 300.8L918.2 274.7Z" fill="#efefef" stroke="#e6e6e6"></path><path d="M1000 525.5L1000 460.5L909.1 464.5Z" fill="#efefef" stroke="#e6e6e6"></path><path d="M868.1 188.8L827.2 156.8L838.2 242.8Z" fill="#e7e7e7" stroke="#e6e6e6"></path><path d="M1000 460.5L1000 432.6L909.1 464.5Z" fill="#dcdcdc" stroke="#e6e6e6"></path><path d="M918.2 274.7L868.1 188.8L838.2 242.8Z" fill="#e3e3e3" stroke="#e6e6e6"></path><path d="M287.7 137.8L261.8 186.8L313.6 163.8Z" fill="#d8d8d8" stroke="#e6e6e6"></path><path d="M313.6 163.8L261.8 186.8L324.6 242.7Z" fill="#ebebeb" stroke="#e6e6e6"></path><path d="M261.8 186.8L260.7 187.8L324.6 242.7Z" fill="#e0e0e0" stroke="#e6e6e6"></path><path d="M149.8 314.7L152.9 337.7L247.8 360.7Z" fill="#ffffff" stroke="#e6e6e6"></path><path d="M83.9 484.5L102.8 516.5L193.8 491.5Z" fill="#ebebeb" stroke="#e6e6e6"></path><path d="M82.9 636.4L139.8 677.3L193.8 641.4Z" fill="#efefef" stroke="#e6e6e6"></path><path d="M1000 647.3L901.1 656.4L883.1 702.3Z" fill="#e3e3e3" stroke="#e6e6e6"></path><path d="M102.8 516.5L193.8 641.4L193.8 491.5Z" fill="#f3f3f3" stroke="#e6e6e6"></path><path d="M175.8 666.4L170.8 771.2L258.8 714.2Z" fill="#fbfbfb" stroke="#e6e6e6"></path><path d="M1000 790.2L1000 647.3L883.1 702.3Z" fill="#e7e7e7" stroke="#e6e6e6"></path><path d="M688.4 1000L655.3 863.2L598.5 904.1Z" fill="#e0e0e0" stroke="#e6e6e6"></path><path d="M688.4 1000L737.2 938.1L655.3 863.2Z" fill="#ebebeb" stroke="#e6e6e6"></path><path d="M260.7 187.8L149.8 314.7L247.8 360.7Z" fill="#ebebeb" stroke="#e6e6e6"></path><path d="M96.9 414.5L193.8 491.5L212.8 396.6Z" fill="#efefef" stroke="#e6e6e6"></path><path d="M762.2 52.9L644.3 57.9L735.2 130.8Z" fill="#fbfbfb" stroke="#e6e6e6"></path><path d="M735.2 130.8L644.3 57.9L613.4 211.8Z" fill="#fbfbfb" stroke="#e6e6e6"></path><path d="M96.9 414.5L212.8 396.6L94.9 396.6Z" fill="#f3f3f3" stroke="#e6e6e6"></path><path d="M170.8 771.2L265.7 717.3L258.8 714.2Z" fill="#efefef" stroke="#e6e6e6"></path><path d="M644.3 57.9L609.5 50.9L569.4 169.8Z" fill="#e7e7e7" stroke="#e6e6e6"></path><path d="M327.6 85.9L313.6 163.8L387.5 116.8Z" fill="#efefef" stroke="#e6e6e6"></path><path d="M327.6 85.9L287.7 137.8L313.6 163.8Z" fill="#e7e7e7" stroke="#e6e6e6"></path><path d="M261.8 186.8L248.7 153.9L260.7 187.8Z" fill="#e0e0e0" stroke="#e6e6e6"></path><path d="M260.7 187.8L151.9 192.8L149.8 314.7Z" fill="#efefef" stroke="#e6e6e6"></path><path d="M839.2 848.2L919.1 816.2L840.2 827.2Z" fill="#f7f7f7" stroke="#e6e6e6"></path><path d="M891.1 794.2L1000 790.2L883.1 702.3Z" fill="#e7e7e7" stroke="#e6e6e6"></path><path d="M1000 821.2L919.1 816.2L931.1 972.1Z" fill="#efefef" stroke="#e6e6e6"></path><path d="M737.3 1000L750.3 941.1L737.2 938.1Z" fill="#e0e0e0" stroke="#e6e6e6"></path><path d="M737.2 938.1L750.3 941.1L801.2 849.2Z" fill="#fbfbfb" stroke="#e6e6e6"></path><path d="M1000 316.7L985.1 300.8L921.1 341.6Z" fill="#d8d8d8" stroke="#e6e6e6"></path><path d="M918.2 274.7L1000 229.8L868.1 188.8Z" fill="#f3f3f3" stroke="#e6e6e6"></path><path d="M139.8 677.3L170.8 771.2L175.8 666.4Z" fill="#e3e3e3" stroke="#e6e6e6"></path><path d="M1000 432.6L1000 316.7L921.1 341.6Z" fill="#d8d8d8" stroke="#e6e6e6"></path><path d="M287.7 137.8L248.7 153.9L261.8 186.8Z" fill="#efefef" stroke="#e6e6e6"></path><path d="M94.9 396.6L212.8 396.6L152.9 337.7Z" fill="#ebebeb" stroke="#e6e6e6"></path><path d="M96.9 414.5L83.9 484.5L193.8 491.5Z" fill="#e7e7e7" stroke="#e6e6e6"></path><path d="M82.9 636.4L103.9 698.3L139.8 677.3Z" fill="#fbfbfb" stroke="#e6e6e6"></path><path d="M149.8 314.7L94.9 396.6L152.9 337.7Z" fill="#f7f7f7" stroke="#e6e6e6"></path><path d="M0 503.5L0 509.5L83.9 484.5Z" fill="#ebebeb" stroke="#e6e6e6"></path><path d="M0 277.7L94.9 396.6L149.8 314.7Z" fill="#ffffff" stroke="#e6e6e6"></path><path d="M388.5 0L327.6 85.9L387.5 116.8Z" fill="#f7f7f7" stroke="#e6e6e6"></path><path d="M205.8 73.9L162.8 130.8L248.7 153.9Z" fill="#d8d8d8" stroke="#e6e6e6"></path><path d="M439.6 1000L533.5 1000L433.5 921.1Z" fill="#d8d8d8" stroke="#e6e6e6"></path><path d="M433.5 921.1L533.5 1000L523.5 887.2Z" fill="#fbfbfb" stroke="#e6e6e6"></path><path d="M533.5 1000L601.5 1000L598.5 904.1Z" fill="#ffffff" stroke="#e6e6e6"></path><path d="M170.8 771.2L263.7 904.1L265.7 717.3Z" fill="#f3f3f3" stroke="#e6e6e6"></path><path d="M303.8 1000L439.6 1000L433.5 921.1Z" fill="#e7e7e7" stroke="#e6e6e6"></path><path d="M139.8 677.3L103.9 698.3L170.8 771.2Z" fill="#e7e7e7" stroke="#e6e6e6"></path><path d="M170.8 771.2L140.8 851.2L263.7 904.1Z" fill="#f3f3f3" stroke="#e6e6e6"></path><path d="M82.9 636.4L193.8 641.4L102.8 516.5Z" fill="#dcdcdc" stroke="#e6e6e6"></path><path d="M0 618.3L82.9 636.4L102.8 516.5Z" fill="#ebebeb" stroke="#e6e6e6"></path><path d="M650.4 0L587.4 13.9L609.5 50.9Z" fill="#e7e7e7" stroke="#e6e6e6"></path><path d="M609.5 50.9L556.5 0L510.5 146.9Z" fill="#e7e7e7" stroke="#e6e6e6"></path><path d="M650.4 0L609.5 50.9L644.3 57.9Z" fill="#ffffff" stroke="#e6e6e6"></path><path d="M769.3 0L762.2 52.9L902.2 0Z" fill="#e0e0e0" stroke="#e6e6e6"></path><path d="M827.2 156.8L762.2 52.9L735.2 130.8Z" fill="#e7e7e7" stroke="#e6e6e6"></path><path d="M938.1 55.9L827.2 156.8L868.1 188.8Z" fill="#e0e0e0" stroke="#e6e6e6"></path><path d="M1000 229.8L918.2 274.7L985.1 300.8Z" fill="#f7f7f7" stroke="#e6e6e6"></path><path d="M601.5 1000L688.4 1000L598.5 904.1Z" fill="#d8d8d8" stroke="#e6e6e6"></path><path d="M1000 821.2L1000 790.2L919.1 816.2Z" fill="#d8d8d8" stroke="#e6e6e6"></path><path d="M303.8 1000L433.5 921.1L304.8 895.2Z" fill="#ffffff" stroke="#e6e6e6"></path><path d="M650.4 0L556.5 0L587.4 13.9Z" fill="#e7e7e7" stroke="#e6e6e6"></path><path d="M587.4 13.9L556.5 0L609.5 50.9Z" fill="#f7f7f7" stroke="#e6e6e6"></path><path d="M877.2 962.1L801.2 849.2L750.3 941.1Z" fill="#e0e0e0" stroke="#e6e6e6"></path><path d="M919.1 816.2L1000 790.2L891.1 794.2Z" fill="#e0e0e0" stroke="#e6e6e6"></path><path d="M688.4 1000L737.3 1000L737.2 938.1Z" fill="#e0e0e0" stroke="#e6e6e6"></path><path d="M1000 316.7L1000 229.8L985.1 300.8Z" fill="#e3e3e3" stroke="#e6e6e6"></path><path d="M736.2 0L650.4 0L644.3 57.9Z" fill="#dcdcdc" stroke="#e6e6e6"></path><path d="M143.9 165.8L151.9 192.8L162.8 130.8Z" fill="#f7f7f7" stroke="#e6e6e6"></path><path d="M248.7 153.9L151.9 192.8L260.7 187.8Z" fill="#efefef" stroke="#e6e6e6"></path><path d="M556.5 0L425.6 0L483.5 132.8Z" fill="#f3f3f3" stroke="#e6e6e6"></path><path d="M162.8 130.8L151.9 192.8L248.7 153.9Z" fill="#e3e3e3" stroke="#e6e6e6"></path><path d="M877.2 962.1L919.1 816.2L839.2 848.2Z" fill="#ebebeb" stroke="#e6e6e6"></path><path d="M103.8 180.8L115.8 214.8L151.9 192.8Z" fill="#ebebeb" stroke="#e6e6e6"></path><path d="M151.9 192.8L115.8 214.8L149.8 314.7Z" fill="#f7f7f7" stroke="#e6e6e6"></path><path d="M0 503.5L83.9 484.5L0 450.6Z" fill="#e7e7e7" stroke="#e6e6e6"></path><path d="M769.3 0L736.2 0L762.2 52.9Z" fill="#f7f7f7" stroke="#e6e6e6"></path><path d="M762.2 52.9L736.2 0L644.3 57.9Z" fill="#efefef" stroke="#e6e6e6"></path><path d="M425.6 0L388.5 0L387.5 116.8Z" fill="#efefef" stroke="#e6e6e6"></path><path d="M33.9 787.2L140.8 851.2L170.8 771.2Z" fill="#f7f7f7" stroke="#e6e6e6"></path><path d="M301.7 1000L303.8 1000L304.8 895.2Z" fill="#d8d8d8" stroke="#e6e6e6"></path><path d="M33.9 787.2L170.8 771.2L103.9 698.3Z" fill="#fbfbfb" stroke="#e6e6e6"></path><path d="M737.3 1000L806.2 1000L750.3 941.1Z" fill="#ffffff" stroke="#e6e6e6"></path><path d="M248.7 153.9L287.7 137.8L205.8 73.9Z" fill="#e3e3e3" stroke="#e6e6e6"></path><path d="M1000 229.8L1000 183.8L868.1 188.8Z" fill="#fbfbfb" stroke="#e6e6e6"></path><path d="M806.2 1000L877.2 962.1L750.3 941.1Z" fill="#efefef" stroke="#e6e6e6"></path><path d="M908.2 5.9L762.2 52.9L827.2 156.8Z" fill="#f3f3f3" stroke="#e6e6e6"></path><path d="M301.7 1000L304.8 895.2L263.7 904.1Z" fill="#dcdcdc" stroke="#e6e6e6"></path><path d="M228.8 1000L301.7 1000L263.7 904.1Z" fill="#ffffff" stroke="#e6e6e6"></path><path d="M205.8 73.9L287.7 137.8L225.8 50.9Z" fill="#f3f3f3" stroke="#e6e6e6"></path><path d="M143.9 165.8L103.8 180.8L151.9 192.8Z" fill="#e0e0e0" stroke="#e6e6e6"></path><path d="M806.2 1000L839.2 1000L877.2 962.1Z" fill="#f3f3f3" stroke="#e6e6e6"></path><path d="M83.9 484.5L96.9 414.5L0 450.6Z" fill="#e0e0e0" stroke="#e6e6e6"></path><path d="M83.9 484.5L0 509.5L102.8 516.5Z" fill="#d8d8d8" stroke="#e6e6e6"></path><path d="M82.9 636.4L0 712.2L103.9 698.3Z" fill="#e7e7e7" stroke="#e6e6e6"></path><path d="M0 450.6L96.9 414.5L94.9 396.6Z" fill="#f3f3f3" stroke="#e6e6e6"></path><path d="M225.8 50.9L287.7 137.8L327.6 85.9Z" fill="#ebebeb" stroke="#e6e6e6"></path><path d="M41.9 112.9L103.8 180.8L162.8 130.8Z" fill="#ebebeb" stroke="#e6e6e6"></path><path d="M162.8 130.8L103.8 180.8L143.9 165.8Z" fill="#fbfbfb" stroke="#e6e6e6"></path><path d="M0 277.7L0 450.6L94.9 396.6Z" fill="#dcdcdc" stroke="#e6e6e6"></path><path d="M0 277.7L149.8 314.7L115.8 214.8Z" fill="#ffffff" stroke="#e6e6e6"></path><path d="M259.8 0L225.8 50.9L327.6 85.9Z" fill="#efefef" stroke="#e6e6e6"></path><path d="M205.8 73.9L155.8 0L162.8 130.8Z" fill="#ffffff" stroke="#e6e6e6"></path><path d="M0 509.5L0 618.3L102.8 516.5Z" fill="#e7e7e7" stroke="#e6e6e6"></path><path d="M0 618.3L0 643.4L82.9 636.4Z" fill="#f7f7f7" stroke="#e6e6e6"></path><path d="M877.2 962.1L931.1 972.1L919.1 816.2Z" fill="#ffffff" stroke="#e6e6e6"></path><path d="M899.1 1000L931.1 972.1L877.2 962.1Z" fill="#ffffff" stroke="#e6e6e6"></path><path d="M156.8 967.1L184.8 963.1L140.8 851.2Z" fill="#ebebeb" stroke="#e6e6e6"></path><path d="M140.8 851.2L184.8 963.1L263.7 904.1Z" fill="#e7e7e7" stroke="#e6e6e6"></path><path d="M1000 183.8L938.1 55.9L868.1 188.8Z" fill="#e3e3e3" stroke="#e6e6e6"></path><path d="M839.2 1000L899.1 1000L877.2 962.1Z" fill="#e7e7e7" stroke="#e6e6e6"></path><path d="M184.8 963.1L228.8 1000L263.7 904.1Z" fill="#f7f7f7" stroke="#e6e6e6"></path><path d="M388.5 0L259.8 0L327.6 85.9Z" fill="#e7e7e7" stroke="#e6e6e6"></path><path d="M225.8 50.9L155.8 0L205.8 73.9Z" fill="#e3e3e3" stroke="#e6e6e6"></path><path d="M0 712.2L33.9 787.2L103.9 698.3Z" fill="#d8d8d8" stroke="#e6e6e6"></path><path d="M0 643.4L0 712.2L82.9 636.4Z" fill="#efefef" stroke="#e6e6e6"></path><path d="M33.9 787.2L79.9 870.2L140.8 851.2Z" fill="#d8d8d8" stroke="#e6e6e6"></path><path d="M1000 183.8L1000 87.9L938.1 55.9Z" fill="#f3f3f3" stroke="#e6e6e6"></path><path d="M259.8 0L233.7 0L225.8 50.9Z" fill="#e7e7e7" stroke="#e6e6e6"></path><path d="M79.9 870.2L156.8 967.1L140.8 851.2Z" fill="#e3e3e3" stroke="#e6e6e6"></path><path d="M184.8 963.1L156.8 967.1L228.8 1000Z" fill="#e7e7e7" stroke="#e6e6e6"></path><path d="M0 229.8L115.8 214.8L103.8 180.8Z" fill="#efefef" stroke="#e6e6e6"></path><path d="M0 229.8L0 277.7L115.8 214.8Z" fill="#dcdcdc" stroke="#e6e6e6"></path><path d="M938.1 55.9L908.2 5.9L827.2 156.8Z" fill="#e3e3e3" stroke="#e6e6e6"></path><path d="M978.1 0L908.2 5.9L938.1 55.9Z" fill="#e3e3e3" stroke="#e6e6e6"></path><path d="M978.1 0L902.2 0L908.2 5.9Z" fill="#ebebeb" stroke="#e6e6e6"></path><path d="M908.2 5.9L902.2 0L762.2 52.9Z" fill="#ffffff" stroke="#e6e6e6"></path><path d="M0 166.8L0 229.8L103.8 180.8Z" fill="#efefef" stroke="#e6e6e6"></path><path d="M1000 1000L1000 997.1L931.1 972.1Z" fill="#dcdcdc" stroke="#e6e6e6"></path><path d="M931.1 972.1L1000 997.1L1000 821.2Z" fill="#e7e7e7" stroke="#e6e6e6"></path><path d="M899.1 1000L1000 1000L931.1 972.1Z" fill="#e0e0e0" stroke="#e6e6e6"></path><path d="M233.7 0L155.8 0L225.8 50.9Z" fill="#e0e0e0" stroke="#e6e6e6"></path><path d="M155.8 0L41.9 112.9L162.8 130.8Z" fill="#fbfbfb" stroke="#e6e6e6"></path><path d="M1000 87.9L978.1 0L938.1 55.9Z" fill="#efefef" stroke="#e6e6e6"></path><path d="M41.9 112.9L0 166.8L103.8 180.8Z" fill="#e0e0e0" stroke="#e6e6e6"></path><path d="M1000 87.9L1000 0L978.1 0Z" fill="#e3e3e3" stroke="#e6e6e6"></path><path d="M33.9 787.2L0 893.2L79.9 870.2Z" fill="#efefef" stroke="#e6e6e6"></path><path d="M79.9 870.2L80.9 994.1L156.8 967.1Z" fill="#f7f7f7" stroke="#e6e6e6"></path><path d="M0 712.2L0 893.2L33.9 787.2Z" fill="#d8d8d8" stroke="#e6e6e6"></path><path d="M0 902.1L80.9 994.1L79.9 870.2Z" fill="#e7e7e7" stroke="#e6e6e6"></path><path d="M156.8 967.1L78.9 1000L228.8 1000Z" fill="#efefef" stroke="#e6e6e6"></path><path d="M0 893.2L0 902.1L79.9 870.2Z" fill="#dcdcdc" stroke="#e6e6e6"></path><path d="M0 1000L78.9 1000L80.9 994.1Z" fill="#fbfbfb" stroke="#e6e6e6"></path><path d="M80.9 994.1L78.9 1000L156.8 967.1Z" fill="#f7f7f7" stroke="#e6e6e6"></path><path d="M155.8 0L46.9 0L41.9 112.9Z" fill="#e7e7e7" stroke="#e6e6e6"></path><path d="M41.9 112.9L0 16.9L0 166.8Z" fill="#d8d8d8" stroke="#e6e6e6"></path><path d="M0 902.1L0 1000L80.9 994.1Z" fill="#f7f7f7" stroke="#e6e6e6"></path><path d="M46.9 0L0 16.9L41.9 112.9Z" fill="#ebebeb" stroke="#e6e6e6"></path><path d="M46.9 0L0 0L0 16.9Z" fill="#d8d8d8" stroke="#e6e6e6"></path></g></svg>