<svg id="visual" viewBox="0 0 1000 1000" width="1000" height="1000"
    xmlns="http://www.w3.org/2000/svg" xmlns:xlink="http://www.w3.org/1999/xlink" version="1.1">
    <g stroke-width="4" stroke-linejoin="bevel">
        <path d="M498.5 488.5L514.5 484.5L493.5 444.5Z" fill="#1d2636" stroke="#000011"></path>
        <path d="M514.5 484.5L583.5 411.6L493.5 444.5Z" fill="#13141a" stroke="#000011"></path>
        <path d="M468.5 306.7L429.5 398.6L493.5 444.5Z" fill="#0d0d11" stroke="#000011"></path>
        <path d="M493.5 444.5L411.6 517.5L498.5 488.5Z" fill="#09090b" stroke="#000011"></path>
        <path d="M429.5 398.6L411.6 517.5L493.5 444.5Z" fill="#1d2636" stroke="#000011"></path>
        <path d="M498.5 488.5L594.5 578.4L514.5 484.5Z" fill="#1e293b" stroke="#000011"></path>
        <path d="M468.5 306.7L387.5 390.5L429.5 398.6Z" fill="#1e293b" stroke="#000011"></path>
        <path d="M429.5 398.6L387.5 390.5L411.6 517.5Z" fill="#1c2331" stroke="#000011"></path>
        <path d="M594.5 578.4L645.4 461.5L514.5 484.5Z" fill="#09090b" stroke="#000011"></path>
        <path d="M514.5 484.5L645.4 461.5L583.5 411.6Z" fill="#1c2331" stroke="#000011"></path>
        <path d="M411.6 517.5L428.5 591.4L498.5 488.5Z" fill="#09090b" stroke="#000011"></path>
        <path d="M428.5 591.4L594.5 578.4L498.5 488.5Z" fill="#15171f" stroke="#000011"></path>
        <path d="M645.4 461.5L623.4 379.6L583.5 411.6Z" fill="#1c2331" stroke="#000011"></path>
        <path d="M583.5 411.6L468.5 306.7L493.5 444.5Z" fill="#1c2331" stroke="#000011"></path>
        <path d="M521.5 282.7L468.5 306.7L583.5 411.6Z" fill="#111116" stroke="#000011"></path>
        <path d="M411.6 517.5L405.6 602.5L428.5 591.4Z" fill="#1d2636" stroke="#000011"></path>
        <path d="M479.5 717.3L625.4 618.4L594.5 578.4Z" fill="#15171f" stroke="#000011"></path>
        <path d="M390.6 609.4L405.6 602.5L411.6 517.5Z" fill="#191d28" stroke="#000011"></path>
        <path d="M246.7 556.5L390.6 609.4L411.6 517.5Z" fill="#1c2331" stroke="#000011"></path>
        <path d="M479.5 717.3L594.5 578.4L428.5 591.4Z" fill="#191d28" stroke="#000011"></path>
        <path d="M594.5 578.4L675.3 526.5L645.4 461.5Z" fill="#1e293b" stroke="#000011"></path>
        <path d="M645.4 461.5L702.3 399.5L623.4 379.6Z" fill="#1d2636" stroke="#000011"></path>
        <path d="M623.4 379.6L521.5 282.7L583.5 411.6Z" fill="#13141a" stroke="#000011"></path>
        <path d="M625.4 618.4L656.4 580.5L594.5 578.4Z" fill="#1d2636" stroke="#000011"></path>
        <path d="M594.5 578.4L656.4 580.5L675.3 526.5Z" fill="#111116" stroke="#000011"></path>
        <path d="M479.5 717.3L428.5 591.4L405.6 602.5Z" fill="#1a202c" stroke="#000011"></path>
        <path d="M675.3 526.5L702.3 399.5L645.4 461.5Z" fill="#191d28" stroke="#000011"></path>
        <path d="M623.4 379.6L604.4 246.8L521.5 282.7Z" fill="#13141a" stroke="#000011"></path>
        <path d="M302.6 246.7L303.6 367.6L387.5 390.5Z" fill="#1a202c" stroke="#000011"></path>
        <path d="M387.5 390.5L240.7 450.5L411.6 517.5Z" fill="#1a202c" stroke="#000011"></path>
        <path d="M428.5 246.8L387.5 390.5L468.5 306.7Z" fill="#15171f" stroke="#000011"></path>
        <path d="M521.5 282.7L428.5 246.8L468.5 306.7Z" fill="#13141a" stroke="#000011"></path>
        <path d="M713.3 308.6L604.4 246.8L623.4 379.6Z" fill="#1e293b" stroke="#000011"></path>
        <path d="M521.5 282.7L546.5 153.8L428.5 246.8Z" fill="#15171f" stroke="#000011"></path>
        <path d="M390.6 609.4L479.5 717.3L405.6 602.5Z" fill="#191d28" stroke="#000011"></path>
        <path d="M632.4 157.9L590.4 223.7L604.4 246.8Z" fill="#1a202c" stroke="#000011"></path>
        <path d="M604.4 246.8L590.4 223.7L521.5 282.7Z" fill="#1d2636" stroke="#000011"></path>
        <path d="M267.7 331.6L248.8 401.6L303.6 367.6Z" fill="#171a23" stroke="#000011"></path>
        <path d="M303.6 367.6L240.7 450.5L387.5 390.5Z" fill="#111116" stroke="#000011"></path>
        <path d="M248.8 401.6L240.7 450.5L303.6 367.6Z" fill="#15171f" stroke="#000011"></path>
        <path d="M417.6 777.3L448.5 765.2L479.5 717.3Z" fill="#09090b" stroke="#000011"></path>
        <path d="M248.8 401.6L245.8 406.5L240.7 450.5Z" fill="#1c2331" stroke="#000011"></path>
        <path d="M702.3 399.5L713.3 308.6L623.4 379.6Z" fill="#111116" stroke="#000011"></path>
        <path d="M302.6 246.7L267.7 331.6L303.6 367.6Z" fill="#1c2331" stroke="#000011"></path>
        <path d="M248.8 401.6L170.8 262.7L245.8 406.5Z" fill="#13141a" stroke="#000011"></path>
        <path d="M240.7 450.5L246.7 556.5L411.6 517.5Z" fill="#1a202c" stroke="#000011"></path>
        <path d="M448.5 765.2L530.5 754.3L479.5 717.3Z" fill="#13141a" stroke="#000011"></path>
        <path d="M479.5 717.3L530.5 754.3L625.4 618.4Z" fill="#13141a" stroke="#000011"></path>
        <path d="M776.3 576.4L675.3 526.5L656.4 580.5Z" fill="#13141a" stroke="#000011"></path>
        <path d="M776.3 576.4L792.2 491.5L675.3 526.5Z" fill="#1a202c" stroke="#000011"></path>
        <path d="M675.3 526.5L792.2 491.5L702.3 399.5Z" fill="#15171f" stroke="#000011"></path>
        <path d="M702.3 399.5L768.2 317.6L713.3 308.6Z" fill="#0d0d11" stroke="#000011"></path>
        <path d="M776.3 576.4L656.4 580.5L764.2 683.3Z" fill="#191d28" stroke="#000011"></path>
        <path d="M175.8 594.4L241.8 603.5L246.7 556.5Z" fill="#111116" stroke="#000011"></path>
        <path d="M246.7 556.5L241.8 603.5L390.6 609.4Z" fill="#191d28" stroke="#000011"></path>
        <path d="M428.5 246.8L302.6 246.7L387.5 390.5Z" fill="#1c2331" stroke="#000011"></path>
        <path d="M289.7 183.8L302.6 246.7L428.5 246.8Z" fill="#191d28" stroke="#000011"></path>
        <path d="M764.2 683.3L656.4 580.5L625.4 618.4Z" fill="#0d0d11" stroke="#000011"></path>
        <path d="M417.6 777.3L479.5 717.3L390.6 609.4Z" fill="#191d28" stroke="#000011"></path>
        <path d="M792.2 491.5L768.2 317.6L702.3 399.5Z" fill="#1a202c" stroke="#000011"></path>
        <path d="M756.3 209.8L632.4 157.9L604.4 246.8Z" fill="#13141a" stroke="#000011"></path>
        <path d="M241.8 603.5L248.7 637.4L390.6 609.4Z" fill="#0d0d11" stroke="#000011"></path>
        <path d="M632.4 157.9L546.5 153.8L590.4 223.7Z" fill="#1c2331" stroke="#000011"></path>
        <path d="M590.4 223.7L546.5 153.8L521.5 282.7Z" fill="#1a202c" stroke="#000011"></path>
        <path d="M284.7 727.3L417.6 777.3L390.6 609.4Z" fill="#1d2636" stroke="#000011"></path>
        <path d="M582.4 844.1L588.5 810.2L530.5 754.3Z" fill="#1c2331" stroke="#000011"></path>
        <path d="M289.7 183.8L238.7 270.7L302.6 246.7Z" fill="#13141a" stroke="#000011"></path>
        <path d="M302.6 246.7L238.7 270.7L267.7 331.6Z" fill="#1e293b" stroke="#000011"></path>
        <path d="M267.7 331.6L170.8 262.7L248.8 401.6Z" fill="#13141a" stroke="#000011"></path>
        <path d="M121.9 533.5L246.7 556.5L240.7 450.5Z" fill="#1c2331" stroke="#000011"></path>
        <path d="M121.9 533.5L175.8 594.4L246.7 556.5Z" fill="#0d0d11" stroke="#000011"></path>
        <path d="M860.1 281.7L778.3 285.7L768.2 317.6Z" fill="#1d2636" stroke="#000011"></path>
        <path d="M768.2 317.6L778.3 285.7L713.3 308.6Z" fill="#171a23" stroke="#000011"></path>
        <path d="M756.3 209.8L604.4 246.8L713.3 308.6Z" fill="#1c2331" stroke="#000011"></path>
        <path d="M248.7 637.4L284.7 727.3L390.6 609.4Z" fill="#09090b" stroke="#000011"></path>
        <path d="M672.3 778.3L764.2 683.3L625.4 618.4Z" fill="#1c2331" stroke="#000011"></path>
        <path d="M776.3 576.4L844.1 595.5L792.2 491.5Z" fill="#09090b" stroke="#000011"></path>
        <path d="M121.9 533.5L240.7 450.5L106.9 465.5Z" fill="#1a202c" stroke="#000011"></path>
        <path d="M241.8 603.5L175.8 594.4L248.7 637.4Z" fill="#171a23" stroke="#000011"></path>
        <path d="M248.7 637.4L237.7 759.2L284.7 727.3Z" fill="#15171f" stroke="#000011"></path>
        <path d="M308.6 127.8L289.7 183.8L428.5 246.8Z" fill="#1d2636" stroke="#000011"></path>
        <path d="M764.2 683.3L786.2 676.4L776.3 576.4Z" fill="#0d0d11" stroke="#000011"></path>
        <path d="M582.4 844.1L530.5 754.3L482.5 911.1Z" fill="#191d28" stroke="#000011"></path>
        <path d="M530.5 754.3L672.3 778.3L625.4 618.4Z" fill="#111116" stroke="#000011"></path>
        <path d="M764.2 683.3L836.2 774.2L786.2 676.4Z" fill="#0d0d11" stroke="#000011"></path>
        <path d="M588.5 810.2L672.3 778.3L530.5 754.3Z" fill="#13141a" stroke="#000011"></path>
        <path d="M588.5 810.2L675.4 781.3L672.3 778.3Z" fill="#111116" stroke="#000011"></path>
        <path d="M672.3 778.3L693.4 779.2L764.2 683.3Z" fill="#171a23" stroke="#000011"></path>
        <path d="M778.3 285.7L756.3 209.8L713.3 308.6Z" fill="#111116" stroke="#000011"></path>
        <path d="M632.4 157.9L551.5 104.9L546.5 153.8Z" fill="#0d0d11" stroke="#000011"></path>
        <path d="M546.5 153.8L453.5 81.9L428.5 246.8Z" fill="#13141a" stroke="#000011"></path>
        <path d="M665.3 35.9L551.5 104.9L632.4 157.9Z" fill="#171a23" stroke="#000011"></path>
        <path d="M786.2 676.4L844.1 595.5L776.3 576.4Z" fill="#0d0d11" stroke="#000011"></path>
        <path d="M792.2 491.5L882.1 430.5L768.2 317.6Z" fill="#15171f" stroke="#000011"></path>
        <path d="M675.4 781.3L693.4 779.2L672.3 778.3Z" fill="#1d2636" stroke="#000011"></path>
        <path d="M719.3 806.2L693.4 779.2L675.4 781.3Z" fill="#1d2636" stroke="#000011"></path>
        <path d="M844.1 595.5L873.2 487.5L792.2 491.5Z" fill="#15171f" stroke="#000011"></path>
        <path d="M778.3 285.7L863.2 212.8L756.3 209.8Z" fill="#09090b" stroke="#000011"></path>
        <path d="M873.2 487.5L882.1 430.5L792.2 491.5Z" fill="#1d2636" stroke="#000011"></path>
        <path d="M106.9 465.5L240.7 450.5L245.8 406.5Z" fill="#15171f" stroke="#000011"></path>
        <path d="M85.9 694.3L237.7 759.2L248.7 637.4Z" fill="#15171f" stroke="#000011"></path>
        <path d="M482.5 911.1L530.5 754.3L448.5 765.2Z" fill="#171a23" stroke="#000011"></path>
        <path d="M588.5 810.2L582.4 844.1L675.4 781.3Z" fill="#13141a" stroke="#000011"></path>
        <path d="M482.5 911.1L448.5 765.2L417.6 777.3Z" fill="#15171f" stroke="#000011"></path>
        <path d="M551.5 104.9L453.5 81.9L546.5 153.8Z" fill="#171a23" stroke="#000011"></path>
        <path d="M158.8 231.8L170.8 262.7L238.7 270.7Z" fill="#191d28" stroke="#000011"></path>
        <path d="M238.7 270.7L170.8 262.7L267.7 331.6Z" fill="#09090b" stroke="#000011"></path>
        <path d="M453.5 81.9L308.6 127.8L428.5 246.8Z" fill="#1a202c" stroke="#000011"></path>
        <path d="M289.7 183.8L158.8 231.8L238.7 270.7Z" fill="#1d2636" stroke="#000011"></path>
        <path d="M214.8 790.3L237.7 759.2L111.9 774.2Z" fill="#111116" stroke="#000011"></path>
        <path d="M284.7 727.3L343.6 831.2L417.6 777.3Z" fill="#191d28" stroke="#000011"></path>
        <path d="M55.9 409.6L106.9 465.5L245.8 406.5Z" fill="#191d28" stroke="#000011"></path>
        <path d="M237.7 759.2L343.6 831.2L284.7 727.3Z" fill="#171a23" stroke="#000011"></path>
        <path d="M882.1 430.5L860.1 281.7L768.2 317.6Z" fill="#0d0d11" stroke="#000011"></path>
        <path d="M582.4 844.1L719.3 806.2L675.4 781.3Z" fill="#09090b" stroke="#000011"></path>
        <path d="M693.4 779.2L719.3 806.2L764.2 683.3Z" fill="#171a23" stroke="#000011"></path>
        <path d="M786.2 676.4L898.1 695.4L844.1 595.5Z" fill="#171a23" stroke="#000011"></path>
        <path d="M205.8 129.9L158.8 231.8L289.7 183.8Z" fill="#111116" stroke="#000011"></path>
        <path d="M170.8 262.7L55.9 409.6L245.8 406.5Z" fill="#13141a" stroke="#000011"></path>
        <path d="M85.9 694.3L248.7 637.4L175.8 594.4Z" fill="#1a202c" stroke="#000011"></path>
        <path d="M237.7 759.2L233.8 841.1L343.6 831.2Z" fill="#15171f" stroke="#000011"></path>
        <path d="M873.2 208.7L863.2 212.8L897.1 222.8Z" fill="#171a23" stroke="#000011"></path>
        <path d="M860.1 281.7L863.2 212.8L778.3 285.7Z" fill="#09090b" stroke="#000011"></path>
        <path d="M756.3 209.8L665.3 35.9L632.4 157.9Z" fill="#111116" stroke="#000011"></path>
        <path d="M330.6 973.1L482.5 911.1L343.6 831.2Z" fill="#1d2636" stroke="#000011"></path>
        <path d="M343.6 831.2L482.5 911.1L417.6 777.3Z" fill="#171a23" stroke="#000011"></path>
        <path d="M582.4 844.1L750.2 865.1L719.3 806.2Z" fill="#1d2636" stroke="#000011"></path>
        <path d="M229.7 68.9L205.8 129.9L308.6 127.8Z" fill="#111116" stroke="#000011"></path>
        <path d="M308.6 127.8L205.8 129.9L289.7 183.8Z" fill="#171a23" stroke="#000011"></path>
        <path d="M0 242.7L55.9 409.6L170.8 262.7Z" fill="#09090b" stroke="#000011"></path>
        <path d="M106.9 465.5L0 477.5L121.9 533.5Z" fill="#171a23" stroke="#000011"></path>
        <path d="M121.9 533.5L84.9 643.4L175.8 594.4Z" fill="#1d2636" stroke="#000011"></path>
        <path d="M127.9 205.7L170.8 262.7L158.8 231.8Z" fill="#171a23" stroke="#000011"></path>
        <path d="M897.1 222.8L863.2 212.8L860.1 281.7Z" fill="#1a202c" stroke="#000011"></path>
        <path d="M863.2 212.8L838.2 151.9L756.3 209.8Z" fill="#191d28" stroke="#000011"></path>
        <path d="M0 477.5L84.9 643.4L121.9 533.5Z" fill="#1c2331" stroke="#000011"></path>
        <path d="M774.3 862.1L836.2 774.2L719.3 806.2Z" fill="#09090b" stroke="#000011"></path>
        <path d="M719.3 806.2L836.2 774.2L764.2 683.3Z" fill="#111116" stroke="#000011"></path>
        <path d="M844.1 595.5L1000 519.5L873.2 487.5Z" fill="#15171f" stroke="#000011"></path>
        <path d="M1000 386.6L957.1 330.6L882.1 430.5Z" fill="#1c2331" stroke="#000011"></path>
        <path d="M205.8 129.9L127.9 205.7L158.8 231.8Z" fill="#13141a" stroke="#000011"></path>
        <path d="M439.5 0L377.6 26.9L453.5 81.9Z" fill="#1e293b" stroke="#000011"></path>
        <path d="M453.5 81.9L377.6 26.9L308.6 127.8Z" fill="#09090b" stroke="#000011"></path>
        <path d="M490.5 0L453.5 81.9L551.5 104.9Z" fill="#1e293b" stroke="#000011"></path>
        <path d="M836.2 774.2L898.1 695.4L786.2 676.4Z" fill="#191d28" stroke="#000011"></path>
        <path d="M957.1 330.6L897.1 222.8L860.1 281.7Z" fill="#191d28" stroke="#000011"></path>
        <path d="M838.2 151.9L665.3 35.9L756.3 209.8Z" fill="#171a23" stroke="#000011"></path>
        <path d="M873.2 208.7L838.2 151.9L863.2 212.8Z" fill="#1d2636" stroke="#000011"></path>
        <path d="M219.8 851.2L233.8 841.1L214.8 790.3Z" fill="#0d0d11" stroke="#000011"></path>
        <path d="M214.8 790.3L233.8 841.1L237.7 759.2Z" fill="#111116" stroke="#000011"></path>
        <path d="M957.1 330.6L860.1 281.7L882.1 430.5Z" fill="#111116" stroke="#000011"></path>
        <path d="M1000 144.9L890.1 46.9L838.2 151.9Z" fill="#13141a" stroke="#000011"></path>
        <path d="M631.4 0L490.5 0L551.5 104.9Z" fill="#09090b" stroke="#000011"></path>
        <path d="M490.5 0L439.5 0L453.5 81.9Z" fill="#171a23" stroke="#000011"></path>
        <path d="M601.5 975.1L750.2 865.1L582.4 844.1Z" fill="#191d28" stroke="#000011"></path>
        <path d="M84.9 643.4L85.9 694.3L175.8 594.4Z" fill="#09090b" stroke="#000011"></path>
        <path d="M0 663.4L85.9 694.3L84.9 643.4Z" fill="#111116" stroke="#000011"></path>
        <path d="M1000 418.5L882.1 430.5L1000 519.5Z" fill="#1d2636" stroke="#000011"></path>
        <path d="M111.9 774.2L219.8 851.2L214.8 790.3Z" fill="#1e293b" stroke="#000011"></path>
        <path d="M233.8 841.1L330.6 973.1L343.6 831.2Z" fill="#1e293b" stroke="#000011"></path>
        <path d="M275.7 0L229.7 68.9L308.6 127.8Z" fill="#0d0d11" stroke="#000011"></path>
        <path d="M86.9 152.9L51.9 207.8L127.9 205.7Z" fill="#09090b" stroke="#000011"></path>
        <path d="M275.7 0L308.6 127.8L377.6 26.9Z" fill="#1c2331" stroke="#000011"></path>
        <path d="M976.1 740.3L1000 690.4L898.1 695.4Z" fill="#191d28" stroke="#000011"></path>
        <path d="M750.2 865.1L774.3 862.1L719.3 806.2Z" fill="#191d28" stroke="#000011"></path>
        <path d="M793.3 1000L774.3 862.1L750.2 865.1Z" fill="#191d28" stroke="#000011"></path>
        <path d="M755.2 0L631.4 0L665.3 35.9Z" fill="#09090b" stroke="#000011"></path>
        <path d="M665.3 35.9L631.4 0L551.5 104.9Z" fill="#15171f" stroke="#000011"></path>
        <path d="M439.5 0L363.6 0L377.6 26.9Z" fill="#171a23" stroke="#000011"></path>
        <path d="M85.9 694.3L111.9 774.2L237.7 759.2Z" fill="#1e293b" stroke="#000011"></path>
        <path d="M1000 519.5L882.1 430.5L873.2 487.5Z" fill="#191d28" stroke="#000011"></path>
        <path d="M1000 690.4L1000 519.5L844.1 595.5Z" fill="#1e293b" stroke="#000011"></path>
        <path d="M0 391.6L0 455.5L55.9 409.6Z" fill="#171a23" stroke="#000011"></path>
        <path d="M55.9 409.6L0 455.5L106.9 465.5Z" fill="#0d0d11" stroke="#000011"></path>
        <path d="M85.9 694.3L0 718.3L111.9 774.2Z" fill="#1a202c" stroke="#000011"></path>
        <path d="M0 455.5L0 477.5L106.9 465.5Z" fill="#15171f" stroke="#000011"></path>
        <path d="M1000 418.5L1000 386.6L882.1 430.5Z" fill="#15171f" stroke="#000011"></path>
        <path d="M957.1 330.6L1000 238.8L897.1 222.8Z" fill="#1a202c" stroke="#000011"></path>
        <path d="M0 242.7L0 391.6L55.9 409.6Z" fill="#1a202c" stroke="#000011"></path>
        <path d="M111.9 774.2L210.7 882.1L219.8 851.2Z" fill="#13141a" stroke="#000011"></path>
        <path d="M219.8 851.2L210.7 882.1L233.8 841.1Z" fill="#1d2636" stroke="#000011"></path>
        <path d="M363.6 0L275.7 0L377.6 26.9Z" fill="#1a202c" stroke="#000011"></path>
        <path d="M86.9 152.9L127.9 205.7L205.8 129.9Z" fill="#15171f" stroke="#000011"></path>
        <path d="M86.9 152.9L205.8 129.9L135.8 0Z" fill="#171a23" stroke="#000011"></path>
        <path d="M127.9 205.7L51.9 207.8L170.8 262.7Z" fill="#171a23" stroke="#000011"></path>
        <path d="M584.5 1000L601.5 975.1L482.5 911.1Z" fill="#111116" stroke="#000011"></path>
        <path d="M482.5 911.1L601.5 975.1L582.4 844.1Z" fill="#15171f" stroke="#000011"></path>
        <path d="M135.8 0L205.8 129.9L229.7 68.9Z" fill="#09090b" stroke="#000011"></path>
        <path d="M775.3 0L755.2 0L838.2 151.9Z" fill="#13141a" stroke="#000011"></path>
        <path d="M838.2 151.9L755.2 0L665.3 35.9Z" fill="#1d2636" stroke="#000011"></path>
        <path d="M210.7 882.1L330.6 973.1L233.8 841.1Z" fill="#09090b" stroke="#000011"></path>
        <path d="M0 477.5L0 663.4L84.9 643.4Z" fill="#1a202c" stroke="#000011"></path>
        <path d="M216.8 1000L241.7 1000L210.7 882.1Z" fill="#15171f" stroke="#000011"></path>
        <path d="M838.2 151.9L873.2 208.7L1000 144.9Z" fill="#1c2331" stroke="#000011"></path>
        <path d="M890.1 46.9L775.3 0L838.2 151.9Z" fill="#191d28" stroke="#000011"></path>
        <path d="M393.5 1000L584.5 1000L482.5 911.1Z" fill="#111116" stroke="#000011"></path>
        <path d="M601.5 975.1L677.4 1000L750.2 865.1Z" fill="#1e293b" stroke="#000011"></path>
        <path d="M330.6 973.1L393.5 1000L482.5 911.1Z" fill="#191d28" stroke="#000011"></path>
        <path d="M330.6 973.1L385.6 1000L393.5 1000Z" fill="#09090b" stroke="#000011"></path>
        <path d="M898.1 695.4L1000 690.4L844.1 595.5Z" fill="#09090b" stroke="#000011"></path>
        <path d="M976.1 740.3L898.1 695.4L836.2 774.2Z" fill="#171a23" stroke="#000011"></path>
        <path d="M1000 386.6L1000 238.8L957.1 330.6Z" fill="#15171f" stroke="#000011"></path>
        <path d="M975.1 827.2L836.2 774.2L943.1 872.1Z" fill="#13141a" stroke="#000011"></path>
        <path d="M975.1 827.2L976.1 740.3L836.2 774.2Z" fill="#1c2331" stroke="#000011"></path>
        <path d="M51.9 207.8L0 242.7L170.8 262.7Z" fill="#171a23" stroke="#000011"></path>
        <path d="M0 119.8L0 242.7L51.9 207.8Z" fill="#1d2636" stroke="#000011"></path>
        <path d="M1000 238.8L1000 209.7L897.1 222.8Z" fill="#15171f" stroke="#000011"></path>
        <path d="M0 663.4L0 718.3L85.9 694.3Z" fill="#1d2636" stroke="#000011"></path>
        <path d="M584.5 1000L677.4 1000L601.5 975.1Z" fill="#111116" stroke="#000011"></path>
        <path d="M1000 144.9L873.2 208.7L897.1 222.8Z" fill="#1e293b" stroke="#000011"></path>
        <path d="M275.7 0L135.8 0L229.7 68.9Z" fill="#1d2636" stroke="#000011"></path>
        <path d="M86.9 152.9L0 119.8L51.9 207.8Z" fill="#09090b" stroke="#000011"></path>
        <path d="M1000 209.7L1000 144.9L897.1 222.8Z" fill="#111116" stroke="#000011"></path>
        <path d="M210.7 882.1L241.7 1000L330.6 973.1Z" fill="#13141a" stroke="#000011"></path>
        <path d="M330.6 973.1L241.7 1000L385.6 1000Z" fill="#111116" stroke="#000011"></path>
        <path d="M216.8 1000L210.7 882.1L112.9 1000Z" fill="#1d2636" stroke="#000011"></path>
        <path d="M943.1 872.1L836.2 774.2L774.3 862.1Z" fill="#111116" stroke="#000011"></path>
        <path d="M976.1 740.3L1000 792.3L1000 690.4Z" fill="#15171f" stroke="#000011"></path>
        <path d="M975.1 827.2L1000 792.3L976.1 740.3Z" fill="#1d2636" stroke="#000011"></path>
        <path d="M841.2 1000L943.1 872.1L774.3 862.1Z" fill="#1d2636" stroke="#000011"></path>
        <path d="M975.1 827.2L1000 851.2L1000 792.3Z" fill="#191d28" stroke="#000011"></path>
        <path d="M52.9 962.1L210.7 882.1L111.9 774.2Z" fill="#191d28" stroke="#000011"></path>
        <path d="M677.4 1000L793.3 1000L750.2 865.1Z" fill="#1c2331" stroke="#000011"></path>
        <path d="M0 36.9L0 119.8L86.9 152.9Z" fill="#191d28" stroke="#000011"></path>
        <path d="M0 718.3L0 816.2L111.9 774.2Z" fill="#111116" stroke="#000011"></path>
        <path d="M1000 858.1L975.1 827.2L943.1 872.1Z" fill="#1e293b" stroke="#000011"></path>
        <path d="M1000 858.1L1000 851.2L975.1 827.2Z" fill="#09090b" stroke="#000011"></path>
        <path d="M793.3 1000L841.2 1000L774.3 862.1Z" fill="#171a23" stroke="#000011"></path>
        <path d="M1000 1000L1000 858.1L943.1 872.1Z" fill="#1d2636" stroke="#000011"></path>
        <path d="M1000 144.9L935.1 0L890.1 46.9Z" fill="#13141a" stroke="#000011"></path>
        <path d="M890.1 46.9L935.1 0L775.3 0Z" fill="#111116" stroke="#000011"></path>
        <path d="M0 816.2L0 884.1L111.9 774.2Z" fill="#191d28" stroke="#000011"></path>
        <path d="M32.9 0L0 36.9L86.9 152.9Z" fill="#09090b" stroke="#000011"></path>
        <path d="M52.9 962.1L112.9 1000L210.7 882.1Z" fill="#1e293b" stroke="#000011"></path>
        <path d="M135.8 0L32.9 0L86.9 152.9Z" fill="#1c2331" stroke="#000011"></path>
        <path d="M0 884.1L52.9 962.1L111.9 774.2Z" fill="#1a202c" stroke="#000011"></path>
        <path d="M1000 144.9L1000 0L935.1 0Z" fill="#13141a" stroke="#000011"></path>
        <path d="M32.9 0L0 0L0 36.9Z" fill="#13141a" stroke="#000011"></path>
        <path d="M841.2 1000L935.1 1000L943.1 872.1Z" fill="#15171f" stroke="#000011"></path>
        <path d="M935.1 1000L1000 1000L943.1 872.1Z" fill="#1d2636" stroke="#000011"></path>
        <path d="M0 884.1L0 1000L52.9 962.1Z" fill="#09090b" stroke="#000011"></path>
        <path d="M52.9 962.1L0 1000L112.9 1000Z" fill="#1e293b" stroke="#000011"></path>
    </g>
</svg>