<?xml version="1.0" standalone="no"?><svg xmlns:xlink="http://www.w3.org/1999/xlink" xmlns="http://www.w3.org/2000/svg" viewBox="0 0 1000 1000" preserveAspectRatio="xMaxYMax slice"><g transform="scale(1.639344262295082)"><rect x="0" y="0" width="610" height="610" fill="#ffffff"/><rect x="0" y="0" width="61" height="61" fill="#ffffff"/><rect x="0" y="0" width="30.5" height="30.5" fill="#e6e6e6"/><g transform="translate(0,0) scale(1.525) rotate(0)"><path fill-rule="evenodd" clip-rule="evenodd" d="M10 20C15.5228 20 20 15.5228 20 10C20 4.47715 15.5228 0 10 0C4.47715 0 0 4.47715 0 10C0 15.5228 4.47715 20 10 20ZM10 17C13.866 17 17 13.866 17 10C17 6.13401 13.866 3 10 3C6.13401 3 3 6.13401 3 10C3 13.866 6.13401 17 10 17Z" fill="#eeeeef"/></g><rect x="30.5" y="0" width="30.5" height="30.5" fill="#d8d8d8"/><path d="M 30.5 30.5 A 30.5 30.5 0 0 1  61 0 L 61 30.5" fill="#e9e9e9"/><rect x="0" y="30.5" width="30.5" height="30.5" fill="#fdfcfc"/><path d="M 0 30.5 A 30.5 30.5 0 0 0 30.5 61 L 30.5 30.5" fill="#d6d6d9"/><rect x="30.5" y="30.5" width="30.5" height="30.5" fill="#dddddf"/><rect x="30.5" y="30.5" width="30.5" height="30.5" fill="#d7d7d9"/><rect x="61" y="0" width="61" height="61" fill="#ffffff"/><rect x="61" y="0" width="30.5" height="30.5" fill="#fdfcfc"/><path d="M 61 0 A 30.5 30.5 0 0 0 91.5 30.5 L 91.5 0" fill="#f8f8f9"/><rect x="91.5" y="0" width="30.5" height="30.5" fill="#f7f7f8"/><path d="M 91.5 30.5 A 30.5 30.5 0 0 0 122 0 L 91.5 0" fill="#ffffff"/><rect x="61" y="30.5" width="30.5" height="30.5" fill="#dadada"/><polygon points="61,30.5 91.5,30.5 91.5,61" fill="#dbdbdd"/><rect x="91.5" y="30.5" width="30.5" height="30.5" fill="#e3e3e4"/><path d="M 91.5 30.5 A 30.5 30.5 0 0 0 122 61 L 122 30.5" fill="#e9e9ea"/><rect x="122" y="0" width="61" height="61" fill="#ffffff"/><rect x="122" y="0" width="30.5" height="30.5" fill="#ededef"/><path d="M 122 30.5 A 30.5 30.5 0 0 1  152.5 0 L 122 30.5 A 30.5 30.5 0 0 0 152.5 0" fill="#fcfcfc"/><rect x="152.5" y="0" width="30.5" height="30.5" fill="#dfdfe0"/><polygon points="152.5,0 183,0 183,30.5" fill="#f8f9f9"/><rect x="122" y="30.5" width="30.5" height="30.5" fill="#e5e5e6"/><path d="M 122 61 A 30.5 30.5 0 0 1  152.5 30.5 L 122 61 A 30.5 30.5 0 0 0 152.5 30.5" fill="#f4f6f6"/><rect x="152.5" y="30.5" width="30.5" height="30.5" fill="#fefcfc"/><path d="M 152.5 30.5 A 30.5 30.5 0 0 1 183 61 L 152.5 61" fill="#d9d9dc"/><rect x="183" y="0" width="61" height="61" fill="#dcdcde"/><rect x="183" y="0" width="61" height="61" fill="#fafafa"/><rect x="244" y="0" width="61" height="61" fill="#ffffff"/><rect x="244" y="0" width="30.5" height="30.5" fill="#fdfbfb"/><polygon points="244,0 274.5,30.5 244,30.5" fill="#f5f7f7"/><rect x="274.5" y="0" width="30.5" height="30.5" fill="#f9fbfb"/><g transform="translate(274.5,0) scale(1.525) rotate(0)"><path fill-rule="evenodd" clip-rule="evenodd" d="M10 20C15.5228 20 20 15.5228 20 10C20 4.47715 15.5228 0 10 0C4.47715 0 0 4.47715 0 10C0 15.5228 4.47715 20 10 20ZM10 17C13.866 17 17 13.866 17 10C17 6.13401 13.866 3 10 3C6.13401 3 3 6.13401 3 10C3 13.866 6.13401 17 10 17Z" fill="#dddddf"/></g><rect x="244" y="30.5" width="30.5" height="30.5" fill="#e6e6e8"/><path d="M 244 30.5 A 30.5 30.5 0 0 0 274.5 61 L 274.5 30.5" fill="#c0c0c4"/><rect x="274.5" y="30.5" width="30.5" height="30.5" fill="#fbf7f7"/><rect x="274.5" y="30.5" width="30.5" height="30.5" fill="#cfcfd2"/><rect x="305" y="0" width="61" height="61" fill="#ffffff"/><rect x="305" y="0" width="30.5" height="30.5" fill="#d6d6d6"/><path d="M 305 30.5 A 30.5 30.5 0 0 1  335.5 0 L 305 30.5 A 30.5 30.5 0 0 0 335.5 0" fill="#d5d5d8"/><rect x="335.5" y="0" width="30.5" height="30.5" fill="#e9e9e9"/><path d="M 335.5 0 A 30.5 30.5 0 0 1  366 30.5 L 335.5 0 A 30.5 30.5 0 0 0 366 30.5" fill="#d9d9d9"/><rect x="305" y="30.5" width="30.5" height="30.5" fill="#c6c6ca"/><polygon points="305,30.5 335.5,61 305,61" fill="#f7f7f7"/><rect x="335.5" y="30.5" width="30.5" height="30.5" fill="#d4d4d7"/><polygon points="335.5,30.5 366,30.5 335.5,61" fill="#e8e8e9"/><rect x="366" y="0" width="61" height="61" fill="#ffffff"/><rect x="366" y="0" width="30.5" height="30.5" fill="#f4f7f7"/><rect x="366" y="0" width="30.5" height="30.5" fill="#f9f4f4"/><rect x="396.5" y="0" width="30.5" height="30.5" fill="#cbcbce"/><rect x="396.5" y="0" width="30.5" height="30.5" fill="#f9fbfb"/><rect x="366" y="30.5" width="30.5" height="30.5" fill="#f2f5f5"/><polygon points="366,30.5 396.5,30.5 366,61" fill="#e8e8e8"/><rect x="396.5" y="30.5" width="30.5" height="30.5" fill="#faf7f7"/><g transform="translate(396.5,30.5) scale(1.525) rotate(0)"><path fill-rule="evenodd" clip-rule="evenodd" d="M10 20C15.5228 20 20 15.5228 20 10C20 4.47715 15.5228 0 10 0C4.47715 0 0 4.47715 0 10C0 15.5228 4.47715 20 10 20ZM10 17C13.866 17 17 13.866 17 10C17 6.13401 13.866 3 10 3C6.13401 3 3 6.13401 3 10C3 13.866 6.13401 17 10 17Z" fill="#f3f3f3"/></g><rect x="427" y="0" width="61" height="61" fill="#ffffff"/><rect x="427" y="0" width="30.5" height="30.5" fill="#e6e6e6"/><rect x="427" y="0" width="30.5" height="30.5" fill="#f4f7f7"/><rect x="457.5" y="0" width="30.5" height="30.5" fill="#e5e5e7"/><g transform="translate(457.5,0) scale(1.525) rotate(0)"><path fill-rule="evenodd" clip-rule="evenodd" d="M10 20C15.5228 20 20 15.5228 20 10C20 4.47715 15.5228 0 10 0C4.47715 0 0 4.47715 0 10C0 15.5228 4.47715 20 10 20ZM10 17C13.866 17 17 13.866 17 10C17 6.13401 13.866 3 10 3C6.13401 3 3 6.13401 3 10C3 13.866 6.13401 17 10 17Z" fill="#f2f5f5"/></g><rect x="427" y="30.5" width="30.5" height="30.5" fill="#f2f2f2"/><g transform="translate(427,30.5) scale(1.525) rotate(0)"><path fill-rule="evenodd" clip-rule="evenodd" d="M10 20C15.5228 20 20 15.5228 20 10C20 4.47715 15.5228 0 10 0C4.47715 0 0 4.47715 0 10C0 15.5228 4.47715 20 10 20ZM10 17C13.866 17 17 13.866 17 10C17 6.13401 13.866 3 10 3C6.13401 3 3 6.13401 3 10C3 13.866 6.13401 17 10 17Z" fill="#dedee0"/></g><rect x="457.5" y="30.5" width="30.5" height="30.5" fill="#d5d5d7"/><path d="M 457.5 30.5 A 30.5 30.5 0 0 0 488 61 L 488 30.5" fill="#fcfafa"/><rect x="488" y="0" width="61" height="61" fill="#f7f9f9"/><g transform="translate(488,0) scale(3.05) rotate(0)"><path fill-rule="evenodd" clip-rule="evenodd" d="M10 20C15.5228 20 20 15.5228 20 10C20 4.47715 15.5228 0 10 0C4.47715 0 0 4.47715 0 10C0 15.5228 4.47715 20 10 20ZM10 17C13.866 17 17 13.866 17 10C17 6.13401 13.866 3 10 3C6.13401 3 3 6.13401 3 10C3 13.866 6.13401 17 10 17Z" fill="#ebebec"/></g><rect x="549" y="0" width="61" height="61" fill="#c4c4c8"/><g transform="translate(549,0) scale(3.05) rotate(0)"><path fill-rule="evenodd" clip-rule="evenodd" d="M10 20C15.5228 20 20 15.5228 20 10C20 4.47715 15.5228 0 10 0C4.47715 0 0 4.47715 0 10C0 15.5228 4.47715 20 10 20ZM10 17C13.866 17 17 13.866 17 10C17 6.13401 13.866 3 10 3C6.13401 3 3 6.13401 3 10C3 13.866 6.13401 17 10 17Z" fill="#d1d1d1"/></g><rect x="0" y="61" width="61" height="61" fill="#ffffff"/><rect x="0" y="61" width="30.5" height="30.5" fill="#fdfefe"/><g transform="translate(0,61) scale(1.525) rotate(0)"><path fill-rule="evenodd" clip-rule="evenodd" d="M10 20C15.5228 20 20 15.5228 20 10C20 4.47715 15.5228 0 10 0C4.47715 0 0 4.47715 0 10C0 15.5228 4.47715 20 10 20ZM10 17C13.866 17 17 13.866 17 10C17 6.13401 13.866 3 10 3C6.13401 3 3 6.13401 3 10C3 13.866 6.13401 17 10 17Z" fill="#e4e4e4"/></g><rect x="30.5" y="61" width="30.5" height="30.5" fill="#dddddf"/><path d="M 30.5 61 A 30.5 30.5 0 0 0 61 91.5 L 61 61" fill="#faf6f6"/><rect x="0" y="91.5" width="30.5" height="30.5" fill="#fbfbfb"/><path d="M 0 91.5 A 30.5 30.5 0 0 0 30.5 122 L 30.5 91.5" fill="#fdfafa"/><rect x="30.5" y="91.5" width="30.5" height="30.5" fill="#f0f0f1"/><rect x="30.5" y="91.5" width="30.5" height="30.5" fill="#dcdcde"/><rect x="61" y="61" width="61" height="61" fill="#f7f8f8"/><polygon points="61,61 122,61 61,122" fill="#f1f1f2"/><rect x="122" y="61" width="61" height="61" fill="#fbfcfc"/><path d="M 122 122 A 61 61 0 0 0 183 61 L 122 61" fill="#f9f5f5"/><rect x="183" y="61" width="61" height="61" fill="#f9fafa"/><rect x="183" y="61" width="61" height="61" fill="#fefefe"/><rect x="244" y="61" width="61" height="61" fill="#f8f2f2"/><polygon points="244,61 305,61 305,122" fill="#dcdcde"/><rect x="305" y="61" width="61" height="61" fill="#ebebec"/><rect x="305" y="61" width="61" height="61" fill="#e3e3e5"/><rect x="366" y="61" width="61" height="61" fill="#e6e6e6"/><path d="M 366 61 A 61 61 0 0 0 427 122 L 427 61" fill="#faf6f6"/><rect x="427" y="61" width="61" height="61" fill="#ffffff"/><rect x="427" y="61" width="30.5" height="30.5" fill="#eeeeef"/><g transform="translate(427,61) scale(1.525) rotate(0)"><path fill-rule="evenodd" clip-rule="evenodd" d="M10 20C15.5228 20 20 15.5228 20 10C20 4.47715 15.5228 0 10 0C4.47715 0 0 4.47715 0 10C0 15.5228 4.47715 20 10 20ZM10 17C13.866 17 17 13.866 17 10C17 6.13401 13.866 3 10 3C6.13401 3 3 6.13401 3 10C3 13.866 6.13401 17 10 17Z" fill="#ebebed"/></g><rect x="457.5" y="61" width="30.5" height="30.5" fill="#dfdfe1"/><g transform="translate(457.5,61) scale(1.525) rotate(0)"><path fill-rule="evenodd" clip-rule="evenodd" d="M10 20C15.5228 20 20 15.5228 20 10C20 4.47715 15.5228 0 10 0C4.47715 0 0 4.47715 0 10C0 15.5228 4.47715 20 10 20ZM10 17C13.866 17 17 13.866 17 10C17 6.13401 13.866 3 10 3C6.13401 3 3 6.13401 3 10C3 13.866 6.13401 17 10 17Z" fill="#fcfcfc"/></g><rect x="427" y="91.5" width="30.5" height="30.5" fill="#e2e2e3"/><path d="M 427 122 A 30.5 30.5 0 0 0 457.5 91.5 L 427 91.5" fill="#eaeaeb"/><rect x="457.5" y="91.5" width="30.5" height="30.5" fill="#e3e3e3"/><g transform="translate(457.5,91.5) scale(1.525) rotate(0)"><path fill-rule="evenodd" clip-rule="evenodd" d="M10 20C15.5228 20 20 15.5228 20 10C20 4.47715 15.5228 0 10 0C4.47715 0 0 4.47715 0 10C0 15.5228 4.47715 20 10 20ZM10 17C13.866 17 17 13.866 17 10C17 6.13401 13.866 3 10 3C6.13401 3 3 6.13401 3 10C3 13.866 6.13401 17 10 17Z" fill="#dcdcdf"/></g><rect x="488" y="61" width="61" height="61" fill="#e9e9ea"/><rect x="488" y="61" width="61" height="61" fill="#f5f7f7"/><rect x="549" y="61" width="61" height="61" fill="#ffffff"/><rect x="549" y="61" width="61" height="61" fill="#f4f4f5"/><rect x="0" y="122" width="61" height="61" fill="#fcf9f9"/><path d="M 0 183 A 61 61 0 0 0 61 122 L 0 122" fill="#e7e7e8"/><rect x="61" y="122" width="61" height="61" fill="#ffffff"/><rect x="61" y="122" width="30.5" height="30.5" fill="#d8d8db"/><polygon points="61,122 91.5,122 61,152.5" fill="#ffffff"/><rect x="91.5" y="122" width="30.5" height="30.5" fill="#c3c3c7"/><rect x="91.5" y="122" width="30.5" height="30.5" fill="#f8f3f3"/><rect x="61" y="152.5" width="30.5" height="30.5" fill="#d4d4d4"/><rect x="61" y="152.5" width="30.5" height="30.5" fill="#fefdfd"/><rect x="91.5" y="152.5" width="30.5" height="30.5" fill="#f2f5f5"/><rect x="91.5" y="152.5" width="30.5" height="30.5" fill="#f2f5f5"/><rect x="122" y="122" width="61" height="61" fill="#ffffff"/><rect x="122" y="122" width="30.5" height="30.5" fill="#f6f8f8"/><rect x="122" y="122" width="30.5" height="30.5" fill="#f8f8f8"/><rect x="152.5" y="122" width="30.5" height="30.5" fill="#c4c4c7"/><polygon points="152.5,122 183,152.5 152.5,152.5" fill="#e6e6e7"/><rect x="122" y="152.5" width="30.5" height="30.5" fill="#e6e6e6"/><rect x="122" y="152.5" width="30.5" height="30.5" fill="#d2d2d5"/><rect x="152.5" y="152.5" width="30.5" height="30.5" fill="#f5f7f7"/><path d="M 152.5 183 A 30.5 30.5 0 0 1  183 152.5 L 183 183" fill="#c4c4c7"/><rect x="183" y="122" width="61" height="61" fill="#ffffff"/><rect x="183" y="122" width="30.5" height="30.5" fill="#fafbfb"/><g transform="translate(183,122) scale(1.525) rotate(0)"><path fill-rule="evenodd" clip-rule="evenodd" d="M10 20C15.5228 20 20 15.5228 20 10C20 4.47715 15.5228 0 10 0C4.47715 0 0 4.47715 0 10C0 15.5228 4.47715 20 10 20ZM10 17C13.866 17 17 13.866 17 10C17 6.13401 13.866 3 10 3C6.13401 3 3 6.13401 3 10C3 13.866 6.13401 17 10 17Z" fill="#e6e6e7"/></g><rect x="213.5" y="122" width="30.5" height="30.5" fill="#e5e5e5"/><polygon points="213.5,122 244,152.5 213.5,152.5" fill="#dadadc"/><rect x="183" y="152.5" width="30.5" height="30.5" fill="#dfdfdf"/><rect x="183" y="152.5" width="30.5" height="30.5" fill="#f8f3f3"/><rect x="213.5" y="152.5" width="30.5" height="30.5" fill="#fafafa"/><rect x="213.5" y="152.5" width="30.5" height="30.5" fill="#f9f9f9"/><rect x="244" y="122" width="61" height="61" fill="#ffffff"/><rect x="244" y="122" width="30.5" height="30.5" fill="#e1e1e3"/><g transform="translate(244,122) scale(1.525) rotate(0)"><path fill-rule="evenodd" clip-rule="evenodd" d="M10 20C15.5228 20 20 15.5228 20 10C20 4.47715 15.5228 0 10 0C4.47715 0 0 4.47715 0 10C0 15.5228 4.47715 20 10 20ZM10 17C13.866 17 17 13.866 17 10C17 6.13401 13.866 3 10 3C6.13401 3 3 6.13401 3 10C3 13.866 6.13401 17 10 17Z" fill="#fdfdfd"/></g><rect x="274.5" y="122" width="30.5" height="30.5" fill="#fefdfd"/><g transform="translate(274.5,122) scale(1.525) rotate(0)"><path fill-rule="evenodd" clip-rule="evenodd" d="M10 20C15.5228 20 20 15.5228 20 10C20 4.47715 15.5228 0 10 0C4.47715 0 0 4.47715 0 10C0 15.5228 4.47715 20 10 20ZM10 17C13.866 17 17 13.866 17 10C17 6.13401 13.866 3 10 3C6.13401 3 3 6.13401 3 10C3 13.866 6.13401 17 10 17Z" fill="#ededee"/></g><rect x="244" y="152.5" width="30.5" height="30.5" fill="#f8f3f3"/><polygon points="244,152.5 274.5,152.5 244,183" fill="#fdfbfb"/><rect x="274.5" y="152.5" width="30.5" height="30.5" fill="#f4f6f6"/><path d="M 274.5 183 A 30.5 30.5 0 0 0 305 152.5 L 274.5 152.5" fill="#dadada"/><rect x="305" y="122" width="61" height="61" fill="#f8fafa"/><path d="M 305 122 A 61 61 0 0 0 366 183 L 366 122" fill="#fefefe"/><rect x="366" y="122" width="61" height="61" fill="#ffffff"/><rect x="366" y="122" width="30.5" height="30.5" fill="#e5e5e5"/><rect x="366" y="122" width="30.5" height="30.5" fill="#ffffff"/><rect x="396.5" y="122" width="30.5" height="30.5" fill="#d1d1d1"/><path d="M 396.5 152.5 A 30.5 30.5 0 0 1  427 122 L 396.5 152.5 A 30.5 30.5 0 0 0 427 122" fill="#ebebec"/><rect x="366" y="152.5" width="30.5" height="30.5" fill="#fcfdfd"/><path d="M 366 152.5 A 30.5 30.5 0 0 0 396.5 183 L 396.5 152.5" fill="#c4c4c8"/><rect x="396.5" y="152.5" width="30.5" height="30.5" fill="#f9f3f3"/><g transform="translate(396.5,152.5) scale(1.525) rotate(0)"><path fill-rule="evenodd" clip-rule="evenodd" d="M10 20C15.5228 20 20 15.5228 20 10C20 4.47715 15.5228 0 10 0C4.47715 0 0 4.47715 0 10C0 15.5228 4.47715 20 10 20ZM10 17C13.866 17 17 13.866 17 10C17 6.13401 13.866 3 10 3C6.13401 3 3 6.13401 3 10C3 13.866 6.13401 17 10 17Z" fill="#e5e5e5"/></g><rect x="427" y="122" width="61" height="61" fill="#ffffff"/><rect x="427" y="122" width="30.5" height="30.5" fill="#d7d7d7"/><polygon points="427,122 457.5,122 427,152.5" fill="#e4e4e6"/><rect x="457.5" y="122" width="30.5" height="30.5" fill="#ebebec"/><g transform="translate(457.5,122) scale(1.525) rotate(0)"><path fill-rule="evenodd" clip-rule="evenodd" d="M10 20C15.5228 20 20 15.5228 20 10C20 4.47715 15.5228 0 10 0C4.47715 0 0 4.47715 0 10C0 15.5228 4.47715 20 10 20ZM10 17C13.866 17 17 13.866 17 10C17 6.13401 13.866 3 10 3C6.13401 3 3 6.13401 3 10C3 13.866 6.13401 17 10 17Z" fill="#fefefe"/></g><rect x="427" y="152.5" width="30.5" height="30.5" fill="#fcf9f9"/><rect x="427" y="152.5" width="30.5" height="30.5" fill="#f9f4f4"/><rect x="457.5" y="152.5" width="30.5" height="30.5" fill="#d8d8d8"/><g transform="translate(457.5,152.5) scale(1.525) rotate(0)"><path fill-rule="evenodd" clip-rule="evenodd" d="M10 20C15.5228 20 20 15.5228 20 10C20 4.47715 15.5228 0 10 0C4.47715 0 0 4.47715 0 10C0 15.5228 4.47715 20 10 20ZM10 17C13.866 17 17 13.866 17 10C17 6.13401 13.866 3 10 3C6.13401 3 3 6.13401 3 10C3 13.866 6.13401 17 10 17Z" fill="#e0e0e2"/></g><rect x="488" y="122" width="61" height="61" fill="#e4e4e6"/><polygon points="549,122 549,183 488,183" fill="#f7f8f8"/><rect x="549" y="122" width="61" height="61" fill="#e9e9e9"/><polygon points="549,122 610,122 610,183" fill="#fcf9f9"/><rect x="0" y="183" width="61" height="61" fill="#ffffff"/><rect x="0" y="183" width="30.5" height="30.5" fill="#fdfcfc"/><path d="M 0 213.5 A 30.5 30.5 0 0 1  30.5 183 L 30.5 213.5" fill="#f7f8f8"/><rect x="30.5" y="183" width="30.5" height="30.5" fill="#fcfafa"/><rect x="30.5" y="183" width="30.5" height="30.5" fill="#f4f4f4"/><rect x="0" y="213.5" width="30.5" height="30.5" fill="#c3c3c7"/><rect x="0" y="213.5" width="30.5" height="30.5" fill="#f2f2f2"/><rect x="30.5" y="213.5" width="30.5" height="30.5" fill="#fcf9f9"/><rect x="30.5" y="213.5" width="30.5" height="30.5" fill="#ffffff"/><rect x="61" y="183" width="61" height="61" fill="#ffffff"/><rect x="61" y="183" width="30.5" height="30.5" fill="#e9e9ea"/><polygon points="61,183 91.5,183 91.5,213.5" fill="#d4d4d6"/><rect x="91.5" y="183" width="30.5" height="30.5" fill="#d3d3d6"/><polygon points="122,183 122,213.5 91.5,213.5" fill="#fefdfd"/><rect x="61" y="213.5" width="30.5" height="30.5" fill="#f6f8f8"/><polygon points="91.5,213.5 91.5,244 61,244" fill="#fdfbfb"/><rect x="91.5" y="213.5" width="30.5" height="30.5" fill="#faf5f5"/><rect x="91.5" y="213.5" width="30.5" height="30.5" fill="#e5e5e5"/><rect x="122" y="183" width="61" height="61" fill="#efeff0"/><polygon points="183,183 183,244 122,244" fill="#dfdfdf"/><rect x="183" y="183" width="61" height="61" fill="#f3f3f3"/><g transform="translate(183,183) scale(3.05) rotate(0)"><path fill-rule="evenodd" clip-rule="evenodd" d="M10 20C15.5228 20 20 15.5228 20 10C20 4.47715 15.5228 0 10 0C4.47715 0 0 4.47715 0 10C0 15.5228 4.47715 20 10 20ZM10 17C13.866 17 17 13.866 17 10C17 6.13401 13.866 3 10 3C6.13401 3 3 6.13401 3 10C3 13.866 6.13401 17 10 17Z" fill="#f9f9f9"/></g><rect x="244" y="183" width="61" height="61" fill="#f6f8f8"/><polygon points="244,183 305,183 244,244" fill="#fdfdfd"/><rect x="305" y="183" width="61" height="61" fill="#cbcbce"/><path d="M 305 183 A 61 61 0 0 1 366 244 L 305 244" fill="#e1e1e3"/><rect x="366" y="183" width="61" height="61" fill="#ffffff"/><rect x="366" y="183" width="30.5" height="30.5" fill="#f9f5f5"/><polygon points="396.5,183 396.5,213.5 366,213.5" fill="#e4e4e4"/><rect x="396.5" y="183" width="30.5" height="30.5" fill="#f1f1f2"/><path d="M 396.5 213.5 A 30.5 30.5 0 0 1  427 183 L 396.5 213.5 A 30.5 30.5 0 0 0 427 183" fill="#f3f6f6"/><rect x="366" y="213.5" width="30.5" height="30.5" fill="#f6f6f6"/><g transform="translate(366,213.5) scale(1.525) rotate(0)"><path fill-rule="evenodd" clip-rule="evenodd" d="M10 20C15.5228 20 20 15.5228 20 10C20 4.47715 15.5228 0 10 0C4.47715 0 0 4.47715 0 10C0 15.5228 4.47715 20 10 20ZM10 17C13.866 17 17 13.866 17 10C17 6.13401 13.866 3 10 3C6.13401 3 3 6.13401 3 10C3 13.866 6.13401 17 10 17Z" fill="#fbf8f8"/></g><rect x="396.5" y="213.5" width="30.5" height="30.5" fill="#fbfcfc"/><polygon points="427,213.5 427,244 396.5,244" fill="#dfdfe1"/><rect x="427" y="183" width="61" height="61" fill="#f3f6f6"/><g transform="translate(427,183) scale(3.05) rotate(0)"><path fill-rule="evenodd" clip-rule="evenodd" d="M10 20C15.5228 20 20 15.5228 20 10C20 4.47715 15.5228 0 10 0C4.47715 0 0 4.47715 0 10C0 15.5228 4.47715 20 10 20ZM10 17C13.866 17 17 13.866 17 10C17 6.13401 13.866 3 10 3C6.13401 3 3 6.13401 3 10C3 13.866 6.13401 17 10 17Z" fill="#eaeaec"/></g><rect x="488" y="183" width="61" height="61" fill="#d2d2d2"/><rect x="488" y="183" width="61" height="61" fill="#fefefe"/><rect x="549" y="183" width="61" height="61" fill="#fbf7f7"/><path d="M 549 244 A 61 61 0 0 0 610 183 L 549 183" fill="#f8f2f2"/><rect x="0" y="244" width="61" height="61" fill="#ffffff"/><rect x="0" y="244" width="30.5" height="30.5" fill="#f7f9f9"/><g transform="translate(0,244) scale(1.525) rotate(0)"><path fill-rule="evenodd" clip-rule="evenodd" d="M10 20C15.5228 20 20 15.5228 20 10C20 4.47715 15.5228 0 10 0C4.47715 0 0 4.47715 0 10C0 15.5228 4.47715 20 10 20ZM10 17C13.866 17 17 13.866 17 10C17 6.13401 13.866 3 10 3C6.13401 3 3 6.13401 3 10C3 13.866 6.13401 17 10 17Z" fill="#f8f9f9"/></g><rect x="30.5" y="244" width="30.5" height="30.5" fill="#d9d9d9"/><g transform="translate(30.5,244) scale(1.525) rotate(0)"><path fill-rule="evenodd" clip-rule="evenodd" d="M10 20C15.5228 20 20 15.5228 20 10C20 4.47715 15.5228 0 10 0C4.47715 0 0 4.47715 0 10C0 15.5228 4.47715 20 10 20ZM10 17C13.866 17 17 13.866 17 10C17 6.13401 13.866 3 10 3C6.13401 3 3 6.13401 3 10C3 13.866 6.13401 17 10 17Z" fill="#f8f2f2"/></g><rect x="0" y="274.5" width="30.5" height="30.5" fill="#dadadc"/><path d="M 0 305 A 30.5 30.5 0 0 1  30.5 274.5 L 0 305 A 30.5 30.5 0 0 0 30.5 274.5" fill="#e6e6e7"/><rect x="30.5" y="274.5" width="30.5" height="30.5" fill="#dddddd"/><g transform="translate(30.5,274.5) scale(1.525) rotate(0)"><path fill-rule="evenodd" clip-rule="evenodd" d="M10 20C15.5228 20 20 15.5228 20 10C20 4.47715 15.5228 0 10 0C4.47715 0 0 4.47715 0 10C0 15.5228 4.47715 20 10 20ZM10 17C13.866 17 17 13.866 17 10C17 6.13401 13.866 3 10 3C6.13401 3 3 6.13401 3 10C3 13.866 6.13401 17 10 17Z" fill="#fefefe"/></g><rect x="61" y="244" width="61" height="61" fill="#ffffff"/><rect x="61" y="244" width="30.5" height="30.5" fill="#f8f8f8"/><rect x="61" y="244" width="30.5" height="30.5" fill="#f4f4f4"/><rect x="91.5" y="244" width="30.5" height="30.5" fill="#c1c1c5"/><polygon points="122,244 122,274.5 91.5,274.5" fill="#fbfbfb"/><rect x="61" y="274.5" width="30.5" height="30.5" fill="#f6f6f6"/><g transform="translate(61,274.5) scale(1.525) rotate(0)"><path fill-rule="evenodd" clip-rule="evenodd" d="M10 20C15.5228 20 20 15.5228 20 10C20 4.47715 15.5228 0 10 0C4.47715 0 0 4.47715 0 10C0 15.5228 4.47715 20 10 20ZM10 17C13.866 17 17 13.866 17 10C17 6.13401 13.866 3 10 3C6.13401 3 3 6.13401 3 10C3 13.866 6.13401 17 10 17Z" fill="#f0f0f1"/></g><rect x="91.5" y="274.5" width="30.5" height="30.5" fill="#f7f7f7"/><g transform="translate(91.5,274.5) scale(1.525) rotate(0)"><path fill-rule="evenodd" clip-rule="evenodd" d="M10 20C15.5228 20 20 15.5228 20 10C20 4.47715 15.5228 0 10 0C4.47715 0 0 4.47715 0 10C0 15.5228 4.47715 20 10 20ZM10 17C13.866 17 17 13.866 17 10C17 6.13401 13.866 3 10 3C6.13401 3 3 6.13401 3 10C3 13.866 6.13401 17 10 17Z" fill="#e5e5e7"/></g><rect x="122" y="244" width="61" height="61" fill="#fbf7f7"/><g transform="translate(122,244) scale(3.05) rotate(0)"><path fill-rule="evenodd" clip-rule="evenodd" d="M10 20C15.5228 20 20 15.5228 20 10C20 4.47715 15.5228 0 10 0C4.47715 0 0 4.47715 0 10C0 15.5228 4.47715 20 10 20ZM10 17C13.866 17 17 13.866 17 10C17 6.13401 13.866 3 10 3C6.13401 3 3 6.13401 3 10C3 13.866 6.13401 17 10 17Z" fill="#fcfcfc"/></g><rect x="183" y="244" width="61" height="61" fill="#ffffff"/><rect x="183" y="244" width="30.5" height="30.5" fill="#f0f0f0"/><path d="M 183 274.5 A 30.5 30.5 0 0 0 213.5 244 L 183 244" fill="#dbdbdb"/><rect x="213.5" y="244" width="30.5" height="30.5" fill="#fefefe"/><rect x="213.5" y="244" width="30.5" height="30.5" fill="#f1f1f1"/><rect x="183" y="274.5" width="30.5" height="30.5" fill="#fbf8f8"/><rect x="183" y="274.5" width="30.5" height="30.5" fill="#f1f1f1"/><rect x="213.5" y="274.5" width="30.5" height="30.5" fill="#fbfbfb"/><rect x="213.5" y="274.5" width="30.5" height="30.5" fill="#f9f4f4"/><rect x="244" y="244" width="61" height="61" fill="#ffffff"/><rect x="244" y="244" width="30.5" height="30.5" fill="#d6d6d8"/><rect x="244" y="244" width="30.5" height="30.5" fill="#fcf9f9"/><rect x="274.5" y="244" width="30.5" height="30.5" fill="#f6f6f6"/><polygon points="274.5,244 305,244 305,274.5" fill="#d6d6d6"/><rect x="244" y="274.5" width="30.5" height="30.5" fill="#f7f7f7"/><g transform="translate(244,274.5) scale(1.525) rotate(0)"><path fill-rule="evenodd" clip-rule="evenodd" d="M10 20C15.5228 20 20 15.5228 20 10C20 4.47715 15.5228 0 10 0C4.47715 0 0 4.47715 0 10C0 15.5228 4.47715 20 10 20ZM10 17C13.866 17 17 13.866 17 10C17 6.13401 13.866 3 10 3C6.13401 3 3 6.13401 3 10C3 13.866 6.13401 17 10 17Z" fill="#e0e0e2"/></g><rect x="274.5" y="274.5" width="30.5" height="30.5" fill="#fcf9f9"/><rect x="274.5" y="274.5" width="30.5" height="30.5" fill="#f2f2f2"/><rect x="305" y="244" width="61" height="61" fill="#c8c8cb"/><g transform="translate(305,244) scale(3.05) rotate(0)"><path fill-rule="evenodd" clip-rule="evenodd" d="M10 20C15.5228 20 20 15.5228 20 10C20 4.47715 15.5228 0 10 0C4.47715 0 0 4.47715 0 10C0 15.5228 4.47715 20 10 20ZM10 17C13.866 17 17 13.866 17 10C17 6.13401 13.866 3 10 3C6.13401 3 3 6.13401 3 10C3 13.866 6.13401 17 10 17Z" fill="#f6f6f7"/></g><rect x="366" y="244" width="61" height="61" fill="#ffffff"/><path d="M 366 244 A 61 61 0 0 1 427 305 L 366 305" fill="#fcfafa"/><rect x="427" y="244" width="61" height="61" fill="#f3f6f6"/><polygon points="488,244 488,305 427,305" fill="#f8f8f8"/><rect x="488" y="244" width="61" height="61" fill="#fbf8f8"/><rect x="488" y="244" width="61" height="61" fill="#fcfafa"/><rect x="549" y="244" width="61" height="61" fill="#ffffff"/><rect x="549" y="244" width="30.5" height="30.5" fill="#eaeaea"/><rect x="549" y="244" width="30.5" height="30.5" fill="#f1f4f4"/><rect x="579.5" y="244" width="30.5" height="30.5" fill="#dcdcdc"/><path d="M 579.5 274.5 A 30.5 30.5 0 0 1  610 244 L 610 274.5" fill="#f3f5f5"/><rect x="549" y="274.5" width="30.5" height="30.5" fill="#f6f8f8"/><polygon points="549,274.5 579.5,274.5 549,305" fill="#d4d4d7"/><rect x="579.5" y="274.5" width="30.5" height="30.5" fill="#d7d7d9"/><polygon points="579.5,274.5 610,305 579.5,305" fill="#cacacd"/><rect x="0" y="305" width="61" height="61" fill="#ffffff"/><rect x="0" y="305" width="30.5" height="30.5" fill="#fefefe"/><rect x="0" y="305" width="30.5" height="30.5" fill="#fefefe"/><rect x="30.5" y="305" width="30.5" height="30.5" fill="#f6f8f8"/><polygon points="30.5,305 61,305 61,335.5" fill="#dcdcde"/><rect x="0" y="335.5" width="30.5" height="30.5" fill="#d6d6d9"/><g transform="translate(0,335.5) scale(1.525) rotate(0)"><path fill-rule="evenodd" clip-rule="evenodd" d="M10 20C15.5228 20 20 15.5228 20 10C20 4.47715 15.5228 0 10 0C4.47715 0 0 4.47715 0 10C0 15.5228 4.47715 20 10 20ZM10 17C13.866 17 17 13.866 17 10C17 6.13401 13.866 3 10 3C6.13401 3 3 6.13401 3 10C3 13.866 6.13401 17 10 17Z" fill="#f6f8f8"/></g><rect x="30.5" y="335.5" width="30.5" height="30.5" fill="#fbf8f8"/><g transform="translate(30.5,335.5) scale(1.525) rotate(0)"><path fill-rule="evenodd" clip-rule="evenodd" d="M10 20C15.5228 20 20 15.5228 20 10C20 4.47715 15.5228 0 10 0C4.47715 0 0 4.47715 0 10C0 15.5228 4.47715 20 10 20ZM10 17C13.866 17 17 13.866 17 10C17 6.13401 13.866 3 10 3C6.13401 3 3 6.13401 3 10C3 13.866 6.13401 17 10 17Z" fill="#ffffff"/></g><rect x="61" y="305" width="61" height="61" fill="#ffffff"/><rect x="61" y="305" width="30.5" height="30.5" fill="#faf7f7"/><rect x="61" y="305" width="30.5" height="30.5" fill="#fbfcfc"/><rect x="91.5" y="305" width="30.5" height="30.5" fill="#fefdfd"/><polygon points="91.5,305 122,335.5 91.5,335.5" fill="#fbf8f8"/><rect x="61" y="335.5" width="30.5" height="30.5" fill="#fcfcfc"/><rect x="61" y="335.5" width="30.5" height="30.5" fill="#fdfdfd"/><rect x="91.5" y="335.5" width="30.5" height="30.5" fill="#fdfbfb"/><rect x="91.5" y="335.5" width="30.5" height="30.5" fill="#faf5f5"/><rect x="122" y="305" width="61" height="61" fill="#eaeaeb"/><path d="M 122 366 A 61 61 0 0 1  183 305 L 122 366 A 61 61 0 0 0 183 305" fill="#fafbfb"/><rect x="183" y="305" width="61" height="61" fill="#e4e4e4"/><g transform="translate(183,305) scale(3.05) rotate(0)"><path fill-rule="evenodd" clip-rule="evenodd" d="M10 20C15.5228 20 20 15.5228 20 10C20 4.47715 15.5228 0 10 0C4.47715 0 0 4.47715 0 10C0 15.5228 4.47715 20 10 20ZM10 17C13.866 17 17 13.866 17 10C17 6.13401 13.866 3 10 3C6.13401 3 3 6.13401 3 10C3 13.866 6.13401 17 10 17Z" fill="#dedee0"/></g><rect x="244" y="305" width="61" height="61" fill="#ffffff"/><rect x="244" y="305" width="30.5" height="30.5" fill="#e9e9eb"/><g transform="translate(244,305) scale(1.525) rotate(0)"><path fill-rule="evenodd" clip-rule="evenodd" d="M10 20C15.5228 20 20 15.5228 20 10C20 4.47715 15.5228 0 10 0C4.47715 0 0 4.47715 0 10C0 15.5228 4.47715 20 10 20ZM10 17C13.866 17 17 13.866 17 10C17 6.13401 13.866 3 10 3C6.13401 3 3 6.13401 3 10C3 13.866 6.13401 17 10 17Z" fill="#ffffff"/></g><rect x="274.5" y="305" width="30.5" height="30.5" fill="#d7d7d7"/><polygon points="274.5,305 305,335.5 274.5,335.5" fill="#ebebec"/><rect x="244" y="335.5" width="30.5" height="30.5" fill="#dadadd"/><polygon points="244,335.5 274.5,335.5 244,366" fill="#f3f3f3"/><rect x="274.5" y="335.5" width="30.5" height="30.5" fill="#fdfbfb"/><polygon points="274.5,335.5 305,366 274.5,366" fill="#e5e5e7"/><rect x="305" y="305" width="61" height="61" fill="#fbf8f8"/><path d="M 305 305 A 61 61 0 0 1 366 366 L 305 366" fill="#f9f4f4"/><rect x="366" y="305" width="61" height="61" fill="#ffffff"/><rect x="366" y="305" width="30.5" height="30.5" fill="#ebebec"/><polygon points="366,305 396.5,305 366,335.5" fill="#fafbfb"/><rect x="396.5" y="305" width="30.5" height="30.5" fill="#fbf7f7"/><path d="M 396.5 305 A 30.5 30.5 0 0 0 427 335.5 L 427 305" fill="#fcfdfd"/><rect x="366" y="335.5" width="30.5" height="30.5" fill="#e9e9eb"/><g transform="translate(366,335.5) scale(1.525) rotate(0)"><path fill-rule="evenodd" clip-rule="evenodd" d="M10 20C15.5228 20 20 15.5228 20 10C20 4.47715 15.5228 0 10 0C4.47715 0 0 4.47715 0 10C0 15.5228 4.47715 20 10 20ZM10 17C13.866 17 17 13.866 17 10C17 6.13401 13.866 3 10 3C6.13401 3 3 6.13401 3 10C3 13.866 6.13401 17 10 17Z" fill="#eaeaea"/></g><rect x="396.5" y="335.5" width="30.5" height="30.5" fill="#fbfbfb"/><polygon points="396.5,335.5 427,366 396.5,366" fill="#fdfcfc"/><rect x="427" y="305" width="61" height="61" fill="#f4f7f7"/><path d="M 427 305 A 61 61 0 0 1 488 366 L 427 366" fill="#ffffff"/><rect x="488" y="305" width="61" height="61" fill="#fefefe"/><path d="M 488 305 A 61 61 0 0 0 549 366 L 549 305" fill="#ececed"/><rect x="549" y="305" width="61" height="61" fill="#ffffff"/><rect x="549" y="305" width="30.5" height="30.5" fill="#f3f3f3"/><polygon points="549,305 579.5,305 579.5,335.5" fill="#eaeaeb"/><rect x="579.5" y="305" width="30.5" height="30.5" fill="#fdfefe"/><g transform="translate(579.5,305) scale(1.525) rotate(0)"><path fill-rule="evenodd" clip-rule="evenodd" d="M10 20C15.5228 20 20 15.5228 20 10C20 4.47715 15.5228 0 10 0C4.47715 0 0 4.47715 0 10C0 15.5228 4.47715 20 10 20ZM10 17C13.866 17 17 13.866 17 10C17 6.13401 13.866 3 10 3C6.13401 3 3 6.13401 3 10C3 13.866 6.13401 17 10 17Z" fill="#faf7f7"/></g><rect x="549" y="335.5" width="30.5" height="30.5" fill="#ffffff"/><path d="M 549 366 A 30.5 30.5 0 0 1  579.5 335.5 L 549 366 A 30.5 30.5 0 0 0 579.5 335.5" fill="#ffffff"/><rect x="579.5" y="335.5" width="30.5" height="30.5" fill="#f8fafa"/><polygon points="579.5,335.5 610,366 579.5,366" fill="#ceced1"/><rect x="0" y="366" width="61" height="61" fill="#f4f4f5"/><polygon points="0,366 61,366 61,427" fill="#fcf9f9"/><rect x="61" y="366" width="61" height="61" fill="#fdfdfd"/><polygon points="61,366 122,427 61,427" fill="#c7c7ca"/><rect x="122" y="366" width="61" height="61" fill="#ffffff"/><rect x="122" y="366" width="30.5" height="30.5" fill="#fcfcfd"/><path d="M 122 396.5 A 30.5 30.5 0 0 1  152.5 366 L 152.5 396.5" fill="#dedee0"/><rect x="152.5" y="366" width="30.5" height="30.5" fill="#fffefe"/><polygon points="152.5,366 183,366 152.5,396.5" fill="#f0f0f0"/><rect x="122" y="396.5" width="30.5" height="30.5" fill="#fbfcfc"/><rect x="122" y="396.5" width="30.5" height="30.5" fill="#f6f8f8"/><rect x="152.5" y="396.5" width="30.5" height="30.5" fill="#d4d4d4"/><g transform="translate(152.5,396.5) scale(1.525) rotate(0)"><path fill-rule="evenodd" clip-rule="evenodd" d="M10 20C15.5228 20 20 15.5228 20 10C20 4.47715 15.5228 0 10 0C4.47715 0 0 4.47715 0 10C0 15.5228 4.47715 20 10 20ZM10 17C13.866 17 17 13.866 17 10C17 6.13401 13.866 3 10 3C6.13401 3 3 6.13401 3 10C3 13.866 6.13401 17 10 17Z" fill="#dfdfe1"/></g><rect x="183" y="366" width="61" height="61" fill="#ececee"/><rect x="183" y="366" width="61" height="61" fill="#fafbfb"/><rect x="244" y="366" width="61" height="61" fill="#f7f7f7"/><path d="M 244 427 A 61 61 0 0 1  305 366 L 305 427" fill="#f9fbfb"/><rect x="305" y="366" width="61" height="61" fill="#ffffff"/><rect x="305" y="366" width="30.5" height="30.5" fill="#e7e7e8"/><polygon points="305,366 335.5,366 335.5,396.5" fill="#ebebec"/><rect x="335.5" y="366" width="30.5" height="30.5" fill="#dadada"/><polygon points="335.5,366 366,366 335.5,396.5" fill="#f7f7f7"/><rect x="305" y="396.5" width="30.5" height="30.5" fill="#faf6f6"/><g transform="translate(305,396.5) scale(1.525) rotate(0)"><path fill-rule="evenodd" clip-rule="evenodd" d="M10 20C15.5228 20 20 15.5228 20 10C20 4.47715 15.5228 0 10 0C4.47715 0 0 4.47715 0 10C0 15.5228 4.47715 20 10 20ZM10 17C13.866 17 17 13.866 17 10C17 6.13401 13.866 3 10 3C6.13401 3 3 6.13401 3 10C3 13.866 6.13401 17 10 17Z" fill="#f2f2f2"/></g><rect x="335.5" y="396.5" width="30.5" height="30.5" fill="#c1c1c5"/><path d="M 335.5 396.5 A 30.5 30.5 0 0 0 366 427 L 366 396.5" fill="#eeeeef"/><rect x="366" y="366" width="61" height="61" fill="#faf6f6"/><g transform="translate(366,366) scale(3.05) rotate(0)"><path fill-rule="evenodd" clip-rule="evenodd" d="M10 20C15.5228 20 20 15.5228 20 10C20 4.47715 15.5228 0 10 0C4.47715 0 0 4.47715 0 10C0 15.5228 4.47715 20 10 20ZM10 17C13.866 17 17 13.866 17 10C17 6.13401 13.866 3 10 3C6.13401 3 3 6.13401 3 10C3 13.866 6.13401 17 10 17Z" fill="#fbf8f8"/></g><rect x="427" y="366" width="61" height="61" fill="#ffffff"/><rect x="427" y="366" width="30.5" height="30.5" fill="#fbf7f7"/><g transform="translate(427,366) scale(1.525) rotate(0)"><path fill-rule="evenodd" clip-rule="evenodd" d="M10 20C15.5228 20 20 15.5228 20 10C20 4.47715 15.5228 0 10 0C4.47715 0 0 4.47715 0 10C0 15.5228 4.47715 20 10 20ZM10 17C13.866 17 17 13.866 17 10C17 6.13401 13.866 3 10 3C6.13401 3 3 6.13401 3 10C3 13.866 6.13401 17 10 17Z" fill="#e4e4e4"/></g><rect x="457.5" y="366" width="30.5" height="30.5" fill="#e9e9eb"/><path d="M 457.5 396.5 A 30.5 30.5 0 0 1  488 366 L 488 396.5" fill="#e7e7e7"/><rect x="427" y="396.5" width="30.5" height="30.5" fill="#fbf8f8"/><rect x="427" y="396.5" width="30.5" height="30.5" fill="#dadadc"/><rect x="457.5" y="396.5" width="30.5" height="30.5" fill="#ededed"/><g transform="translate(457.5,396.5) scale(1.525) rotate(0)"><path fill-rule="evenodd" clip-rule="evenodd" d="M10 20C15.5228 20 20 15.5228 20 10C20 4.47715 15.5228 0 10 0C4.47715 0 0 4.47715 0 10C0 15.5228 4.47715 20 10 20ZM10 17C13.866 17 17 13.866 17 10C17 6.13401 13.866 3 10 3C6.13401 3 3 6.13401 3 10C3 13.866 6.13401 17 10 17Z" fill="#fcfdfd"/></g><rect x="488" y="366" width="61" height="61" fill="#ffffff"/><rect x="488" y="366" width="30.5" height="30.5" fill="#e5e5e5"/><g transform="translate(488,366) scale(1.525) rotate(0)"><path fill-rule="evenodd" clip-rule="evenodd" d="M10 20C15.5228 20 20 15.5228 20 10C20 4.47715 15.5228 0 10 0C4.47715 0 0 4.47715 0 10C0 15.5228 4.47715 20 10 20ZM10 17C13.866 17 17 13.866 17 10C17 6.13401 13.866 3 10 3C6.13401 3 3 6.13401 3 10C3 13.866 6.13401 17 10 17Z" fill="#ffffff"/></g><rect x="518.5" y="366" width="30.5" height="30.5" fill="#fdfdfd"/><path d="M 518.5 396.5 A 30.5 30.5 0 0 1  549 366 L 518.5 396.5 A 30.5 30.5 0 0 0 549 366" fill="#fcf9f9"/><rect x="488" y="396.5" width="30.5" height="30.5" fill="#e6e6e6"/><polygon points="518.5,396.5 518.5,427 488,427" fill="#ffffff"/><rect x="518.5" y="396.5" width="30.5" height="30.5" fill="#eeeeef"/><path d="M 518.5 427 A 30.5 30.5 0 0 0 549 396.5 L 518.5 396.5" fill="#fffefe"/><rect x="549" y="366" width="61" height="61" fill="#dbdbdb"/><rect x="549" y="366" width="61" height="61" fill="#fdfbfb"/><rect x="0" y="427" width="61" height="61" fill="#ffffff"/><rect x="0" y="427" width="30.5" height="30.5" fill="#dddddf"/><rect x="0" y="427" width="30.5" height="30.5" fill="#dadadc"/><rect x="30.5" y="427" width="30.5" height="30.5" fill="#f0f0f0"/><rect x="30.5" y="427" width="30.5" height="30.5" fill="#e2e2e3"/><rect x="0" y="457.5" width="30.5" height="30.5" fill="#fefefe"/><path d="M 0 488 A 30.5 30.5 0 0 1  30.5 457.5 L 0 488 A 30.5 30.5 0 0 0 30.5 457.5" fill="#f8f2f2"/><rect x="30.5" y="457.5" width="30.5" height="30.5" fill="#fdfbfb"/><rect x="30.5" y="457.5" width="30.5" height="30.5" fill="#dedede"/><rect x="61" y="427" width="61" height="61" fill="#fcf9f9"/><path d="M 61 427 A 61 61 0 0 1  122 488 L 61 427 A 61 61 0 0 0 122 488" fill="#f5f7f7"/><rect x="122" y="427" width="61" height="61" fill="#eeeeee"/><rect x="122" y="427" width="61" height="61" fill="#dcdcdc"/><rect x="183" y="427" width="61" height="61" fill="#ffffff"/><rect x="183" y="427" width="30.5" height="30.5" fill="#f6f8f8"/><polygon points="183,427 213.5,457.5 183,457.5" fill="#efefef"/><rect x="213.5" y="427" width="30.5" height="30.5" fill="#f3f6f6"/><rect x="213.5" y="427" width="30.5" height="30.5" fill="#f9f4f4"/><rect x="183" y="457.5" width="30.5" height="30.5" fill="#cfcfd2"/><g transform="translate(183,457.5) scale(1.525) rotate(0)"><path fill-rule="evenodd" clip-rule="evenodd" d="M10 20C15.5228 20 20 15.5228 20 10C20 4.47715 15.5228 0 10 0C4.47715 0 0 4.47715 0 10C0 15.5228 4.47715 20 10 20ZM10 17C13.866 17 17 13.866 17 10C17 6.13401 13.866 3 10 3C6.13401 3 3 6.13401 3 10C3 13.866 6.13401 17 10 17Z" fill="#f4f4f4"/></g><rect x="213.5" y="457.5" width="30.5" height="30.5" fill="#fafafb"/><rect x="213.5" y="457.5" width="30.5" height="30.5" fill="#fcfcfc"/><rect x="244" y="427" width="61" height="61" fill="#ffffff"/><rect x="244" y="427" width="30.5" height="30.5" fill="#dcdcdc"/><path d="M 244 427 A 30.5 30.5 0 0 1 274.5 457.5 L 244 457.5" fill="#f8f8f9"/><rect x="274.5" y="427" width="30.5" height="30.5" fill="#f0f0f1"/><rect x="274.5" y="427" width="30.5" height="30.5" fill="#faf6f6"/><rect x="244" y="457.5" width="30.5" height="30.5" fill="#faf6f6"/><g transform="translate(244,457.5) scale(1.525) rotate(0)"><path fill-rule="evenodd" clip-rule="evenodd" d="M10 20C15.5228 20 20 15.5228 20 10C20 4.47715 15.5228 0 10 0C4.47715 0 0 4.47715 0 10C0 15.5228 4.47715 20 10 20ZM10 17C13.866 17 17 13.866 17 10C17 6.13401 13.866 3 10 3C6.13401 3 3 6.13401 3 10C3 13.866 6.13401 17 10 17Z" fill="#d9d9d9"/></g><rect x="274.5" y="457.5" width="30.5" height="30.5" fill="#f1f1f1"/><rect x="274.5" y="457.5" width="30.5" height="30.5" fill="#fbfcfc"/><rect x="305" y="427" width="61" height="61" fill="#ffffff"/><rect x="305" y="427" width="30.5" height="30.5" fill="#fdfdfd"/><rect x="305" y="427" width="30.5" height="30.5" fill="#f4f4f4"/><rect x="335.5" y="427" width="30.5" height="30.5" fill="#f1f1f2"/><path d="M 335.5 427 A 30.5 30.5 0 0 1 366 457.5 L 335.5 457.5" fill="#f5f7f7"/><rect x="305" y="457.5" width="30.5" height="30.5" fill="#f4f6f6"/><path d="M 305 488 A 30.5 30.5 0 0 1  335.5 457.5 L 335.5 488" fill="#fbf7f7"/><rect x="335.5" y="457.5" width="30.5" height="30.5" fill="#ffffff"/><g transform="translate(335.5,457.5) scale(1.525) rotate(0)"><path fill-rule="evenodd" clip-rule="evenodd" d="M10 20C15.5228 20 20 15.5228 20 10C20 4.47715 15.5228 0 10 0C4.47715 0 0 4.47715 0 10C0 15.5228 4.47715 20 10 20ZM10 17C13.866 17 17 13.866 17 10C17 6.13401 13.866 3 10 3C6.13401 3 3 6.13401 3 10C3 13.866 6.13401 17 10 17Z" fill="#eeeeef"/></g><rect x="366" y="427" width="61" height="61" fill="#ffffff"/><rect x="366" y="427" width="30.5" height="30.5" fill="#f8f3f3"/><path d="M 366 457.5 A 30.5 30.5 0 0 0 396.5 427 L 366 427" fill="#ffffff"/><rect x="396.5" y="427" width="30.5" height="30.5" fill="#f7f8f8"/><rect x="396.5" y="427" width="30.5" height="30.5" fill="#f8f8f8"/><rect x="366" y="457.5" width="30.5" height="30.5" fill="#ffffff"/><rect x="366" y="457.5" width="30.5" height="30.5" fill="#f7f7f7"/><rect x="396.5" y="457.5" width="30.5" height="30.5" fill="#e9e9ea"/><g transform="translate(396.5,457.5) scale(1.525) rotate(0)"><path fill-rule="evenodd" clip-rule="evenodd" d="M10 20C15.5228 20 20 15.5228 20 10C20 4.47715 15.5228 0 10 0C4.47715 0 0 4.47715 0 10C0 15.5228 4.47715 20 10 20ZM10 17C13.866 17 17 13.866 17 10C17 6.13401 13.866 3 10 3C6.13401 3 3 6.13401 3 10C3 13.866 6.13401 17 10 17Z" fill="#faf5f5"/></g><rect x="427" y="427" width="61" height="61" fill="#dedee0"/><rect x="427" y="427" width="61" height="61" fill="#f7f7f8"/><rect x="488" y="427" width="61" height="61" fill="#ebebec"/><g transform="translate(488,427) scale(3.05) rotate(0)"><path fill-rule="evenodd" clip-rule="evenodd" d="M10 20C15.5228 20 20 15.5228 20 10C20 4.47715 15.5228 0 10 0C4.47715 0 0 4.47715 0 10C0 15.5228 4.47715 20 10 20ZM10 17C13.866 17 17 13.866 17 10C17 6.13401 13.866 3 10 3C6.13401 3 3 6.13401 3 10C3 13.866 6.13401 17 10 17Z" fill="#fffefe"/></g><rect x="549" y="427" width="61" height="61" fill="#ffffff"/><rect x="549" y="427" width="30.5" height="30.5" fill="#f4f4f5"/><rect x="549" y="427" width="30.5" height="30.5" fill="#faf6f6"/><rect x="579.5" y="427" width="30.5" height="30.5" fill="#eeeeee"/><path d="M 579.5 457.5 A 30.5 30.5 0 0 1  610 427 L 610 457.5" fill="#dbdbdc"/><rect x="549" y="457.5" width="30.5" height="30.5" fill="#fefefe"/><polygon points="549,457.5 579.5,488 549,488" fill="#fefefe"/><rect x="579.5" y="457.5" width="30.5" height="30.5" fill="#cdcdd0"/><rect x="579.5" y="457.5" width="30.5" height="30.5" fill="#ebebec"/><rect x="0" y="488" width="61" height="61" fill="#ffffff"/><rect x="0" y="488" width="30.5" height="30.5" fill="#f0f0f0"/><g transform="translate(0,488) scale(1.525) rotate(0)"><path fill-rule="evenodd" clip-rule="evenodd" d="M10 20C15.5228 20 20 15.5228 20 10C20 4.47715 15.5228 0 10 0C4.47715 0 0 4.47715 0 10C0 15.5228 4.47715 20 10 20ZM10 17C13.866 17 17 13.866 17 10C17 6.13401 13.866 3 10 3C6.13401 3 3 6.13401 3 10C3 13.866 6.13401 17 10 17Z" fill="#ceced1"/></g><rect x="30.5" y="488" width="30.5" height="30.5" fill="#fcfcfc"/><polygon points="30.5,488 61,518.5 30.5,518.5" fill="#dedee0"/><rect x="0" y="518.5" width="30.5" height="30.5" fill="#f1f1f2"/><path d="M 0 549 A 30.5 30.5 0 0 0 30.5 518.5 L 0 518.5" fill="#fbf7f7"/><rect x="30.5" y="518.5" width="30.5" height="30.5" fill="#dfdfe1"/><rect x="30.5" y="518.5" width="30.5" height="30.5" fill="#ededed"/><rect x="61" y="488" width="61" height="61" fill="#fafbfb"/><path d="M 61 488 A 61 61 0 0 1  122 549 L 61 488 A 61 61 0 0 0 122 549" fill="#dadadd"/><rect x="122" y="488" width="61" height="61" fill="#ffffff"/><rect x="122" y="488" width="30.5" height="30.5" fill="#c4c4c8"/><polygon points="122,488 152.5,488 122,518.5" fill="#fefcfc"/><rect x="152.5" y="488" width="30.5" height="30.5" fill="#fcf9f9"/><polygon points="152.5,488 183,488 152.5,518.5" fill="#f4f4f5"/><rect x="122" y="518.5" width="30.5" height="30.5" fill="#ffffff"/><path d="M 122 549 A 30.5 30.5 0 0 1  152.5 518.5 L 122 549 A 30.5 30.5 0 0 0 152.5 518.5" fill="#efeff0"/><rect x="152.5" y="518.5" width="30.5" height="30.5" fill="#d4d4d6"/><g transform="translate(152.5,518.5) scale(1.525) rotate(0)"><path fill-rule="evenodd" clip-rule="evenodd" d="M10 20C15.5228 20 20 15.5228 20 10C20 4.47715 15.5228 0 10 0C4.47715 0 0 4.47715 0 10C0 15.5228 4.47715 20 10 20ZM10 17C13.866 17 17 13.866 17 10C17 6.13401 13.866 3 10 3C6.13401 3 3 6.13401 3 10C3 13.866 6.13401 17 10 17Z" fill="#fcfafa"/></g><rect x="183" y="488" width="61" height="61" fill="#ffffff"/><rect x="183" y="488" width="30.5" height="30.5" fill="#f9f4f4"/><rect x="183" y="488" width="30.5" height="30.5" fill="#fcfafa"/><rect x="213.5" y="488" width="30.5" height="30.5" fill="#f6f6f6"/><polygon points="213.5,488 244,488 213.5,518.5" fill="#f2f2f3"/><rect x="183" y="518.5" width="30.5" height="30.5" fill="#d7d7d7"/><rect x="183" y="518.5" width="30.5" height="30.5" fill="#e9e9eb"/><rect x="213.5" y="518.5" width="30.5" height="30.5" fill="#f4f4f4"/><g transform="translate(213.5,518.5) scale(1.525) rotate(0)"><path fill-rule="evenodd" clip-rule="evenodd" d="M10 20C15.5228 20 20 15.5228 20 10C20 4.47715 15.5228 0 10 0C4.47715 0 0 4.47715 0 10C0 15.5228 4.47715 20 10 20ZM10 17C13.866 17 17 13.866 17 10C17 6.13401 13.866 3 10 3C6.13401 3 3 6.13401 3 10C3 13.866 6.13401 17 10 17Z" fill="#f9f9fa"/></g><rect x="244" y="488" width="61" height="61" fill="#f2f5f5"/><path d="M 244 549 A 61 61 0 0 1  305 488 L 244 549 A 61 61 0 0 0 305 488" fill="#fcfafa"/><rect x="305" y="488" width="61" height="61" fill="#ffffff"/><rect x="305" y="488" width="30.5" height="30.5" fill="#f8f8f9"/><rect x="305" y="488" width="30.5" height="30.5" fill="#f9fbfb"/><rect x="335.5" y="488" width="30.5" height="30.5" fill="#e8e8e9"/><g transform="translate(335.5,488) scale(1.525) rotate(0)"><path fill-rule="evenodd" clip-rule="evenodd" d="M10 20C15.5228 20 20 15.5228 20 10C20 4.47715 15.5228 0 10 0C4.47715 0 0 4.47715 0 10C0 15.5228 4.47715 20 10 20ZM10 17C13.866 17 17 13.866 17 10C17 6.13401 13.866 3 10 3C6.13401 3 3 6.13401 3 10C3 13.866 6.13401 17 10 17Z" fill="#ececed"/></g><rect x="305" y="518.5" width="30.5" height="30.5" fill="#cbcbce"/><rect x="305" y="518.5" width="30.5" height="30.5" fill="#dcdcde"/><rect x="335.5" y="518.5" width="30.5" height="30.5" fill="#faf6f6"/><path d="M 335.5 549 A 30.5 30.5 0 0 1  366 518.5 L 366 549" fill="#fcf9f9"/><rect x="366" y="488" width="61" height="61" fill="#ffffff"/><rect x="366" y="488" width="30.5" height="30.5" fill="#f3f3f3"/><rect x="366" y="488" width="30.5" height="30.5" fill="#ccccd0"/><rect x="396.5" y="488" width="30.5" height="30.5" fill="#efefef"/><g transform="translate(396.5,488) scale(1.525) rotate(0)"><path fill-rule="evenodd" clip-rule="evenodd" d="M10 20C15.5228 20 20 15.5228 20 10C20 4.47715 15.5228 0 10 0C4.47715 0 0 4.47715 0 10C0 15.5228 4.47715 20 10 20ZM10 17C13.866 17 17 13.866 17 10C17 6.13401 13.866 3 10 3C6.13401 3 3 6.13401 3 10C3 13.866 6.13401 17 10 17Z" fill="#c9c9cc"/></g><rect x="366" y="518.5" width="30.5" height="30.5" fill="#fefefe"/><path d="M 366 518.5 A 30.5 30.5 0 0 1 396.5 549 L 366 549" fill="#f5f5f6"/><rect x="396.5" y="518.5" width="30.5" height="30.5" fill="#fffefe"/><path d="M 396.5 518.5 A 30.5 30.5 0 0 1 427 549 L 396.5 549" fill="#e2e2e4"/><rect x="427" y="488" width="61" height="61" fill="#ffffff"/><rect x="427" y="488" width="30.5" height="30.5" fill="#f6f8f8"/><g transform="translate(427,488) scale(1.525) rotate(0)"><path fill-rule="evenodd" clip-rule="evenodd" d="M10 20C15.5228 20 20 15.5228 20 10C20 4.47715 15.5228 0 10 0C4.47715 0 0 4.47715 0 10C0 15.5228 4.47715 20 10 20ZM10 17C13.866 17 17 13.866 17 10C17 6.13401 13.866 3 10 3C6.13401 3 3 6.13401 3 10C3 13.866 6.13401 17 10 17Z" fill="#f3f6f6"/></g><rect x="457.5" y="488" width="30.5" height="30.5" fill="#f2f2f3"/><g transform="translate(457.5,488) scale(1.525) rotate(0)"><path fill-rule="evenodd" clip-rule="evenodd" d="M10 20C15.5228 20 20 15.5228 20 10C20 4.47715 15.5228 0 10 0C4.47715 0 0 4.47715 0 10C0 15.5228 4.47715 20 10 20ZM10 17C13.866 17 17 13.866 17 10C17 6.13401 13.866 3 10 3C6.13401 3 3 6.13401 3 10C3 13.866 6.13401 17 10 17Z" fill="#f7f7f7"/></g><rect x="427" y="518.5" width="30.5" height="30.5" fill="#f0f0f0"/><g transform="translate(427,518.5) scale(1.525) rotate(0)"><path fill-rule="evenodd" clip-rule="evenodd" d="M10 20C15.5228 20 20 15.5228 20 10C20 4.47715 15.5228 0 10 0C4.47715 0 0 4.47715 0 10C0 15.5228 4.47715 20 10 20ZM10 17C13.866 17 17 13.866 17 10C17 6.13401 13.866 3 10 3C6.13401 3 3 6.13401 3 10C3 13.866 6.13401 17 10 17Z" fill="#f6f6f6"/></g><rect x="457.5" y="518.5" width="30.5" height="30.5" fill="#efeff0"/><g transform="translate(457.5,518.5) scale(1.525) rotate(0)"><path fill-rule="evenodd" clip-rule="evenodd" d="M10 20C15.5228 20 20 15.5228 20 10C20 4.47715 15.5228 0 10 0C4.47715 0 0 4.47715 0 10C0 15.5228 4.47715 20 10 20ZM10 17C13.866 17 17 13.866 17 10C17 6.13401 13.866 3 10 3C6.13401 3 3 6.13401 3 10C3 13.866 6.13401 17 10 17Z" fill="#c4c4c8"/></g><rect x="488" y="488" width="61" height="61" fill="#ffffff"/><rect x="488" y="488" width="30.5" height="30.5" fill="#fbfcfc"/><polygon points="488,488 518.5,488 488,518.5" fill="#ebebeb"/><rect x="518.5" y="488" width="30.5" height="30.5" fill="#fbfcfc"/><path d="M 518.5 488 A 30.5 30.5 0 0 1 549 518.5 L 518.5 518.5" fill="#f8fafa"/><rect x="488" y="518.5" width="30.5" height="30.5" fill="#d4d4d4"/><g transform="translate(488,518.5) scale(1.525) rotate(0)"><path fill-rule="evenodd" clip-rule="evenodd" d="M10 20C15.5228 20 20 15.5228 20 10C20 4.47715 15.5228 0 10 0C4.47715 0 0 4.47715 0 10C0 15.5228 4.47715 20 10 20ZM10 17C13.866 17 17 13.866 17 10C17 6.13401 13.866 3 10 3C6.13401 3 3 6.13401 3 10C3 13.866 6.13401 17 10 17Z" fill="#c7c7ca"/></g><rect x="518.5" y="518.5" width="30.5" height="30.5" fill="#e9e9e9"/><polygon points="549,518.5 549,549 518.5,549" fill="#dbdbdd"/><rect x="549" y="488" width="61" height="61" fill="#ececec"/><g transform="translate(549,488) scale(3.05) rotate(0)"><path fill-rule="evenodd" clip-rule="evenodd" d="M10 20C15.5228 20 20 15.5228 20 10C20 4.47715 15.5228 0 10 0C4.47715 0 0 4.47715 0 10C0 15.5228 4.47715 20 10 20ZM10 17C13.866 17 17 13.866 17 10C17 6.13401 13.866 3 10 3C6.13401 3 3 6.13401 3 10C3 13.866 6.13401 17 10 17Z" fill="#fdfbfb"/></g><rect x="0" y="549" width="61" height="61" fill="#ffffff"/><rect x="0" y="549" width="30.5" height="30.5" fill="#ededed"/><rect x="0" y="549" width="30.5" height="30.5" fill="#e2e2e4"/><rect x="30.5" y="549" width="30.5" height="30.5" fill="#f8f9f9"/><rect x="30.5" y="549" width="30.5" height="30.5" fill="#fdfbfb"/><rect x="0" y="579.5" width="30.5" height="30.5" fill="#e7e7e8"/><path d="M 0 579.5 A 30.5 30.5 0 0 0 30.5 610 L 30.5 579.5" fill="#eeeeee"/><rect x="30.5" y="579.5" width="30.5" height="30.5" fill="#eeeeef"/><polygon points="61,579.5 61,610 30.5,610" fill="#f9f3f3"/><rect x="61" y="549" width="61" height="61" fill="#ffffff"/><rect x="61" y="549" width="30.5" height="30.5" fill="#d5d5d5"/><g transform="translate(61,549) scale(1.525) rotate(0)"><path fill-rule="evenodd" clip-rule="evenodd" d="M10 20C15.5228 20 20 15.5228 20 10C20 4.47715 15.5228 0 10 0C4.47715 0 0 4.47715 0 10C0 15.5228 4.47715 20 10 20ZM10 17C13.866 17 17 13.866 17 10C17 6.13401 13.866 3 10 3C6.13401 3 3 6.13401 3 10C3 13.866 6.13401 17 10 17Z" fill="#fdfdfd"/></g><rect x="91.5" y="549" width="30.5" height="30.5" fill="#fafafa"/><g transform="translate(91.5,549) scale(1.525) rotate(0)"><path fill-rule="evenodd" clip-rule="evenodd" d="M10 20C15.5228 20 20 15.5228 20 10C20 4.47715 15.5228 0 10 0C4.47715 0 0 4.47715 0 10C0 15.5228 4.47715 20 10 20ZM10 17C13.866 17 17 13.866 17 10C17 6.13401 13.866 3 10 3C6.13401 3 3 6.13401 3 10C3 13.866 6.13401 17 10 17Z" fill="#fafbfb"/></g><rect x="61" y="579.5" width="30.5" height="30.5" fill="#efefef"/><g transform="translate(61,579.5) scale(1.525) rotate(0)"><path fill-rule="evenodd" clip-rule="evenodd" d="M10 20C15.5228 20 20 15.5228 20 10C20 4.47715 15.5228 0 10 0C4.47715 0 0 4.47715 0 10C0 15.5228 4.47715 20 10 20ZM10 17C13.866 17 17 13.866 17 10C17 6.13401 13.866 3 10 3C6.13401 3 3 6.13401 3 10C3 13.866 6.13401 17 10 17Z" fill="#dddddf"/></g><rect x="91.5" y="579.5" width="30.5" height="30.5" fill="#f4f6f6"/><g transform="translate(91.5,579.5) scale(1.525) rotate(0)"><path fill-rule="evenodd" clip-rule="evenodd" d="M10 20C15.5228 20 20 15.5228 20 10C20 4.47715 15.5228 0 10 0C4.47715 0 0 4.47715 0 10C0 15.5228 4.47715 20 10 20ZM10 17C13.866 17 17 13.866 17 10C17 6.13401 13.866 3 10 3C6.13401 3 3 6.13401 3 10C3 13.866 6.13401 17 10 17Z" fill="#ededee"/></g><rect x="122" y="549" width="61" height="61" fill="#fcfcfc"/><path d="M 122 610 A 61 61 0 0 1  183 549 L 183 610" fill="#f9f9f9"/><rect x="183" y="549" width="61" height="61" fill="#ffffff"/><rect x="183" y="549" width="30.5" height="30.5" fill="#c9c9cc"/><polygon points="183,549 213.5,579.5 183,579.5" fill="#ebebed"/><rect x="213.5" y="549" width="30.5" height="30.5" fill="#f2f2f3"/><rect x="213.5" y="549" width="30.5" height="30.5" fill="#d8d8db"/><rect x="183" y="579.5" width="30.5" height="30.5" fill="#e5e5e5"/><rect x="183" y="579.5" width="30.5" height="30.5" fill="#f6f6f7"/><rect x="213.5" y="579.5" width="30.5" height="30.5" fill="#fdfcfc"/><polygon points="213.5,579.5 244,579.5 244,610" fill="#fefefe"/><rect x="244" y="549" width="61" height="61" fill="#faf6f6"/><polygon points="244,549 305,549 244,610" fill="#e7e7e8"/><rect x="305" y="549" width="61" height="61" fill="#fdfcfc"/><polygon points="305,549 366,549 305,610" fill="#f4f6f6"/><rect x="366" y="549" width="61" height="61" fill="#fcfdfd"/><g transform="translate(366,549) scale(3.05) rotate(0)"><path fill-rule="evenodd" clip-rule="evenodd" d="M10 20C15.5228 20 20 15.5228 20 10C20 4.47715 15.5228 0 10 0C4.47715 0 0 4.47715 0 10C0 15.5228 4.47715 20 10 20ZM10 17C13.866 17 17 13.866 17 10C17 6.13401 13.866 3 10 3C6.13401 3 3 6.13401 3 10C3 13.866 6.13401 17 10 17Z" fill="#d1d1d4"/></g><rect x="427" y="549" width="61" height="61" fill="#ffffff"/><rect x="427" y="549" width="30.5" height="30.5" fill="#f9f4f4"/><rect x="427" y="549" width="30.5" height="30.5" fill="#e2e2e2"/><rect x="457.5" y="549" width="30.5" height="30.5" fill="#eaeaeb"/><path d="M 457.5 549 A 30.5 30.5 0 0 0 488 579.5 L 488 549" fill="#f0f0f0"/><rect x="427" y="579.5" width="30.5" height="30.5" fill="#f8f8f8"/><g transform="translate(427,579.5) scale(1.525) rotate(0)"><path fill-rule="evenodd" clip-rule="evenodd" d="M10 20C15.5228 20 20 15.5228 20 10C20 4.47715 15.5228 0 10 0C4.47715 0 0 4.47715 0 10C0 15.5228 4.47715 20 10 20ZM10 17C13.866 17 17 13.866 17 10C17 6.13401 13.866 3 10 3C6.13401 3 3 6.13401 3 10C3 13.866 6.13401 17 10 17Z" fill="#e0e0e0"/></g><rect x="457.5" y="579.5" width="30.5" height="30.5" fill="#ededee"/><path d="M 457.5 610 A 30.5 30.5 0 0 1  488 579.5 L 488 610" fill="#e6e6e6"/><rect x="488" y="549" width="61" height="61" fill="#ffffff"/><rect x="488" y="549" width="30.5" height="30.5" fill="#f2f2f3"/><rect x="488" y="549" width="30.5" height="30.5" fill="#fefefe"/><rect x="518.5" y="549" width="30.5" height="30.5" fill="#e5e5e7"/><path d="M 518.5 549 A 30.5 30.5 0 0 1  549 579.5 L 518.5 549 A 30.5 30.5 0 0 0 549 579.5" fill="#fcfcfc"/><rect x="488" y="579.5" width="30.5" height="30.5" fill="#fdfdfd"/><path d="M 488 610 A 30.5 30.5 0 0 1  518.5 579.5 L 518.5 610" fill="#f2f2f2"/><rect x="518.5" y="579.5" width="30.5" height="30.5" fill="#e2e2e4"/><rect x="518.5" y="579.5" width="30.5" height="30.5" fill="#f6f6f6"/><rect x="549" y="549" width="61" height="61" fill="#ffffff"/><rect x="549" y="549" width="30.5" height="30.5" fill="#e1e1e3"/><path d="M 549 549 A 30.5 30.5 0 0 1  579.5 579.5 L 549 549 A 30.5 30.5 0 0 0 579.5 579.5" fill="#fefefe"/><rect x="579.5" y="549" width="30.5" height="30.5" fill="#fafbfb"/><rect x="579.5" y="549" width="30.5" height="30.5" fill="#f8f8f8"/><rect x="549" y="579.5" width="30.5" height="30.5" fill="#faf6f6"/><rect x="549" y="579.5" width="30.5" height="30.5" fill="#dfdfe1"/><rect x="579.5" y="579.5" width="30.5" height="30.5" fill="#fbfbfb"/><polygon points="579.5,579.5 610,610 579.5,610" fill="#fdfdfd"/></g></svg>