<?xml version="1.0" standalone="no"?><svg xmlns:xlink="http://www.w3.org/1999/xlink" xmlns="http://www.w3.org/2000/svg" viewBox="0 0 1000 999.9999999999999" preserveAspectRatio="xMaxYMax slice"><g transform="scale(1.4992503748125936)"><rect x="0" y="0" width="667" height="667" fill="#000000"/><rect x="0" y="0" width="66.7" height="66.7" fill="#000000"/><path d="M 0 0 A 66.7 66.7 0 0 1  66.7 66.7 L 0 0 A 66.7 66.7 0 0 0 66.7 66.7" fill="#0c111c"/><rect x="66.7" y="0" width="66.7" height="66.7" fill="#06080c"/><g transform="translate(66.7,0) scale(3.335) rotate(0)"><path fill-rule="evenodd" clip-rule="evenodd" d="M10 20C15.5228 20 20 15.5228 20 10C20 4.47715 15.5228 0 10 0C4.47715 0 0 4.47715 0 10C0 15.5228 4.47715 20 10 20ZM10 17C13.866 17 17 13.866 17 10C17 6.13401 13.866 3 10 3C6.13401 3 3 6.13401 3 10C3 13.866 6.13401 17 10 17Z" fill="#101624"/></g><rect x="133.4" y="0" width="66.7" height="66.7" fill="#060a12"/><g transform="translate(133.4,0) scale(3.335) rotate(0)"><path fill-rule="evenodd" clip-rule="evenodd" d="M10 20C15.5228 20 20 15.5228 20 10C20 4.47715 15.5228 0 10 0C4.47715 0 0 4.47715 0 10C0 15.5228 4.47715 20 10 20ZM10 17C13.866 17 17 13.866 17 10C17 6.13401 13.866 3 10 3C6.13401 3 3 6.13401 3 10C3 13.866 6.13401 17 10 17Z" fill="#020305"/></g><rect x="200.1" y="0" width="66.7" height="66.7" fill="#000000"/><polygon points="266.8,0 266.8,66.7 200.1,66.7" fill="#000000"/><rect x="266.8" y="0" width="66.7" height="66.7" fill="#000000"/><rect x="266.8" y="0" width="33.35" height="33.35" fill="#0f141d"/><g transform="translate(266.8,0) scale(1.6675) rotate(0)"><path fill-rule="evenodd" clip-rule="evenodd" d="M10 20C15.5228 20 20 15.5228 20 10C20 4.47715 15.5228 0 10 0C4.47715 0 0 4.47715 0 10C0 15.5228 4.47715 20 10 20ZM10 17C13.866 17 17 13.866 17 10C17 6.13401 13.866 3 10 3C6.13401 3 3 6.13401 3 10C3 13.866 6.13401 17 10 17Z" fill="#060a12"/></g><rect x="300.15" y="0" width="33.35" height="33.35" fill="#070b11"/><polygon points="300.15,0 333.5,33.35 300.15,33.35" fill="#070b14"/><rect x="266.8" y="33.35" width="33.35" height="33.35" fill="#06080d"/><polygon points="300.15000000000003,33.35 300.15000000000003,66.7 266.8,66.7" fill="#06090e"/><rect x="300.15" y="33.35" width="33.35" height="33.35" fill="#0f141d"/><polygon points="300.15,33.35 333.5,66.7 300.15,66.7" fill="#030508"/><rect x="333.5" y="0" width="66.7" height="66.7" fill="#000000"/><path d="M 333.5 0 A 66.7 66.7 0 0 1 400.2 66.7 L 333.5 66.7" fill="#0f1523"/><rect x="400.2" y="0" width="66.7" height="66.7" fill="#020306"/><polygon points="400.2,0 466.9,0 400.2,66.7" fill="#05070c"/><rect x="466.9" y="0" width="66.7" height="66.7" fill="#141b27"/><g transform="translate(466.9,0) scale(3.335) rotate(0)"><path fill-rule="evenodd" clip-rule="evenodd" d="M10 20C15.5228 20 20 15.5228 20 10C20 4.47715 15.5228 0 10 0C4.47715 0 0 4.47715 0 10C0 15.5228 4.47715 20 10 20ZM10 17C13.866 17 17 13.866 17 10C17 6.13401 13.866 3 10 3C6.13401 3 3 6.13401 3 10C3 13.866 6.13401 17 10 17Z" fill="#111621"/></g><rect x="533.6" y="0" width="66.7" height="66.7" fill="#000000"/><rect x="533.6" y="0" width="33.35" height="33.35" fill="#070c15"/><g transform="translate(533.6,0) scale(1.6675) rotate(0)"><path fill-rule="evenodd" clip-rule="evenodd" d="M10 20C15.5228 20 20 15.5228 20 10C20 4.47715 15.5228 0 10 0C4.47715 0 0 4.47715 0 10C0 15.5228 4.47715 20 10 20ZM10 17C13.866 17 17 13.866 17 10C17 6.13401 13.866 3 10 3C6.13401 3 3 6.13401 3 10C3 13.866 6.13401 17 10 17Z" fill="#090c12"/></g><rect x="566.95" y="0" width="33.35" height="33.35" fill="#0f151e"/><path d="M 566.95 0 A 33.35 33.35 0 0 1  600.3000000000001 33.35 L 566.95 0 A 33.35 33.35 0 0 0 600.3000000000001 33.35" fill="#020304"/><rect x="533.6" y="33.35" width="33.35" height="33.35" fill="#000000"/><polygon points="533.6,33.35 566.95,33.35 533.6,66.7" fill="#080b11"/><rect x="566.95" y="33.35" width="33.35" height="33.35" fill="#010203"/><path d="M 566.95 33.35 A 33.35 33.35 0 0 0 600.3000000000001 66.7 L 600.3000000000001 33.35" fill="#0b0f18"/><rect x="600.3000000000001" y="0" width="66.7" height="66.7" fill="#000000"/><rect x="600.3" y="0" width="33.35" height="33.35" fill="#000000"/><path d="M 600.3 0 A 33.35 33.35 0 0 1 633.65 33.35 L 600.3 33.35" fill="#000000"/><rect x="633.65" y="0" width="33.35" height="33.35" fill="#000101"/><path d="M 633.65 0 A 33.35 33.35 0 0 1  667 33.35 L 633.65 0 A 33.35 33.35 0 0 0 667 33.35" fill="#04060b"/><rect x="600.3" y="33.35" width="33.35" height="33.35" fill="#000000"/><polygon points="633.65,33.35 633.65,66.7 600.3,66.7" fill="#000101"/><rect x="633.65" y="33.35" width="33.35" height="33.35" fill="#06080e"/><polygon points="633.65,33.35 667,66.7 633.65,66.7" fill="#000000"/><rect x="0" y="66.7" width="66.7" height="66.7" fill="#030508"/><path d="M 0 66.7 A 66.7 66.7 0 0 0 66.7 133.4 L 66.7 66.7" fill="#0f141d"/><rect x="66.7" y="66.7" width="66.7" height="66.7" fill="#04060b"/><g transform="translate(66.7,66.7) scale(3.335) rotate(0)"><path fill-rule="evenodd" clip-rule="evenodd" d="M10 20C15.5228 20 20 15.5228 20 10C20 4.47715 15.5228 0 10 0C4.47715 0 0 4.47715 0 10C0 15.5228 4.47715 20 10 20ZM10 17C13.866 17 17 13.866 17 10C17 6.13401 13.866 3 10 3C6.13401 3 3 6.13401 3 10C3 13.866 6.13401 17 10 17Z" fill="#0a0e14"/></g><rect x="133.4" y="66.7" width="66.7" height="66.7" fill="#000000"/><rect x="133.4" y="66.7" width="33.35" height="33.35" fill="#000000"/><g transform="translate(133.4,66.7) scale(1.6675) rotate(0)"><path fill-rule="evenodd" clip-rule="evenodd" d="M10 20C15.5228 20 20 15.5228 20 10C20 4.47715 15.5228 0 10 0C4.47715 0 0 4.47715 0 10C0 15.5228 4.47715 20 10 20ZM10 17C13.866 17 17 13.866 17 10C17 6.13401 13.866 3 10 3C6.13401 3 3 6.13401 3 10C3 13.866 6.13401 17 10 17Z" fill="#0f1522"/></g><rect x="166.75" y="66.7" width="33.35" height="33.35" fill="#05080e"/><path d="M 166.75 66.7 A 33.35 33.35 0 0 0 200.1 100.05000000000001 L 200.1 66.7" fill="#0e121b"/><rect x="133.4" y="100.05" width="33.35" height="33.35" fill="#000000"/><path d="M 133.4 100.05 A 33.35 33.35 0 0 1 166.75 133.4 L 133.4 133.4" fill="#010203"/><rect x="166.75" y="100.05" width="33.35" height="33.35" fill="#000000"/><polygon points="166.75,100.05 200.1,100.05 166.75,133.4" fill="#0d131e"/><rect x="200.1" y="66.7" width="66.7" height="66.7" fill="#0e131c"/><g transform="translate(200.1,66.7) scale(3.335) rotate(0)"><path fill-rule="evenodd" clip-rule="evenodd" d="M10 20C15.5228 20 20 15.5228 20 10C20 4.47715 15.5228 0 10 0C4.47715 0 0 4.47715 0 10C0 15.5228 4.47715 20 10 20ZM10 17C13.866 17 17 13.866 17 10C17 6.13401 13.866 3 10 3C6.13401 3 3 6.13401 3 10C3 13.866 6.13401 17 10 17Z" fill="#000000"/></g><rect x="266.8" y="66.7" width="66.7" height="66.7" fill="#000000"/><path d="M 266.8 133.4 A 66.7 66.7 0 0 1  333.5 66.7 L 266.8 133.4 A 66.7 66.7 0 0 0 333.5 66.7" fill="#04070c"/><rect x="333.5" y="66.7" width="66.7" height="66.7" fill="#000000"/><polygon points="333.5,66.7 400.2,66.7 333.5,133.4" fill="#000000"/><rect x="400.2" y="66.7" width="66.7" height="66.7" fill="#04070c"/><polygon points="400.2,66.7 466.9,133.4 400.2,133.4" fill="#000000"/><rect x="466.9" y="66.7" width="66.7" height="66.7" fill="#000000"/><path d="M 466.9 66.7 A 66.7 66.7 0 0 1  533.6 133.4 L 466.9 66.7 A 66.7 66.7 0 0 0 533.6 133.4" fill="#0a0d13"/><rect x="533.6" y="66.7" width="66.7" height="66.7" fill="#000000"/><polygon points="533.6,66.7 600.3000000000001,66.7 600.3000000000001,133.4" fill="#000101"/><rect x="600.3000000000001" y="66.7" width="66.7" height="66.7" fill="#000000"/><rect x="600.3" y="66.7" width="33.35" height="33.35" fill="#000000"/><path d="M 600.3 66.7 A 33.35 33.35 0 0 1  633.65 100.05000000000001 L 600.3 66.7 A 33.35 33.35 0 0 0 633.65 100.05000000000001" fill="#030305"/><rect x="633.65" y="66.7" width="33.35" height="33.35" fill="#070c15"/><g transform="translate(633.65,66.7) scale(1.6675) rotate(0)"><path fill-rule="evenodd" clip-rule="evenodd" d="M10 20C15.5228 20 20 15.5228 20 10C20 4.47715 15.5228 0 10 0C4.47715 0 0 4.47715 0 10C0 15.5228 4.47715 20 10 20ZM10 17C13.866 17 17 13.866 17 10C17 6.13401 13.866 3 10 3C6.13401 3 3 6.13401 3 10C3 13.866 6.13401 17 10 17Z" fill="#000000"/></g><rect x="600.3" y="100.05" width="33.35" height="33.35" fill="#0a0e17"/><path d="M 600.3 133.4 A 33.35 33.35 0 0 1  633.65 100.05 L 633.65 133.4" fill="#0d131e"/><rect x="633.65" y="100.05" width="33.35" height="33.35" fill="#000000"/><path d="M 633.65 133.4 A 33.35 33.35 0 0 1  667 100.05 L 633.65 133.4 A 33.35 33.35 0 0 0 667 100.05" fill="#0a0e14"/><rect x="0" y="133.4" width="66.7" height="66.7" fill="#000000"/><rect x="0" y="133.4" width="33.35" height="33.35" fill="#06090d"/><path d="M 0 133.4 A 33.35 33.35 0 0 0 33.35 166.75 L 33.35 133.4" fill="#000000"/><rect x="33.35" y="133.4" width="33.35" height="33.35" fill="#05090f"/><path d="M 33.35 166.75 A 33.35 33.35 0 0 1  66.7 133.4 L 33.35 166.75 A 33.35 33.35 0 0 0 66.7 133.4" fill="#030408"/><rect x="0" y="166.75" width="33.35" height="33.35" fill="#000000"/><polygon points="0,166.75 33.35,166.75 33.35,200.1" fill="#080d16"/><rect x="33.35" y="166.75" width="33.35" height="33.35" fill="#000000"/><path d="M 33.35 166.75 A 33.35 33.35 0 0 1  66.7 200.1 L 33.35 166.75 A 33.35 33.35 0 0 0 66.7 200.1" fill="#0a0e14"/><rect x="66.7" y="133.4" width="66.7" height="66.7" fill="#05070a"/><polygon points="66.7,133.4 133.4,133.4 66.7,200.10000000000002" fill="#000000"/><rect x="133.4" y="133.4" width="66.7" height="66.7" fill="#000000"/><rect x="133.4" y="133.4" width="33.35" height="33.35" fill="#020304"/><path d="M 133.4 133.4 A 33.35 33.35 0 0 1 166.75 166.75 L 133.4 166.75" fill="#030509"/><rect x="166.75" y="133.4" width="33.35" height="33.35" fill="#000000"/><g transform="translate(166.75,133.4) scale(1.6675) rotate(0)"><path fill-rule="evenodd" clip-rule="evenodd" d="M10 20C15.5228 20 20 15.5228 20 10C20 4.47715 15.5228 0 10 0C4.47715 0 0 4.47715 0 10C0 15.5228 4.47715 20 10 20ZM10 17C13.866 17 17 13.866 17 10C17 6.13401 13.866 3 10 3C6.13401 3 3 6.13401 3 10C3 13.866 6.13401 17 10 17Z" fill="#0d121d"/></g><rect x="133.4" y="166.75" width="33.35" height="33.35" fill="#020305"/><g transform="translate(133.4,166.75) scale(1.6675) rotate(0)"><path fill-rule="evenodd" clip-rule="evenodd" d="M10 20C15.5228 20 20 15.5228 20 10C20 4.47715 15.5228 0 10 0C4.47715 0 0 4.47715 0 10C0 15.5228 4.47715 20 10 20ZM10 17C13.866 17 17 13.866 17 10C17 6.13401 13.866 3 10 3C6.13401 3 3 6.13401 3 10C3 13.866 6.13401 17 10 17Z" fill="#000000"/></g><rect x="166.75" y="166.75" width="33.35" height="33.35" fill="#000000"/><g transform="translate(166.75,166.75) scale(1.6675) rotate(0)"><path fill-rule="evenodd" clip-rule="evenodd" d="M10 20C15.5228 20 20 15.5228 20 10C20 4.47715 15.5228 0 10 0C4.47715 0 0 4.47715 0 10C0 15.5228 4.47715 20 10 20ZM10 17C13.866 17 17 13.866 17 10C17 6.13401 13.866 3 10 3C6.13401 3 3 6.13401 3 10C3 13.866 6.13401 17 10 17Z" fill="#000000"/></g><rect x="200.1" y="133.4" width="66.7" height="66.7" fill="#000000"/><polygon points="266.8,133.4 266.8,200.10000000000002 200.1,200.10000000000002" fill="#000101"/><rect x="266.8" y="133.4" width="66.7" height="66.7" fill="#000000"/><path d="M 266.8 200.10000000000002 A 66.7 66.7 0 0 0 333.5 133.4 L 266.8 133.4" fill="#000001"/><rect x="333.5" y="133.4" width="66.7" height="66.7" fill="#000000"/><rect x="333.5" y="133.4" width="33.35" height="33.35" fill="#010101"/><path d="M 333.5 166.75 A 33.35 33.35 0 0 1  366.85 133.4 L 366.85 166.75" fill="#000000"/><rect x="366.85" y="133.4" width="33.35" height="33.35" fill="#000000"/><g transform="translate(366.85,133.4) scale(1.6675) rotate(0)"><path fill-rule="evenodd" clip-rule="evenodd" d="M10 20C15.5228 20 20 15.5228 20 10C20 4.47715 15.5228 0 10 0C4.47715 0 0 4.47715 0 10C0 15.5228 4.47715 20 10 20ZM10 17C13.866 17 17 13.866 17 10C17 6.13401 13.866 3 10 3C6.13401 3 3 6.13401 3 10C3 13.866 6.13401 17 10 17Z" fill="#000000"/></g><rect x="333.5" y="166.75" width="33.35" height="33.35" fill="#020204"/><polygon points="366.85,166.75 366.85,200.1 333.5,200.1" fill="#020305"/><rect x="366.85" y="166.75" width="33.35" height="33.35" fill="#04070d"/><polygon points="366.85,166.75 400.20000000000005,166.75 366.85,200.1" fill="#000001"/><rect x="400.20000000000005" y="133.4" width="66.7" height="66.7" fill="#000000"/><rect x="400.2" y="133.4" width="33.35" height="33.35" fill="#060911"/><g transform="translate(400.2,133.4) scale(1.6675) rotate(0)"><path fill-rule="evenodd" clip-rule="evenodd" d="M10 20C15.5228 20 20 15.5228 20 10C20 4.47715 15.5228 0 10 0C4.47715 0 0 4.47715 0 10C0 15.5228 4.47715 20 10 20ZM10 17C13.866 17 17 13.866 17 10C17 6.13401 13.866 3 10 3C6.13401 3 3 6.13401 3 10C3 13.866 6.13401 17 10 17Z" fill="#090c14"/></g><rect x="433.55" y="133.4" width="33.35" height="33.35" fill="#0e1320"/><g transform="translate(433.55,133.4) scale(1.6675) rotate(0)"><path fill-rule="evenodd" clip-rule="evenodd" d="M10 20C15.5228 20 20 15.5228 20 10C20 4.47715 15.5228 0 10 0C4.47715 0 0 4.47715 0 10C0 15.5228 4.47715 20 10 20ZM10 17C13.866 17 17 13.866 17 10C17 6.13401 13.866 3 10 3C6.13401 3 3 6.13401 3 10C3 13.866 6.13401 17 10 17Z" fill="#010204"/></g><rect x="400.2" y="166.75" width="33.35" height="33.35" fill="#000000"/><path d="M 400.2 200.1 A 33.35 33.35 0 0 1  433.55 166.75 L 433.55 200.1" fill="#0f141e"/><rect x="433.55" y="166.75" width="33.35" height="33.35" fill="#000000"/><g transform="translate(433.55,166.75) scale(1.6675) rotate(0)"><path fill-rule="evenodd" clip-rule="evenodd" d="M10 20C15.5228 20 20 15.5228 20 10C20 4.47715 15.5228 0 10 0C4.47715 0 0 4.47715 0 10C0 15.5228 4.47715 20 10 20ZM10 17C13.866 17 17 13.866 17 10C17 6.13401 13.866 3 10 3C6.13401 3 3 6.13401 3 10C3 13.866 6.13401 17 10 17Z" fill="#020305"/></g><rect x="466.9" y="133.4" width="66.7" height="66.7" fill="#010102"/><polygon points="533.6,133.4 533.6,200.10000000000002 466.9,200.10000000000002" fill="#000000"/><rect x="533.6" y="133.4" width="66.7" height="66.7" fill="#05070b"/><polygon points="600.3000000000001,133.4 600.3000000000001,200.10000000000002 533.6,200.10000000000002" fill="#020305"/><rect x="600.3" y="133.4" width="66.7" height="66.7" fill="#0d131e"/><path d="M 600.3 200.10000000000002 A 66.7 66.7 0 0 1  667 133.4 L 600.3 200.10000000000002 A 66.7 66.7 0 0 0 667 133.4" fill="#040509"/><rect x="0" y="200.1" width="66.7" height="66.7" fill="#070c15"/><g transform="translate(0,200.1) scale(3.335) rotate(0)"><path fill-rule="evenodd" clip-rule="evenodd" d="M10 20C15.5228 20 20 15.5228 20 10C20 4.47715 15.5228 0 10 0C4.47715 0 0 4.47715 0 10C0 15.5228 4.47715 20 10 20ZM10 17C13.866 17 17 13.866 17 10C17 6.13401 13.866 3 10 3C6.13401 3 3 6.13401 3 10C3 13.866 6.13401 17 10 17Z" fill="#0b0e15"/></g><rect x="66.7" y="200.10000000000002" width="66.7" height="66.7" fill="#000000"/><rect x="66.7" y="200.1" width="33.35" height="33.35" fill="#000000"/><polygon points="66.7,200.1 100.05000000000001,233.45 66.7,233.45" fill="#020203"/><rect x="100.05" y="200.1" width="33.35" height="33.35" fill="#131925"/><g transform="translate(100.05,200.1) scale(1.6675) rotate(0)"><path fill-rule="evenodd" clip-rule="evenodd" d="M10 20C15.5228 20 20 15.5228 20 10C20 4.47715 15.5228 0 10 0C4.47715 0 0 4.47715 0 10C0 15.5228 4.47715 20 10 20ZM10 17C13.866 17 17 13.866 17 10C17 6.13401 13.866 3 10 3C6.13401 3 3 6.13401 3 10C3 13.866 6.13401 17 10 17Z" fill="#0e1420"/></g><rect x="66.7" y="233.45" width="33.35" height="33.35" fill="#070a10"/><g transform="translate(66.7,233.45) scale(1.6675) rotate(0)"><path fill-rule="evenodd" clip-rule="evenodd" d="M10 20C15.5228 20 20 15.5228 20 10C20 4.47715 15.5228 0 10 0C4.47715 0 0 4.47715 0 10C0 15.5228 4.47715 20 10 20ZM10 17C13.866 17 17 13.866 17 10C17 6.13401 13.866 3 10 3C6.13401 3 3 6.13401 3 10C3 13.866 6.13401 17 10 17Z" fill="#000000"/></g><rect x="100.05" y="233.45" width="33.35" height="33.35" fill="#141b28"/><polygon points="100.05,233.45 133.4,233.45 133.4,266.8" fill="#090d16"/><rect x="133.4" y="200.1" width="66.7" height="66.7" fill="#0c1018"/><path d="M 133.4 200.1 A 66.7 66.7 0 0 1 200.10000000000002 266.8 L 133.4 266.8" fill="#06080c"/><rect x="200.10000000000002" y="200.10000000000002" width="66.7" height="66.7" fill="#000000"/><rect x="200.1" y="200.1" width="33.35" height="33.35" fill="#0b101a"/><g transform="translate(200.1,200.1) scale(1.6675) rotate(0)"><path fill-rule="evenodd" clip-rule="evenodd" d="M10 20C15.5228 20 20 15.5228 20 10C20 4.47715 15.5228 0 10 0C4.47715 0 0 4.47715 0 10C0 15.5228 4.47715 20 10 20ZM10 17C13.866 17 17 13.866 17 10C17 6.13401 13.866 3 10 3C6.13401 3 3 6.13401 3 10C3 13.866 6.13401 17 10 17Z" fill="#000000"/></g><rect x="233.45" y="200.1" width="33.35" height="33.35" fill="#06090e"/><polygon points="233.45,200.1 266.8,200.1 233.45,233.45" fill="#0a0e14"/><rect x="200.1" y="233.45" width="33.35" height="33.35" fill="#0c111b"/><g transform="translate(200.1,233.45) scale(1.6675) rotate(0)"><path fill-rule="evenodd" clip-rule="evenodd" d="M10 20C15.5228 20 20 15.5228 20 10C20 4.47715 15.5228 0 10 0C4.47715 0 0 4.47715 0 10C0 15.5228 4.47715 20 10 20ZM10 17C13.866 17 17 13.866 17 10C17 6.13401 13.866 3 10 3C6.13401 3 3 6.13401 3 10C3 13.866 6.13401 17 10 17Z" fill="#030408"/></g><rect x="233.45" y="233.45" width="33.35" height="33.35" fill="#0d131e"/><g transform="translate(233.45,233.45) scale(1.6675) rotate(0)"><path fill-rule="evenodd" clip-rule="evenodd" d="M10 20C15.5228 20 20 15.5228 20 10C20 4.47715 15.5228 0 10 0C4.47715 0 0 4.47715 0 10C0 15.5228 4.47715 20 10 20ZM10 17C13.866 17 17 13.866 17 10C17 6.13401 13.866 3 10 3C6.13401 3 3 6.13401 3 10C3 13.866 6.13401 17 10 17Z" fill="#060a11"/></g><rect x="266.8" y="200.1" width="66.7" height="66.7" fill="#05060b"/><path d="M 266.8 266.8 A 66.7 66.7 0 0 1  333.5 200.1 L 333.5 266.8" fill="#000000"/><rect x="333.5" y="200.1" width="66.7" height="66.7" fill="#080b11"/><path d="M 333.5 266.8 A 66.7 66.7 0 0 0 400.2 200.1 L 333.5 200.1" fill="#000000"/><rect x="400.20000000000005" y="200.10000000000002" width="66.7" height="66.7" fill="#000000"/><rect x="400.2" y="200.1" width="33.35" height="33.35" fill="#010101"/><g transform="translate(400.2,200.1) scale(1.6675) rotate(0)"><path fill-rule="evenodd" clip-rule="evenodd" d="M10 20C15.5228 20 20 15.5228 20 10C20 4.47715 15.5228 0 10 0C4.47715 0 0 4.47715 0 10C0 15.5228 4.47715 20 10 20ZM10 17C13.866 17 17 13.866 17 10C17 6.13401 13.866 3 10 3C6.13401 3 3 6.13401 3 10C3 13.866 6.13401 17 10 17Z" fill="#101620"/></g><rect x="433.55" y="200.1" width="33.35" height="33.35" fill="#030509"/><g transform="translate(433.55,200.1) scale(1.6675) rotate(0)"><path fill-rule="evenodd" clip-rule="evenodd" d="M10 20C15.5228 20 20 15.5228 20 10C20 4.47715 15.5228 0 10 0C4.47715 0 0 4.47715 0 10C0 15.5228 4.47715 20 10 20ZM10 17C13.866 17 17 13.866 17 10C17 6.13401 13.866 3 10 3C6.13401 3 3 6.13401 3 10C3 13.866 6.13401 17 10 17Z" fill="#000000"/></g><rect x="400.2" y="233.45" width="33.35" height="33.35" fill="#030508"/><g transform="translate(400.2,233.45) scale(1.6675) rotate(0)"><path fill-rule="evenodd" clip-rule="evenodd" d="M10 20C15.5228 20 20 15.5228 20 10C20 4.47715 15.5228 0 10 0C4.47715 0 0 4.47715 0 10C0 15.5228 4.47715 20 10 20ZM10 17C13.866 17 17 13.866 17 10C17 6.13401 13.866 3 10 3C6.13401 3 3 6.13401 3 10C3 13.866 6.13401 17 10 17Z" fill="#0d121d"/></g><rect x="433.55" y="233.45" width="33.35" height="33.35" fill="#000000"/><polygon points="433.55,233.45 466.90000000000003,266.8 433.55,266.8" fill="#07090f"/><rect x="466.9" y="200.1" width="66.7" height="66.7" fill="#030406"/><polygon points="466.9,200.1 533.6,200.1 466.9,266.8" fill="#020305"/><rect x="533.6" y="200.10000000000002" width="66.7" height="66.7" fill="#000000"/><rect x="533.6" y="200.1" width="33.35" height="33.35" fill="#090d15"/><path d="M 533.6 233.45 A 33.35 33.35 0 0 1  566.95 200.1 L 533.6 233.45 A 33.35 33.35 0 0 0 566.95 200.1" fill="#020304"/><rect x="566.95" y="200.1" width="33.35" height="33.35" fill="#111621"/><g transform="translate(566.95,200.1) scale(1.6675) rotate(0)"><path fill-rule="evenodd" clip-rule="evenodd" d="M10 20C15.5228 20 20 15.5228 20 10C20 4.47715 15.5228 0 10 0C4.47715 0 0 4.47715 0 10C0 15.5228 4.47715 20 10 20ZM10 17C13.866 17 17 13.866 17 10C17 6.13401 13.866 3 10 3C6.13401 3 3 6.13401 3 10C3 13.866 6.13401 17 10 17Z" fill="#000000"/></g><rect x="533.6" y="233.45" width="33.35" height="33.35" fill="#000000"/><polygon points="533.6,233.45 566.95,233.45 566.95,266.8" fill="#010204"/><rect x="566.95" y="233.45" width="33.35" height="33.35" fill="#0f141d"/><path d="M 566.95 266.8 A 33.35 33.35 0 0 1  600.3000000000001 233.45 L 566.95 266.8 A 33.35 33.35 0 0 0 600.3000000000001 233.45" fill="#000000"/><rect x="600.3000000000001" y="200.10000000000002" width="66.7" height="66.7" fill="#000000"/><rect x="600.3" y="200.1" width="33.35" height="33.35" fill="#000000"/><path d="M 600.3 200.1 A 33.35 33.35 0 0 0 633.65 233.45 L 633.65 200.1" fill="#05090f"/><rect x="633.65" y="200.1" width="33.35" height="33.35" fill="#000000"/><path d="M 633.65 200.1 A 33.35 33.35 0 0 1 667 233.45 L 633.65 233.45" fill="#0e1421"/><rect x="600.3" y="233.45" width="33.35" height="33.35" fill="#0e131f"/><polygon points="600.3,233.45 633.65,233.45 633.65,266.8" fill="#000000"/><rect x="633.65" y="233.45" width="33.35" height="33.35" fill="#000000"/><path d="M 633.65 233.45 A 33.35 33.35 0 0 0 667 266.8 L 667 233.45" fill="#000000"/><rect x="0" y="266.8" width="66.7" height="66.7" fill="#000000"/><rect x="0" y="266.8" width="33.35" height="33.35" fill="#0b0f18"/><polygon points="0,266.8 33.35,300.15000000000003 0,300.15000000000003" fill="#05070b"/><rect x="33.35" y="266.8" width="33.35" height="33.35" fill="#000000"/><polygon points="33.35,266.8 66.7,266.8 66.7,300.15000000000003" fill="#070b11"/><rect x="0" y="300.15" width="33.35" height="33.35" fill="#070c15"/><g transform="translate(0,300.15) scale(1.6675) rotate(0)"><path fill-rule="evenodd" clip-rule="evenodd" d="M10 20C15.5228 20 20 15.5228 20 10C20 4.47715 15.5228 0 10 0C4.47715 0 0 4.47715 0 10C0 15.5228 4.47715 20 10 20ZM10 17C13.866 17 17 13.866 17 10C17 6.13401 13.866 3 10 3C6.13401 3 3 6.13401 3 10C3 13.866 6.13401 17 10 17Z" fill="#000000"/></g><rect x="33.35" y="300.15" width="33.35" height="33.35" fill="#0c1018"/><polygon points="33.35,300.15 66.7,300.15 66.7,333.5" fill="#0e121a"/><rect x="66.7" y="266.8" width="66.7" height="66.7" fill="#000000"/><polygon points="66.7,266.8 133.4,266.8 133.4,333.5" fill="#101725"/><rect x="133.4" y="266.8" width="66.7" height="66.7" fill="#000000"/><rect x="133.4" y="266.8" width="33.35" height="33.35" fill="#0e131f"/><polygon points="133.4,266.8 166.75,266.8 166.75,300.15000000000003" fill="#05090f"/><rect x="166.75" y="266.8" width="33.35" height="33.35" fill="#060a13"/><path d="M 166.75 266.8 A 33.35 33.35 0 0 1 200.1 300.15000000000003 L 166.75 300.15000000000003" fill="#05080e"/><rect x="133.4" y="300.15" width="33.35" height="33.35" fill="#080c16"/><polygon points="133.4,300.15 166.75,300.15 166.75,333.5" fill="#000000"/><rect x="166.75" y="300.15" width="33.35" height="33.35" fill="#020204"/><polygon points="166.75,300.15 200.1,333.5 166.75,333.5" fill="#000000"/><rect x="200.10000000000002" y="266.8" width="66.7" height="66.7" fill="#000000"/><rect x="200.1" y="266.8" width="33.35" height="33.35" fill="#000000"/><g transform="translate(200.1,266.8) scale(1.6675) rotate(0)"><path fill-rule="evenodd" clip-rule="evenodd" d="M10 20C15.5228 20 20 15.5228 20 10C20 4.47715 15.5228 0 10 0C4.47715 0 0 4.47715 0 10C0 15.5228 4.47715 20 10 20ZM10 17C13.866 17 17 13.866 17 10C17 6.13401 13.866 3 10 3C6.13401 3 3 6.13401 3 10C3 13.866 6.13401 17 10 17Z" fill="#000001"/></g><rect x="233.45" y="266.8" width="33.35" height="33.35" fill="#0e1320"/><g transform="translate(233.45,266.8) scale(1.6675) rotate(0)"><path fill-rule="evenodd" clip-rule="evenodd" d="M10 20C15.5228 20 20 15.5228 20 10C20 4.47715 15.5228 0 10 0C4.47715 0 0 4.47715 0 10C0 15.5228 4.47715 20 10 20ZM10 17C13.866 17 17 13.866 17 10C17 6.13401 13.866 3 10 3C6.13401 3 3 6.13401 3 10C3 13.866 6.13401 17 10 17Z" fill="#0e1421"/></g><rect x="200.1" y="300.15" width="33.35" height="33.35" fill="#010102"/><polygon points="233.45,300.15 233.45,333.5 200.1,333.5" fill="#000101"/><rect x="233.45" y="300.15" width="33.35" height="33.35" fill="#0e131c"/><polygon points="266.8,300.15 266.8,333.5 233.45,333.5" fill="#05080f"/><rect x="266.8" y="266.8" width="66.7" height="66.7" fill="#000000"/><rect x="266.8" y="266.8" width="33.35" height="33.35" fill="#131a26"/><g transform="translate(266.8,266.8) scale(1.6675) rotate(0)"><path fill-rule="evenodd" clip-rule="evenodd" d="M10 20C15.5228 20 20 15.5228 20 10C20 4.47715 15.5228 0 10 0C4.47715 0 0 4.47715 0 10C0 15.5228 4.47715 20 10 20ZM10 17C13.866 17 17 13.866 17 10C17 6.13401 13.866 3 10 3C6.13401 3 3 6.13401 3 10C3 13.866 6.13401 17 10 17Z" fill="#000000"/></g><rect x="300.15" y="266.8" width="33.35" height="33.35" fill="#020305"/><polygon points="300.15,266.8 333.5,266.8 300.15,300.15000000000003" fill="#000000"/><rect x="266.8" y="300.15" width="33.35" height="33.35" fill="#0b101a"/><path d="M 266.8 300.15 A 33.35 33.35 0 0 1  300.15000000000003 333.5 L 266.8 300.15 A 33.35 33.35 0 0 0 300.15000000000003 333.5" fill="#090d15"/><rect x="300.15" y="300.15" width="33.35" height="33.35" fill="#04070d"/><path d="M 300.15 333.5 A 33.35 33.35 0 0 1  333.5 300.15 L 333.5 333.5" fill="#05090f"/><rect x="333.5" y="266.8" width="66.7" height="66.7" fill="#000000"/><rect x="333.5" y="266.8" width="33.35" height="33.35" fill="#0a0d13"/><path d="M 333.5 300.15000000000003 A 33.35 33.35 0 0 0 366.85 266.8 L 333.5 266.8" fill="#0f131d"/><rect x="366.85" y="266.8" width="33.35" height="33.35" fill="#07090d"/><g transform="translate(366.85,266.8) scale(1.6675) rotate(0)"><path fill-rule="evenodd" clip-rule="evenodd" d="M10 20C15.5228 20 20 15.5228 20 10C20 4.47715 15.5228 0 10 0C4.47715 0 0 4.47715 0 10C0 15.5228 4.47715 20 10 20ZM10 17C13.866 17 17 13.866 17 10C17 6.13401 13.866 3 10 3C6.13401 3 3 6.13401 3 10C3 13.866 6.13401 17 10 17Z" fill="#141a27"/></g><rect x="333.5" y="300.15" width="33.35" height="33.35" fill="#000000"/><polygon points="366.85,300.15 366.85,333.5 333.5,333.5" fill="#000000"/><rect x="366.85" y="300.15" width="33.35" height="33.35" fill="#020304"/><g transform="translate(366.85,300.15) scale(1.6675) rotate(0)"><path fill-rule="evenodd" clip-rule="evenodd" d="M10 20C15.5228 20 20 15.5228 20 10C20 4.47715 15.5228 0 10 0C4.47715 0 0 4.47715 0 10C0 15.5228 4.47715 20 10 20ZM10 17C13.866 17 17 13.866 17 10C17 6.13401 13.866 3 10 3C6.13401 3 3 6.13401 3 10C3 13.866 6.13401 17 10 17Z" fill="#141a27"/></g><rect x="400.20000000000005" y="266.8" width="66.7" height="66.7" fill="#000000"/><rect x="400.2" y="266.8" width="33.35" height="33.35" fill="#05080e"/><g transform="translate(400.2,266.8) scale(1.6675) rotate(0)"><path fill-rule="evenodd" clip-rule="evenodd" d="M10 20C15.5228 20 20 15.5228 20 10C20 4.47715 15.5228 0 10 0C4.47715 0 0 4.47715 0 10C0 15.5228 4.47715 20 10 20ZM10 17C13.866 17 17 13.866 17 10C17 6.13401 13.866 3 10 3C6.13401 3 3 6.13401 3 10C3 13.866 6.13401 17 10 17Z" fill="#030508"/></g><rect x="433.55" y="266.8" width="33.35" height="33.35" fill="#090d13"/><polygon points="433.55,266.8 466.90000000000003,266.8 466.90000000000003,300.15000000000003" fill="#000000"/><rect x="400.2" y="300.15" width="33.35" height="33.35" fill="#0d121e"/><g transform="translate(400.2,300.15) scale(1.6675) rotate(0)"><path fill-rule="evenodd" clip-rule="evenodd" d="M10 20C15.5228 20 20 15.5228 20 10C20 4.47715 15.5228 0 10 0C4.47715 0 0 4.47715 0 10C0 15.5228 4.47715 20 10 20ZM10 17C13.866 17 17 13.866 17 10C17 6.13401 13.866 3 10 3C6.13401 3 3 6.13401 3 10C3 13.866 6.13401 17 10 17Z" fill="#030406"/></g><rect x="433.55" y="300.15" width="33.35" height="33.35" fill="#0c111c"/><path d="M 433.55 300.15 A 33.35 33.35 0 0 0 466.90000000000003 333.5 L 466.90000000000003 300.15" fill="#0c1118"/><rect x="466.90000000000003" y="266.8" width="66.7" height="66.7" fill="#000000"/><rect x="466.9" y="266.8" width="33.35" height="33.35" fill="#000000"/><g transform="translate(466.9,266.8) scale(1.6675) rotate(0)"><path fill-rule="evenodd" clip-rule="evenodd" d="M10 20C15.5228 20 20 15.5228 20 10C20 4.47715 15.5228 0 10 0C4.47715 0 0 4.47715 0 10C0 15.5228 4.47715 20 10 20ZM10 17C13.866 17 17 13.866 17 10C17 6.13401 13.866 3 10 3C6.13401 3 3 6.13401 3 10C3 13.866 6.13401 17 10 17Z" fill="#000000"/></g><rect x="500.25" y="266.8" width="33.35" height="33.35" fill="#080a0f"/><path d="M 500.25 300.15000000000003 A 33.35 33.35 0 0 1  533.6 266.8 L 533.6 300.15000000000003" fill="#000000"/><rect x="466.9" y="300.15" width="33.35" height="33.35" fill="#101725"/><g transform="translate(466.9,300.15) scale(1.6675) rotate(0)"><path fill-rule="evenodd" clip-rule="evenodd" d="M10 20C15.5228 20 20 15.5228 20 10C20 4.47715 15.5228 0 10 0C4.47715 0 0 4.47715 0 10C0 15.5228 4.47715 20 10 20ZM10 17C13.866 17 17 13.866 17 10C17 6.13401 13.866 3 10 3C6.13401 3 3 6.13401 3 10C3 13.866 6.13401 17 10 17Z" fill="#030509"/></g><rect x="500.25" y="300.15" width="33.35" height="33.35" fill="#0c1118"/><g transform="translate(500.25,300.15) scale(1.6675) rotate(0)"><path fill-rule="evenodd" clip-rule="evenodd" d="M10 20C15.5228 20 20 15.5228 20 10C20 4.47715 15.5228 0 10 0C4.47715 0 0 4.47715 0 10C0 15.5228 4.47715 20 10 20ZM10 17C13.866 17 17 13.866 17 10C17 6.13401 13.866 3 10 3C6.13401 3 3 6.13401 3 10C3 13.866 6.13401 17 10 17Z" fill="#030406"/></g><rect x="533.6" y="266.8" width="66.7" height="66.7" fill="#070a0e"/><polygon points="533.6,266.8 600.3000000000001,266.8 533.6,333.5" fill="#101620"/><rect x="600.3000000000001" y="266.8" width="66.7" height="66.7" fill="#000000"/><rect x="600.3" y="266.8" width="33.35" height="33.35" fill="#151c28"/><path d="M 600.3 300.15000000000003 A 33.35 33.35 0 0 1  633.65 266.8 L 600.3 300.15000000000003 A 33.35 33.35 0 0 0 633.65 266.8" fill="#06090f"/><rect x="633.65" y="266.8" width="33.35" height="33.35" fill="#0b101a"/><polygon points="633.65,266.8 667,300.15000000000003 633.65,300.15000000000003" fill="#070b14"/><rect x="600.3" y="300.15" width="33.35" height="33.35" fill="#000101"/><polygon points="600.3,300.15 633.65,333.5 600.3,333.5" fill="#070c15"/><rect x="633.65" y="300.15" width="33.35" height="33.35" fill="#010203"/><path d="M 633.65 300.15 A 33.35 33.35 0 0 1  667 333.5 L 633.65 300.15 A 33.35 33.35 0 0 0 667 333.5" fill="#0f1521"/><rect x="0" y="333.5" width="66.7" height="66.7" fill="#000000"/><rect x="0" y="333.5" width="33.35" height="33.35" fill="#080c16"/><path d="M 0 333.5 A 33.35 33.35 0 0 1  33.35 366.85 L 0 333.5 A 33.35 33.35 0 0 0 33.35 366.85" fill="#0c1018"/><rect x="33.35" y="333.5" width="33.35" height="33.35" fill="#000000"/><g transform="translate(33.35,333.5) scale(1.6675) rotate(0)"><path fill-rule="evenodd" clip-rule="evenodd" d="M10 20C15.5228 20 20 15.5228 20 10C20 4.47715 15.5228 0 10 0C4.47715 0 0 4.47715 0 10C0 15.5228 4.47715 20 10 20ZM10 17C13.866 17 17 13.866 17 10C17 6.13401 13.866 3 10 3C6.13401 3 3 6.13401 3 10C3 13.866 6.13401 17 10 17Z" fill="#000000"/></g><rect x="0" y="366.85" width="33.35" height="33.35" fill="#000000"/><path d="M 0 400.20000000000005 A 33.35 33.35 0 0 0 33.35 366.85 L 0 366.85" fill="#080d17"/><rect x="33.35" y="366.85" width="33.35" height="33.35" fill="#04070c"/><g transform="translate(33.35,366.85) scale(1.6675) rotate(0)"><path fill-rule="evenodd" clip-rule="evenodd" d="M10 20C15.5228 20 20 15.5228 20 10C20 4.47715 15.5228 0 10 0C4.47715 0 0 4.47715 0 10C0 15.5228 4.47715 20 10 20ZM10 17C13.866 17 17 13.866 17 10C17 6.13401 13.866 3 10 3C6.13401 3 3 6.13401 3 10C3 13.866 6.13401 17 10 17Z" fill="#141b28"/></g><rect x="66.7" y="333.5" width="66.7" height="66.7" fill="#000000"/><rect x="66.7" y="333.5" width="33.35" height="33.35" fill="#0e131b"/><path d="M 66.7 366.85 A 33.35 33.35 0 0 0 100.05000000000001 333.5 L 66.7 333.5" fill="#030507"/><rect x="100.05" y="333.5" width="33.35" height="33.35" fill="#0f1623"/><g transform="translate(100.05,333.5) scale(1.6675) rotate(0)"><path fill-rule="evenodd" clip-rule="evenodd" d="M10 20C15.5228 20 20 15.5228 20 10C20 4.47715 15.5228 0 10 0C4.47715 0 0 4.47715 0 10C0 15.5228 4.47715 20 10 20ZM10 17C13.866 17 17 13.866 17 10C17 6.13401 13.866 3 10 3C6.13401 3 3 6.13401 3 10C3 13.866 6.13401 17 10 17Z" fill="#000000"/></g><rect x="66.7" y="366.85" width="33.35" height="33.35" fill="#000000"/><path d="M 66.7 400.20000000000005 A 33.35 33.35 0 0 1  100.05000000000001 366.85 L 100.05000000000001 400.20000000000005" fill="#040609"/><rect x="100.05" y="366.85" width="33.35" height="33.35" fill="#010203"/><path d="M 100.05 400.20000000000005 A 33.35 33.35 0 0 1  133.4 366.85 L 133.4 400.20000000000005" fill="#010204"/><rect x="133.4" y="333.5" width="66.7" height="66.7" fill="#03050a"/><g transform="translate(133.4,333.5) scale(3.335) rotate(0)"><path fill-rule="evenodd" clip-rule="evenodd" d="M10 20C15.5228 20 20 15.5228 20 10C20 4.47715 15.5228 0 10 0C4.47715 0 0 4.47715 0 10C0 15.5228 4.47715 20 10 20ZM10 17C13.866 17 17 13.866 17 10C17 6.13401 13.866 3 10 3C6.13401 3 3 6.13401 3 10C3 13.866 6.13401 17 10 17Z" fill="#000000"/></g><rect x="200.1" y="333.5" width="66.7" height="66.7" fill="#000000"/><polygon points="200.1,333.5 266.8,333.5 200.1,400.2" fill="#010203"/><rect x="266.8" y="333.5" width="66.7" height="66.7" fill="#000000"/><rect x="266.8" y="333.5" width="33.35" height="33.35" fill="#0b0f19"/><polygon points="300.15000000000003,333.5 300.15000000000003,366.85 266.8,366.85" fill="#000000"/><rect x="300.15" y="333.5" width="33.35" height="33.35" fill="#000000"/><polygon points="333.5,333.5 333.5,366.85 300.15,366.85" fill="#000001"/><rect x="266.8" y="366.85" width="33.35" height="33.35" fill="#04070c"/><path d="M 266.8 366.85 A 33.35 33.35 0 0 1 300.15000000000003 400.20000000000005 L 266.8 400.20000000000005" fill="#06080c"/><rect x="300.15" y="366.85" width="33.35" height="33.35" fill="#000000"/><polygon points="300.15,366.85 333.5,366.85 300.15,400.20000000000005" fill="#000000"/><rect x="333.5" y="333.5" width="66.7" height="66.7" fill="#04060b"/><polygon points="400.2,333.5 400.2,400.2 333.5,400.2" fill="#070b13"/><rect x="400.20000000000005" y="333.5" width="66.7" height="66.7" fill="#000000"/><rect x="400.2" y="333.5" width="33.35" height="33.35" fill="#070c14"/><polygon points="400.2,333.5 433.55,333.5 433.55,366.85" fill="#0b1019"/><rect x="433.55" y="333.5" width="33.35" height="33.35" fill="#0e1421"/><polygon points="466.90000000000003,333.5 466.90000000000003,366.85 433.55,366.85" fill="#000000"/><rect x="400.2" y="366.85" width="33.35" height="33.35" fill="#030507"/><g transform="translate(400.2,366.85) scale(1.6675) rotate(0)"><path fill-rule="evenodd" clip-rule="evenodd" d="M10 20C15.5228 20 20 15.5228 20 10C20 4.47715 15.5228 0 10 0C4.47715 0 0 4.47715 0 10C0 15.5228 4.47715 20 10 20ZM10 17C13.866 17 17 13.866 17 10C17 6.13401 13.866 3 10 3C6.13401 3 3 6.13401 3 10C3 13.866 6.13401 17 10 17Z" fill="#020305"/></g><rect x="433.55" y="366.85" width="33.35" height="33.35" fill="#0e131f"/><path d="M 433.55 366.85 A 33.35 33.35 0 0 1  466.90000000000003 400.20000000000005 L 433.55 366.85 A 33.35 33.35 0 0 0 466.90000000000003 400.20000000000005" fill="#030406"/><rect x="466.90000000000003" y="333.5" width="66.7" height="66.7" fill="#000000"/><rect x="466.9" y="333.5" width="33.35" height="33.35" fill="#000000"/><g transform="translate(466.9,333.5) scale(1.6675) rotate(0)"><path fill-rule="evenodd" clip-rule="evenodd" d="M10 20C15.5228 20 20 15.5228 20 10C20 4.47715 15.5228 0 10 0C4.47715 0 0 4.47715 0 10C0 15.5228 4.47715 20 10 20ZM10 17C13.866 17 17 13.866 17 10C17 6.13401 13.866 3 10 3C6.13401 3 3 6.13401 3 10C3 13.866 6.13401 17 10 17Z" fill="#010203"/></g><rect x="500.25" y="333.5" width="33.35" height="33.35" fill="#000000"/><path d="M 500.25 366.85 A 33.35 33.35 0 0 1  533.6 333.5 L 500.25 366.85 A 33.35 33.35 0 0 0 533.6 333.5" fill="#0d1119"/><rect x="466.9" y="366.85" width="33.35" height="33.35" fill="#010102"/><path d="M 466.9 400.20000000000005 A 33.35 33.35 0 0 0 500.25 366.85 L 466.9 366.85" fill="#121823"/><rect x="500.25" y="366.85" width="33.35" height="33.35" fill="#121823"/><polygon points="500.25,366.85 533.6,366.85 500.25,400.20000000000005" fill="#000000"/><rect x="533.6" y="333.5" width="66.7" height="66.7" fill="#000000"/><rect x="533.6" y="333.5" width="33.35" height="33.35" fill="#000000"/><path d="M 533.6 366.85 A 33.35 33.35 0 0 0 566.95 333.5 L 533.6 333.5" fill="#141b27"/><rect x="566.95" y="333.5" width="33.35" height="33.35" fill="#04060b"/><g transform="translate(566.95,333.5) scale(1.6675) rotate(0)"><path fill-rule="evenodd" clip-rule="evenodd" d="M10 20C15.5228 20 20 15.5228 20 10C20 4.47715 15.5228 0 10 0C4.47715 0 0 4.47715 0 10C0 15.5228 4.47715 20 10 20ZM10 17C13.866 17 17 13.866 17 10C17 6.13401 13.866 3 10 3C6.13401 3 3 6.13401 3 10C3 13.866 6.13401 17 10 17Z" fill="#0c1018"/></g><rect x="533.6" y="366.85" width="33.35" height="33.35" fill="#06090f"/><polygon points="533.6,366.85 566.95,400.20000000000005 533.6,400.20000000000005" fill="#04060a"/><rect x="566.95" y="366.85" width="33.35" height="33.35" fill="#080d16"/><g transform="translate(566.95,366.85) scale(1.6675) rotate(0)"><path fill-rule="evenodd" clip-rule="evenodd" d="M10 20C15.5228 20 20 15.5228 20 10C20 4.47715 15.5228 0 10 0C4.47715 0 0 4.47715 0 10C0 15.5228 4.47715 20 10 20ZM10 17C13.866 17 17 13.866 17 10C17 6.13401 13.866 3 10 3C6.13401 3 3 6.13401 3 10C3 13.866 6.13401 17 10 17Z" fill="#020305"/></g><rect x="600.3" y="333.5" width="66.7" height="66.7" fill="#000000"/><g transform="translate(600.3,333.5) scale(3.335) rotate(0)"><path fill-rule="evenodd" clip-rule="evenodd" d="M10 20C15.5228 20 20 15.5228 20 10C20 4.47715 15.5228 0 10 0C4.47715 0 0 4.47715 0 10C0 15.5228 4.47715 20 10 20ZM10 17C13.866 17 17 13.866 17 10C17 6.13401 13.866 3 10 3C6.13401 3 3 6.13401 3 10C3 13.866 6.13401 17 10 17Z" fill="#000000"/></g><rect x="0" y="400.20000000000005" width="66.7" height="66.7" fill="#000000"/><rect x="0" y="400.2" width="33.35" height="33.35" fill="#000000"/><path d="M 0 433.55 A 33.35 33.35 0 0 1  33.35 400.2 L 0 433.55 A 33.35 33.35 0 0 0 33.35 400.2" fill="#060911"/><rect x="33.35" y="400.2" width="33.35" height="33.35" fill="#090d15"/><polygon points="33.35,400.2 66.7,400.2 66.7,433.55" fill="#000101"/><rect x="0" y="433.55" width="33.35" height="33.35" fill="#101725"/><g transform="translate(0,433.55) scale(1.6675) rotate(0)"><path fill-rule="evenodd" clip-rule="evenodd" d="M10 20C15.5228 20 20 15.5228 20 10C20 4.47715 15.5228 0 10 0C4.47715 0 0 4.47715 0 10C0 15.5228 4.47715 20 10 20ZM10 17C13.866 17 17 13.866 17 10C17 6.13401 13.866 3 10 3C6.13401 3 3 6.13401 3 10C3 13.866 6.13401 17 10 17Z" fill="#000000"/></g><rect x="33.35" y="433.55" width="33.35" height="33.35" fill="#000000"/><g transform="translate(33.35,433.55) scale(1.6675) rotate(0)"><path fill-rule="evenodd" clip-rule="evenodd" d="M10 20C15.5228 20 20 15.5228 20 10C20 4.47715 15.5228 0 10 0C4.47715 0 0 4.47715 0 10C0 15.5228 4.47715 20 10 20ZM10 17C13.866 17 17 13.866 17 10C17 6.13401 13.866 3 10 3C6.13401 3 3 6.13401 3 10C3 13.866 6.13401 17 10 17Z" fill="#010203"/></g><rect x="66.7" y="400.2" width="66.7" height="66.7" fill="#060a12"/><path d="M 66.7 466.9 A 66.7 66.7 0 0 0 133.4 400.2 L 66.7 400.2" fill="#030406"/><rect x="133.4" y="400.20000000000005" width="66.7" height="66.7" fill="#000000"/><rect x="133.4" y="400.2" width="33.35" height="33.35" fill="#000000"/><polygon points="166.75,400.2 166.75,433.55 133.4,433.55" fill="#000000"/><rect x="166.75" y="400.2" width="33.35" height="33.35" fill="#06090e"/><path d="M 166.75 433.55 A 33.35 33.35 0 0 1  200.1 400.2 L 166.75 433.55 A 33.35 33.35 0 0 0 200.1 400.2" fill="#080b10"/><rect x="133.4" y="433.55" width="33.35" height="33.35" fill="#010204"/><polygon points="166.75,433.55 166.75,466.90000000000003 133.4,466.90000000000003" fill="#000000"/><rect x="166.75" y="433.55" width="33.35" height="33.35" fill="#07090e"/><polygon points="166.75,433.55 200.1,433.55 200.1,466.90000000000003" fill="#080b12"/><rect x="200.1" y="400.2" width="66.7" height="66.7" fill="#090c12"/><g transform="translate(200.1,400.2) scale(3.335) rotate(0)"><path fill-rule="evenodd" clip-rule="evenodd" d="M10 20C15.5228 20 20 15.5228 20 10C20 4.47715 15.5228 0 10 0C4.47715 0 0 4.47715 0 10C0 15.5228 4.47715 20 10 20ZM10 17C13.866 17 17 13.866 17 10C17 6.13401 13.866 3 10 3C6.13401 3 3 6.13401 3 10C3 13.866 6.13401 17 10 17Z" fill="#000000"/></g><rect x="266.8" y="400.2" width="66.7" height="66.7" fill="#060a12"/><polygon points="333.5,400.2 333.5,466.9 266.8,466.9" fill="#0b101a"/><rect x="333.5" y="400.20000000000005" width="66.7" height="66.7" fill="#000000"/><rect x="333.5" y="400.2" width="33.35" height="33.35" fill="#000000"/><path d="M 333.5 433.55 A 33.35 33.35 0 0 0 366.85 400.2 L 333.5 400.2" fill="#0a0e17"/><rect x="366.85" y="400.2" width="33.35" height="33.35" fill="#080c13"/><g transform="translate(366.85,400.2) scale(1.6675) rotate(0)"><path fill-rule="evenodd" clip-rule="evenodd" d="M10 20C15.5228 20 20 15.5228 20 10C20 4.47715 15.5228 0 10 0C4.47715 0 0 4.47715 0 10C0 15.5228 4.47715 20 10 20ZM10 17C13.866 17 17 13.866 17 10C17 6.13401 13.866 3 10 3C6.13401 3 3 6.13401 3 10C3 13.866 6.13401 17 10 17Z" fill="#020204"/></g><rect x="333.5" y="433.55" width="33.35" height="33.35" fill="#060a12"/><polygon points="333.5,433.55 366.85,433.55 366.85,466.90000000000003" fill="#000000"/><rect x="366.85" y="433.55" width="33.35" height="33.35" fill="#040509"/><polygon points="400.20000000000005,433.55 400.20000000000005,466.90000000000003 366.85,466.90000000000003" fill="#0c1018"/><rect x="400.2" y="400.2" width="66.7" height="66.7" fill="#090c11"/><g transform="translate(400.2,400.2) scale(3.335) rotate(0)"><path fill-rule="evenodd" clip-rule="evenodd" d="M10 20C15.5228 20 20 15.5228 20 10C20 4.47715 15.5228 0 10 0C4.47715 0 0 4.47715 0 10C0 15.5228 4.47715 20 10 20ZM10 17C13.866 17 17 13.866 17 10C17 6.13401 13.866 3 10 3C6.13401 3 3 6.13401 3 10C3 13.866 6.13401 17 10 17Z" fill="#05080d"/></g><rect x="466.9" y="400.2" width="66.7" height="66.7" fill="#04060a"/><polygon points="466.9,400.2 533.6,400.2 533.6,466.9" fill="#05080e"/><rect x="533.6" y="400.2" width="66.7" height="66.7" fill="#000000"/><g transform="translate(533.6,400.2) scale(3.335) rotate(0)"><path fill-rule="evenodd" clip-rule="evenodd" d="M10 20C15.5228 20 20 15.5228 20 10C20 4.47715 15.5228 0 10 0C4.47715 0 0 4.47715 0 10C0 15.5228 4.47715 20 10 20ZM10 17C13.866 17 17 13.866 17 10C17 6.13401 13.866 3 10 3C6.13401 3 3 6.13401 3 10C3 13.866 6.13401 17 10 17Z" fill="#000000"/></g><rect x="600.3" y="400.2" width="66.7" height="66.7" fill="#000000"/><polygon points="667,400.2 667,466.9 600.3,466.9" fill="#151c29"/><rect x="0" y="466.90000000000003" width="66.7" height="66.7" fill="#000000"/><rect x="0" y="466.9" width="33.35" height="33.35" fill="#030508"/><g transform="translate(0,466.9) scale(1.6675) rotate(0)"><path fill-rule="evenodd" clip-rule="evenodd" d="M10 20C15.5228 20 20 15.5228 20 10C20 4.47715 15.5228 0 10 0C4.47715 0 0 4.47715 0 10C0 15.5228 4.47715 20 10 20ZM10 17C13.866 17 17 13.866 17 10C17 6.13401 13.866 3 10 3C6.13401 3 3 6.13401 3 10C3 13.866 6.13401 17 10 17Z" fill="#000000"/></g><rect x="33.35" y="466.9" width="33.35" height="33.35" fill="#000000"/><g transform="translate(33.35,466.9) scale(1.6675) rotate(0)"><path fill-rule="evenodd" clip-rule="evenodd" d="M10 20C15.5228 20 20 15.5228 20 10C20 4.47715 15.5228 0 10 0C4.47715 0 0 4.47715 0 10C0 15.5228 4.47715 20 10 20ZM10 17C13.866 17 17 13.866 17 10C17 6.13401 13.866 3 10 3C6.13401 3 3 6.13401 3 10C3 13.866 6.13401 17 10 17Z" fill="#05090f"/></g><rect x="0" y="500.25" width="33.35" height="33.35" fill="#060b13"/><path d="M 0 533.6 A 33.35 33.35 0 0 1  33.35 500.25 L 0 533.6 A 33.35 33.35 0 0 0 33.35 500.25" fill="#010203"/><rect x="33.35" y="500.25" width="33.35" height="33.35" fill="#000000"/><path d="M 33.35 533.6 A 33.35 33.35 0 0 1  66.7 500.25 L 33.35 533.6 A 33.35 33.35 0 0 0 66.7 500.25" fill="#070b13"/><rect x="66.7" y="466.90000000000003" width="66.7" height="66.7" fill="#000000"/><rect x="66.7" y="466.9" width="33.35" height="33.35" fill="#10151f"/><g transform="translate(66.7,466.9) scale(1.6675) rotate(0)"><path fill-rule="evenodd" clip-rule="evenodd" d="M10 20C15.5228 20 20 15.5228 20 10C20 4.47715 15.5228 0 10 0C4.47715 0 0 4.47715 0 10C0 15.5228 4.47715 20 10 20ZM10 17C13.866 17 17 13.866 17 10C17 6.13401 13.866 3 10 3C6.13401 3 3 6.13401 3 10C3 13.866 6.13401 17 10 17Z" fill="#080d16"/></g><rect x="100.05" y="466.9" width="33.35" height="33.35" fill="#0c101b"/><g transform="translate(100.05,466.9) scale(1.6675) rotate(0)"><path fill-rule="evenodd" clip-rule="evenodd" d="M10 20C15.5228 20 20 15.5228 20 10C20 4.47715 15.5228 0 10 0C4.47715 0 0 4.47715 0 10C0 15.5228 4.47715 20 10 20ZM10 17C13.866 17 17 13.866 17 10C17 6.13401 13.866 3 10 3C6.13401 3 3 6.13401 3 10C3 13.866 6.13401 17 10 17Z" fill="#030408"/></g><rect x="66.7" y="500.25" width="33.35" height="33.35" fill="#000000"/><polygon points="66.7,500.25 100.05000000000001,533.6 66.7,533.6" fill="#090c14"/><rect x="100.05" y="500.25" width="33.35" height="33.35" fill="#070b13"/><path d="M 100.05 533.6 A 33.35 33.35 0 0 1  133.4 500.25 L 100.05 533.6 A 33.35 33.35 0 0 0 133.4 500.25" fill="#111826"/><rect x="133.4" y="466.90000000000003" width="66.7" height="66.7" fill="#000000"/><rect x="133.4" y="466.9" width="33.35" height="33.35" fill="#000000"/><g transform="translate(133.4,466.9) scale(1.6675) rotate(0)"><path fill-rule="evenodd" clip-rule="evenodd" d="M10 20C15.5228 20 20 15.5228 20 10C20 4.47715 15.5228 0 10 0C4.47715 0 0 4.47715 0 10C0 15.5228 4.47715 20 10 20ZM10 17C13.866 17 17 13.866 17 10C17 6.13401 13.866 3 10 3C6.13401 3 3 6.13401 3 10C3 13.866 6.13401 17 10 17Z" fill="#020204"/></g><rect x="166.75" y="466.9" width="33.35" height="33.35" fill="#0a0d13"/><g transform="translate(166.75,466.9) scale(1.6675) rotate(0)"><path fill-rule="evenodd" clip-rule="evenodd" d="M10 20C15.5228 20 20 15.5228 20 10C20 4.47715 15.5228 0 10 0C4.47715 0 0 4.47715 0 10C0 15.5228 4.47715 20 10 20ZM10 17C13.866 17 17 13.866 17 10C17 6.13401 13.866 3 10 3C6.13401 3 3 6.13401 3 10C3 13.866 6.13401 17 10 17Z" fill="#020304"/></g><rect x="133.4" y="500.25" width="33.35" height="33.35" fill="#000000"/><g transform="translate(133.4,500.25) scale(1.6675) rotate(0)"><path fill-rule="evenodd" clip-rule="evenodd" d="M10 20C15.5228 20 20 15.5228 20 10C20 4.47715 15.5228 0 10 0C4.47715 0 0 4.47715 0 10C0 15.5228 4.47715 20 10 20ZM10 17C13.866 17 17 13.866 17 10C17 6.13401 13.866 3 10 3C6.13401 3 3 6.13401 3 10C3 13.866 6.13401 17 10 17Z" fill="#040608"/></g><rect x="166.75" y="500.25" width="33.35" height="33.35" fill="#000000"/><g transform="translate(166.75,500.25) scale(1.6675) rotate(0)"><path fill-rule="evenodd" clip-rule="evenodd" d="M10 20C15.5228 20 20 15.5228 20 10C20 4.47715 15.5228 0 10 0C4.47715 0 0 4.47715 0 10C0 15.5228 4.47715 20 10 20ZM10 17C13.866 17 17 13.866 17 10C17 6.13401 13.866 3 10 3C6.13401 3 3 6.13401 3 10C3 13.866 6.13401 17 10 17Z" fill="#010102"/></g><rect x="200.10000000000002" y="466.90000000000003" width="66.7" height="66.7" fill="#000000"/><rect x="200.1" y="466.9" width="33.35" height="33.35" fill="#090d15"/><g transform="translate(200.1,466.9) scale(1.6675) rotate(0)"><path fill-rule="evenodd" clip-rule="evenodd" d="M10 20C15.5228 20 20 15.5228 20 10C20 4.47715 15.5228 0 10 0C4.47715 0 0 4.47715 0 10C0 15.5228 4.47715 20 10 20ZM10 17C13.866 17 17 13.866 17 10C17 6.13401 13.866 3 10 3C6.13401 3 3 6.13401 3 10C3 13.866 6.13401 17 10 17Z" fill="#0d1118"/></g><rect x="233.45" y="466.9" width="33.35" height="33.35" fill="#000000"/><g transform="translate(233.45,466.9) scale(1.6675) rotate(0)"><path fill-rule="evenodd" clip-rule="evenodd" d="M10 20C15.5228 20 20 15.5228 20 10C20 4.47715 15.5228 0 10 0C4.47715 0 0 4.47715 0 10C0 15.5228 4.47715 20 10 20ZM10 17C13.866 17 17 13.866 17 10C17 6.13401 13.866 3 10 3C6.13401 3 3 6.13401 3 10C3 13.866 6.13401 17 10 17Z" fill="#0f1521"/></g><rect x="200.1" y="500.25" width="33.35" height="33.35" fill="#000000"/><g transform="translate(200.1,500.25) scale(1.6675) rotate(0)"><path fill-rule="evenodd" clip-rule="evenodd" d="M10 20C15.5228 20 20 15.5228 20 10C20 4.47715 15.5228 0 10 0C4.47715 0 0 4.47715 0 10C0 15.5228 4.47715 20 10 20ZM10 17C13.866 17 17 13.866 17 10C17 6.13401 13.866 3 10 3C6.13401 3 3 6.13401 3 10C3 13.866 6.13401 17 10 17Z" fill="#030508"/></g><rect x="233.45" y="500.25" width="33.35" height="33.35" fill="#000000"/><g transform="translate(233.45,500.25) scale(1.6675) rotate(0)"><path fill-rule="evenodd" clip-rule="evenodd" d="M10 20C15.5228 20 20 15.5228 20 10C20 4.47715 15.5228 0 10 0C4.47715 0 0 4.47715 0 10C0 15.5228 4.47715 20 10 20ZM10 17C13.866 17 17 13.866 17 10C17 6.13401 13.866 3 10 3C6.13401 3 3 6.13401 3 10C3 13.866 6.13401 17 10 17Z" fill="#080d16"/></g><rect x="266.8" y="466.90000000000003" width="66.7" height="66.7" fill="#000000"/><rect x="266.8" y="466.9" width="33.35" height="33.35" fill="#101725"/><path d="M 266.8 466.9 A 33.35 33.35 0 0 1 300.15000000000003 500.25 L 266.8 500.25" fill="#06080c"/><rect x="300.15" y="466.9" width="33.35" height="33.35" fill="#030405"/><path d="M 300.15 466.9 A 33.35 33.35 0 0 1 333.5 500.25 L 300.15 500.25" fill="#090d15"/><rect x="266.8" y="500.25" width="33.35" height="33.35" fill="#0a0e16"/><polygon points="300.15000000000003,500.25 300.15000000000003,533.6 266.8,533.6" fill="#030407"/><rect x="300.15" y="500.25" width="33.35" height="33.35" fill="#0b0e15"/><g transform="translate(300.15,500.25) scale(1.6675) rotate(0)"><path fill-rule="evenodd" clip-rule="evenodd" d="M10 20C15.5228 20 20 15.5228 20 10C20 4.47715 15.5228 0 10 0C4.47715 0 0 4.47715 0 10C0 15.5228 4.47715 20 10 20ZM10 17C13.866 17 17 13.866 17 10C17 6.13401 13.866 3 10 3C6.13401 3 3 6.13401 3 10C3 13.866 6.13401 17 10 17Z" fill="#0f1523"/></g><rect x="333.5" y="466.90000000000003" width="66.7" height="66.7" fill="#000000"/><rect x="333.5" y="466.9" width="33.35" height="33.35" fill="#000000"/><g transform="translate(333.5,466.9) scale(1.6675) rotate(0)"><path fill-rule="evenodd" clip-rule="evenodd" d="M10 20C15.5228 20 20 15.5228 20 10C20 4.47715 15.5228 0 10 0C4.47715 0 0 4.47715 0 10C0 15.5228 4.47715 20 10 20ZM10 17C13.866 17 17 13.866 17 10C17 6.13401 13.866 3 10 3C6.13401 3 3 6.13401 3 10C3 13.866 6.13401 17 10 17Z" fill="#000000"/></g><rect x="366.85" y="466.9" width="33.35" height="33.35" fill="#06080e"/><polygon points="366.85,466.9 400.20000000000005,466.9 400.20000000000005,500.25" fill="#020304"/><rect x="333.5" y="500.25" width="33.35" height="33.35" fill="#141b28"/><g transform="translate(333.5,500.25) scale(1.6675) rotate(0)"><path fill-rule="evenodd" clip-rule="evenodd" d="M10 20C15.5228 20 20 15.5228 20 10C20 4.47715 15.5228 0 10 0C4.47715 0 0 4.47715 0 10C0 15.5228 4.47715 20 10 20ZM10 17C13.866 17 17 13.866 17 10C17 6.13401 13.866 3 10 3C6.13401 3 3 6.13401 3 10C3 13.866 6.13401 17 10 17Z" fill="#05070d"/></g><rect x="366.85" y="500.25" width="33.35" height="33.35" fill="#000000"/><polygon points="366.85,500.25 400.20000000000005,500.25 366.85,533.6" fill="#000000"/><rect x="400.2" y="466.9" width="66.7" height="66.7" fill="#000000"/><g transform="translate(400.2,466.9) scale(3.335) rotate(0)"><path fill-rule="evenodd" clip-rule="evenodd" d="M10 20C15.5228 20 20 15.5228 20 10C20 4.47715 15.5228 0 10 0C4.47715 0 0 4.47715 0 10C0 15.5228 4.47715 20 10 20ZM10 17C13.866 17 17 13.866 17 10C17 6.13401 13.866 3 10 3C6.13401 3 3 6.13401 3 10C3 13.866 6.13401 17 10 17Z" fill="#020304"/></g><rect x="466.90000000000003" y="466.90000000000003" width="66.7" height="66.7" fill="#000000"/><rect x="466.9" y="466.9" width="33.35" height="33.35" fill="#0d1118"/><path d="M 466.9 466.9 A 33.35 33.35 0 0 1  500.25 500.25 L 466.9 466.9 A 33.35 33.35 0 0 0 500.25 500.25" fill="#000000"/><rect x="500.25" y="466.9" width="33.35" height="33.35" fill="#0e1421"/><path d="M 500.25 500.25 A 33.35 33.35 0 0 1  533.6 466.9 L 533.6 500.25" fill="#030408"/><rect x="466.9" y="500.25" width="33.35" height="33.35" fill="#000000"/><g transform="translate(466.9,500.25) scale(1.6675) rotate(0)"><path fill-rule="evenodd" clip-rule="evenodd" d="M10 20C15.5228 20 20 15.5228 20 10C20 4.47715 15.5228 0 10 0C4.47715 0 0 4.47715 0 10C0 15.5228 4.47715 20 10 20ZM10 17C13.866 17 17 13.866 17 10C17 6.13401 13.866 3 10 3C6.13401 3 3 6.13401 3 10C3 13.866 6.13401 17 10 17Z" fill="#080b10"/></g><rect x="500.25" y="500.25" width="33.35" height="33.35" fill="#000000"/><path d="M 500.25 500.25 A 33.35 33.35 0 0 1 533.6 533.6 L 500.25 533.6" fill="#070c15"/><rect x="533.6" y="466.90000000000003" width="66.7" height="66.7" fill="#000000"/><rect x="533.6" y="466.9" width="33.35" height="33.35" fill="#0f141e"/><g transform="translate(533.6,466.9) scale(1.6675) rotate(0)"><path fill-rule="evenodd" clip-rule="evenodd" d="M10 20C15.5228 20 20 15.5228 20 10C20 4.47715 15.5228 0 10 0C4.47715 0 0 4.47715 0 10C0 15.5228 4.47715 20 10 20ZM10 17C13.866 17 17 13.866 17 10C17 6.13401 13.866 3 10 3C6.13401 3 3 6.13401 3 10C3 13.866 6.13401 17 10 17Z" fill="#0c101b"/></g><rect x="566.95" y="466.9" width="33.35" height="33.35" fill="#000000"/><path d="M 566.95 500.25 A 33.35 33.35 0 0 1  600.3000000000001 466.9 L 600.3000000000001 500.25" fill="#060a12"/><rect x="533.6" y="500.25" width="33.35" height="33.35" fill="#000000"/><polygon points="533.6,500.25 566.95,500.25 533.6,533.6" fill="#010102"/><rect x="566.95" y="500.25" width="33.35" height="33.35" fill="#000000"/><g transform="translate(566.95,500.25) scale(1.6675) rotate(0)"><path fill-rule="evenodd" clip-rule="evenodd" d="M10 20C15.5228 20 20 15.5228 20 10C20 4.47715 15.5228 0 10 0C4.47715 0 0 4.47715 0 10C0 15.5228 4.47715 20 10 20ZM10 17C13.866 17 17 13.866 17 10C17 6.13401 13.866 3 10 3C6.13401 3 3 6.13401 3 10C3 13.866 6.13401 17 10 17Z" fill="#020305"/></g><rect x="600.3" y="466.9" width="66.7" height="66.7" fill="#020406"/><g transform="translate(600.3,466.9) scale(3.335) rotate(0)"><path fill-rule="evenodd" clip-rule="evenodd" d="M10 20C15.5228 20 20 15.5228 20 10C20 4.47715 15.5228 0 10 0C4.47715 0 0 4.47715 0 10C0 15.5228 4.47715 20 10 20ZM10 17C13.866 17 17 13.866 17 10C17 6.13401 13.866 3 10 3C6.13401 3 3 6.13401 3 10C3 13.866 6.13401 17 10 17Z" fill="#000000"/></g><rect x="0" y="533.6" width="66.7" height="66.7" fill="#000000"/><path d="M 0 600.3000000000001 A 66.7 66.7 0 0 0 66.7 533.6 L 0 533.6" fill="#020407"/><rect x="66.7" y="533.6" width="66.7" height="66.7" fill="#000000"/><path d="M 66.7 533.6 A 66.7 66.7 0 0 1  133.4 600.3000000000001 L 66.7 533.6 A 66.7 66.7 0 0 0 133.4 600.3000000000001" fill="#111722"/><rect x="133.4" y="533.6" width="66.7" height="66.7" fill="#000000"/><polygon points="133.4,533.6 200.10000000000002,533.6 200.10000000000002,600.3000000000001" fill="#04060a"/><rect x="200.10000000000002" y="533.6" width="66.7" height="66.7" fill="#000000"/><rect x="200.1" y="533.6" width="33.35" height="33.35" fill="#000000"/><polygon points="200.1,533.6 233.45,566.95 200.1,566.95" fill="#020304"/><rect x="233.45" y="533.6" width="33.35" height="33.35" fill="#000000"/><polygon points="233.45,533.6 266.8,533.6 266.8,566.95" fill="#121823"/><rect x="200.1" y="566.95" width="33.35" height="33.35" fill="#060911"/><g transform="translate(200.1,566.95) scale(1.6675) rotate(0)"><path fill-rule="evenodd" clip-rule="evenodd" d="M10 20C15.5228 20 20 15.5228 20 10C20 4.47715 15.5228 0 10 0C4.47715 0 0 4.47715 0 10C0 15.5228 4.47715 20 10 20ZM10 17C13.866 17 17 13.866 17 10C17 6.13401 13.866 3 10 3C6.13401 3 3 6.13401 3 10C3 13.866 6.13401 17 10 17Z" fill="#000000"/></g><rect x="233.45" y="566.95" width="33.35" height="33.35" fill="#000000"/><path d="M 233.45 566.95 A 33.35 33.35 0 0 0 266.8 600.3000000000001 L 266.8 566.95" fill="#010204"/><rect x="266.8" y="533.6" width="66.7" height="66.7" fill="#000000"/><rect x="266.8" y="533.6" width="33.35" height="33.35" fill="#010203"/><g transform="translate(266.8,533.6) scale(1.6675) rotate(0)"><path fill-rule="evenodd" clip-rule="evenodd" d="M10 20C15.5228 20 20 15.5228 20 10C20 4.47715 15.5228 0 10 0C4.47715 0 0 4.47715 0 10C0 15.5228 4.47715 20 10 20ZM10 17C13.866 17 17 13.866 17 10C17 6.13401 13.866 3 10 3C6.13401 3 3 6.13401 3 10C3 13.866 6.13401 17 10 17Z" fill="#010102"/></g><rect x="300.15" y="533.6" width="33.35" height="33.35" fill="#000000"/><g transform="translate(300.15,533.6) scale(1.6675) rotate(0)"><path fill-rule="evenodd" clip-rule="evenodd" d="M10 20C15.5228 20 20 15.5228 20 10C20 4.47715 15.5228 0 10 0C4.47715 0 0 4.47715 0 10C0 15.5228 4.47715 20 10 20ZM10 17C13.866 17 17 13.866 17 10C17 6.13401 13.866 3 10 3C6.13401 3 3 6.13401 3 10C3 13.866 6.13401 17 10 17Z" fill="#0d121a"/></g><rect x="266.8" y="566.95" width="33.35" height="33.35" fill="#111721"/><path d="M 266.8 600.3000000000001 A 33.35 33.35 0 0 1  300.15000000000003 566.95 L 300.15000000000003 600.3000000000001" fill="#06080e"/><rect x="300.15" y="566.95" width="33.35" height="33.35" fill="#000000"/><g transform="translate(300.15,566.95) scale(1.6675) rotate(0)"><path fill-rule="evenodd" clip-rule="evenodd" d="M10 20C15.5228 20 20 15.5228 20 10C20 4.47715 15.5228 0 10 0C4.47715 0 0 4.47715 0 10C0 15.5228 4.47715 20 10 20ZM10 17C13.866 17 17 13.866 17 10C17 6.13401 13.866 3 10 3C6.13401 3 3 6.13401 3 10C3 13.866 6.13401 17 10 17Z" fill="#101726"/></g><rect x="333.5" y="533.6" width="66.7" height="66.7" fill="#000000"/><rect x="333.5" y="533.6" width="33.35" height="33.35" fill="#0c1018"/><g transform="translate(333.5,533.6) scale(1.6675) rotate(0)"><path fill-rule="evenodd" clip-rule="evenodd" d="M10 20C15.5228 20 20 15.5228 20 10C20 4.47715 15.5228 0 10 0C4.47715 0 0 4.47715 0 10C0 15.5228 4.47715 20 10 20ZM10 17C13.866 17 17 13.866 17 10C17 6.13401 13.866 3 10 3C6.13401 3 3 6.13401 3 10C3 13.866 6.13401 17 10 17Z" fill="#06080d"/></g><rect x="366.85" y="533.6" width="33.35" height="33.35" fill="#010203"/><path d="M 366.85 566.95 A 33.35 33.35 0 0 0 400.20000000000005 533.6 L 366.85 533.6" fill="#000000"/><rect x="333.5" y="566.95" width="33.35" height="33.35" fill="#030508"/><polygon points="333.5,566.95 366.85,566.95 366.85,600.3000000000001" fill="#090d15"/><rect x="366.85" y="566.95" width="33.35" height="33.35" fill="#000000"/><g transform="translate(366.85,566.95) scale(1.6675) rotate(0)"><path fill-rule="evenodd" clip-rule="evenodd" d="M10 20C15.5228 20 20 15.5228 20 10C20 4.47715 15.5228 0 10 0C4.47715 0 0 4.47715 0 10C0 15.5228 4.47715 20 10 20ZM10 17C13.866 17 17 13.866 17 10C17 6.13401 13.866 3 10 3C6.13401 3 3 6.13401 3 10C3 13.866 6.13401 17 10 17Z" fill="#040508"/></g><rect x="400.20000000000005" y="533.6" width="66.7" height="66.7" fill="#000000"/><rect x="400.2" y="533.6" width="33.35" height="33.35" fill="#0c111c"/><path d="M 400.2 533.6 A 33.35 33.35 0 0 1  433.55 566.95 L 400.2 533.6 A 33.35 33.35 0 0 0 433.55 566.95" fill="#0c1018"/><rect x="433.55" y="533.6" width="33.35" height="33.35" fill="#101624"/><g transform="translate(433.55,533.6) scale(1.6675) rotate(0)"><path fill-rule="evenodd" clip-rule="evenodd" d="M10 20C15.5228 20 20 15.5228 20 10C20 4.47715 15.5228 0 10 0C4.47715 0 0 4.47715 0 10C0 15.5228 4.47715 20 10 20ZM10 17C13.866 17 17 13.866 17 10C17 6.13401 13.866 3 10 3C6.13401 3 3 6.13401 3 10C3 13.866 6.13401 17 10 17Z" fill="#141b28"/></g><rect x="400.2" y="566.95" width="33.35" height="33.35" fill="#000000"/><polygon points="400.2,566.95 433.55,566.95 433.55,600.3000000000001" fill="#141a27"/><rect x="433.55" y="566.95" width="33.35" height="33.35" fill="#05070c"/><g transform="translate(433.55,566.95) scale(1.6675) rotate(0)"><path fill-rule="evenodd" clip-rule="evenodd" d="M10 20C15.5228 20 20 15.5228 20 10C20 4.47715 15.5228 0 10 0C4.47715 0 0 4.47715 0 10C0 15.5228 4.47715 20 10 20ZM10 17C13.866 17 17 13.866 17 10C17 6.13401 13.866 3 10 3C6.13401 3 3 6.13401 3 10C3 13.866 6.13401 17 10 17Z" fill="#000000"/></g><rect x="466.9" y="533.6" width="66.7" height="66.7" fill="#040508"/><g transform="translate(466.9,533.6) scale(3.335) rotate(0)"><path fill-rule="evenodd" clip-rule="evenodd" d="M10 20C15.5228 20 20 15.5228 20 10C20 4.47715 15.5228 0 10 0C4.47715 0 0 4.47715 0 10C0 15.5228 4.47715 20 10 20ZM10 17C13.866 17 17 13.866 17 10C17 6.13401 13.866 3 10 3C6.13401 3 3 6.13401 3 10C3 13.866 6.13401 17 10 17Z" fill="#010204"/></g><rect x="533.6" y="533.6" width="66.7" height="66.7" fill="#000000"/><rect x="533.6" y="533.6" width="33.35" height="33.35" fill="#070a10"/><g transform="translate(533.6,533.6) scale(1.6675) rotate(0)"><path fill-rule="evenodd" clip-rule="evenodd" d="M10 20C15.5228 20 20 15.5228 20 10C20 4.47715 15.5228 0 10 0C4.47715 0 0 4.47715 0 10C0 15.5228 4.47715 20 10 20ZM10 17C13.866 17 17 13.866 17 10C17 6.13401 13.866 3 10 3C6.13401 3 3 6.13401 3 10C3 13.866 6.13401 17 10 17Z" fill="#010203"/></g><rect x="566.95" y="533.6" width="33.35" height="33.35" fill="#000101"/><g transform="translate(566.95,533.6) scale(1.6675) rotate(0)"><path fill-rule="evenodd" clip-rule="evenodd" d="M10 20C15.5228 20 20 15.5228 20 10C20 4.47715 15.5228 0 10 0C4.47715 0 0 4.47715 0 10C0 15.5228 4.47715 20 10 20ZM10 17C13.866 17 17 13.866 17 10C17 6.13401 13.866 3 10 3C6.13401 3 3 6.13401 3 10C3 13.866 6.13401 17 10 17Z" fill="#000000"/></g><rect x="533.6" y="566.95" width="33.35" height="33.35" fill="#04070c"/><path d="M 533.6 600.3000000000001 A 33.35 33.35 0 0 1  566.95 566.95 L 533.6 600.3000000000001 A 33.35 33.35 0 0 0 566.95 566.95" fill="#0c0f17"/><rect x="566.95" y="566.95" width="33.35" height="33.35" fill="#141b27"/><path d="M 566.95 566.95 A 33.35 33.35 0 0 1  600.3000000000001 600.3000000000001 L 566.95 566.95 A 33.35 33.35 0 0 0 600.3000000000001 600.3000000000001" fill="#000000"/><rect x="600.3" y="533.6" width="66.7" height="66.7" fill="#000000"/><path d="M 600.3 600.3000000000001 A 66.7 66.7 0 0 1  667 533.6 L 667 600.3000000000001" fill="#080a0f"/><rect x="0" y="600.3" width="66.7" height="66.7" fill="#000000"/><g transform="translate(0,600.3) scale(3.335) rotate(0)"><path fill-rule="evenodd" clip-rule="evenodd" d="M10 20C15.5228 20 20 15.5228 20 10C20 4.47715 15.5228 0 10 0C4.47715 0 0 4.47715 0 10C0 15.5228 4.47715 20 10 20ZM10 17C13.866 17 17 13.866 17 10C17 6.13401 13.866 3 10 3C6.13401 3 3 6.13401 3 10C3 13.866 6.13401 17 10 17Z" fill="#060911"/></g><rect x="66.7" y="600.3" width="66.7" height="66.7" fill="#000000"/><g transform="translate(66.7,600.3) scale(3.335) rotate(0)"><path fill-rule="evenodd" clip-rule="evenodd" d="M10 20C15.5228 20 20 15.5228 20 10C20 4.47715 15.5228 0 10 0C4.47715 0 0 4.47715 0 10C0 15.5228 4.47715 20 10 20ZM10 17C13.866 17 17 13.866 17 10C17 6.13401 13.866 3 10 3C6.13401 3 3 6.13401 3 10C3 13.866 6.13401 17 10 17Z" fill="#080b11"/></g><rect x="133.4" y="600.3000000000001" width="66.7" height="66.7" fill="#000000"/><rect x="133.4" y="600.3" width="33.35" height="33.35" fill="#05070a"/><path d="M 133.4 633.65 A 33.35 33.35 0 0 0 166.75 600.3 L 133.4 600.3" fill="#000000"/><rect x="166.75" y="600.3" width="33.35" height="33.35" fill="#000000"/><path d="M 166.75 633.65 A 33.35 33.35 0 0 1  200.1 600.3 L 166.75 633.65 A 33.35 33.35 0 0 0 200.1 600.3" fill="#151c29"/><rect x="133.4" y="633.65" width="33.35" height="33.35" fill="#07090f"/><path d="M 133.4 633.65 A 33.35 33.35 0 0 1 166.75 667 L 133.4 667" fill="#000000"/><rect x="166.75" y="633.65" width="33.35" height="33.35" fill="#010102"/><polygon points="200.1,633.65 200.1,667 166.75,667" fill="#090d15"/><rect x="200.10000000000002" y="600.3000000000001" width="66.7" height="66.7" fill="#000000"/><rect x="200.1" y="600.3" width="33.35" height="33.35" fill="#0c1017"/><polygon points="233.45,600.3 233.45,633.65 200.1,633.65" fill="#06070b"/><rect x="233.45" y="600.3" width="33.35" height="33.35" fill="#010102"/><path d="M 233.45 600.3 A 33.35 33.35 0 0 0 266.8 633.65 L 266.8 600.3" fill="#000000"/><rect x="200.1" y="633.65" width="33.35" height="33.35" fill="#151c28"/><path d="M 200.1 633.65 A 33.35 33.35 0 0 1  233.45 667 L 200.1 633.65 A 33.35 33.35 0 0 0 233.45 667" fill="#000000"/><rect x="233.45" y="633.65" width="33.35" height="33.35" fill="#0e131c"/><polygon points="233.45,633.65 266.8,633.65 233.45,667" fill="#000000"/><rect x="266.8" y="600.3" width="66.7" height="66.7" fill="#000000"/><g transform="translate(266.8,600.3) scale(3.335) rotate(0)"><path fill-rule="evenodd" clip-rule="evenodd" d="M10 20C15.5228 20 20 15.5228 20 10C20 4.47715 15.5228 0 10 0C4.47715 0 0 4.47715 0 10C0 15.5228 4.47715 20 10 20ZM10 17C13.866 17 17 13.866 17 10C17 6.13401 13.866 3 10 3C6.13401 3 3 6.13401 3 10C3 13.866 6.13401 17 10 17Z" fill="#000000"/></g><rect x="333.5" y="600.3" width="66.7" height="66.7" fill="#020305"/><polygon points="400.2,600.3 400.2,667 333.5,667" fill="#000000"/><rect x="400.2" y="600.3" width="66.7" height="66.7" fill="#06090e"/><g transform="translate(400.2,600.3) scale(3.335) rotate(0)"><path fill-rule="evenodd" clip-rule="evenodd" d="M10 20C15.5228 20 20 15.5228 20 10C20 4.47715 15.5228 0 10 0C4.47715 0 0 4.47715 0 10C0 15.5228 4.47715 20 10 20ZM10 17C13.866 17 17 13.866 17 10C17 6.13401 13.866 3 10 3C6.13401 3 3 6.13401 3 10C3 13.866 6.13401 17 10 17Z" fill="#000000"/></g><rect x="466.90000000000003" y="600.3000000000001" width="66.7" height="66.7" fill="#000000"/><rect x="466.9" y="600.3" width="33.35" height="33.35" fill="#080c13"/><g transform="translate(466.9,600.3) scale(1.6675) rotate(0)"><path fill-rule="evenodd" clip-rule="evenodd" d="M10 20C15.5228 20 20 15.5228 20 10C20 4.47715 15.5228 0 10 0C4.47715 0 0 4.47715 0 10C0 15.5228 4.47715 20 10 20ZM10 17C13.866 17 17 13.866 17 10C17 6.13401 13.866 3 10 3C6.13401 3 3 6.13401 3 10C3 13.866 6.13401 17 10 17Z" fill="#020304"/></g><rect x="500.25" y="600.3" width="33.35" height="33.35" fill="#030406"/><polygon points="500.25,600.3 533.6,600.3 500.25,633.65" fill="#000000"/><rect x="466.9" y="633.65" width="33.35" height="33.35" fill="#151c28"/><g transform="translate(466.9,633.65) scale(1.6675) rotate(0)"><path fill-rule="evenodd" clip-rule="evenodd" d="M10 20C15.5228 20 20 15.5228 20 10C20 4.47715 15.5228 0 10 0C4.47715 0 0 4.47715 0 10C0 15.5228 4.47715 20 10 20ZM10 17C13.866 17 17 13.866 17 10C17 6.13401 13.866 3 10 3C6.13401 3 3 6.13401 3 10C3 13.866 6.13401 17 10 17Z" fill="#0e1420"/></g><rect x="500.25" y="633.65" width="33.35" height="33.35" fill="#0d121a"/><g transform="translate(500.25,633.65) scale(1.6675) rotate(0)"><path fill-rule="evenodd" clip-rule="evenodd" d="M10 20C15.5228 20 20 15.5228 20 10C20 4.47715 15.5228 0 10 0C4.47715 0 0 4.47715 0 10C0 15.5228 4.47715 20 10 20ZM10 17C13.866 17 17 13.866 17 10C17 6.13401 13.866 3 10 3C6.13401 3 3 6.13401 3 10C3 13.866 6.13401 17 10 17Z" fill="#000000"/></g><rect x="533.6" y="600.3000000000001" width="66.7" height="66.7" fill="#000000"/><rect x="533.6" y="600.3" width="33.35" height="33.35" fill="#0b0f19"/><path d="M 533.6 633.65 A 33.35 33.35 0 0 1  566.95 600.3 L 566.95 633.65" fill="#000000"/><rect x="566.95" y="600.3" width="33.35" height="33.35" fill="#0c111b"/><polygon points="566.95,600.3 600.3000000000001,600.3 600.3000000000001,633.65" fill="#020407"/><rect x="533.6" y="633.65" width="33.35" height="33.35" fill="#111721"/><path d="M 533.6 633.65 A 33.35 33.35 0 0 1  566.95 667 L 533.6 633.65 A 33.35 33.35 0 0 0 566.95 667" fill="#080b12"/><rect x="566.95" y="633.65" width="33.35" height="33.35" fill="#06080b"/><path d="M 566.95 667 A 33.35 33.35 0 0 1  600.3000000000001 633.65 L 566.95 667 A 33.35 33.35 0 0 0 600.3000000000001 633.65" fill="#0c1018"/><rect x="600.3" y="600.3" width="66.7" height="66.7" fill="#030407"/><g transform="translate(600.3,600.3) scale(3.335) rotate(0)"><path fill-rule="evenodd" clip-rule="evenodd" d="M10 20C15.5228 20 20 15.5228 20 10C20 4.47715 15.5228 0 10 0C4.47715 0 0 4.47715 0 10C0 15.5228 4.47715 20 10 20ZM10 17C13.866 17 17 13.866 17 10C17 6.13401 13.866 3 10 3C6.13401 3 3 6.13401 3 10C3 13.866 6.13401 17 10 17Z" fill="#151c28"/></g></g></svg>